%TF.GenerationSoftware,KiCad,Pcbnew,(5.1.6)-1*%
%TF.CreationDate,2020-06-27T19:36:01-04:00*%
%TF.ProjectId,dancegames controller,64616e63-6567-4616-9d65-7320636f6e74,rev?*%
%TF.SameCoordinates,Original*%
%TF.FileFunction,Copper,L2,Bot*%
%TF.FilePolarity,Positive*%
%FSLAX46Y46*%
G04 Gerber Fmt 4.6, Leading zero omitted, Abs format (unit mm)*
G04 Created by KiCad (PCBNEW (5.1.6)-1) date 2020-06-27 19:36:01*
%MOMM*%
%LPD*%
G01*
G04 APERTURE LIST*
%TA.AperFunction,ComponentPad*%
%ADD10C,2.000000*%
%TD*%
%TA.AperFunction,ComponentPad*%
%ADD11R,2.000000X2.000000*%
%TD*%
%TA.AperFunction,ComponentPad*%
%ADD12C,4.460000*%
%TD*%
%TA.AperFunction,ComponentPad*%
%ADD13C,1.800000*%
%TD*%
%TA.AperFunction,ComponentPad*%
%ADD14C,4.000000*%
%TD*%
%TA.AperFunction,ComponentPad*%
%ADD15C,1.540000*%
%TD*%
%TA.AperFunction,ComponentPad*%
%ADD16R,1.800000X1.800000*%
%TD*%
%TA.AperFunction,ComponentPad*%
%ADD17C,1.600000*%
%TD*%
%TA.AperFunction,ComponentPad*%
%ADD18R,1.600000X1.600000*%
%TD*%
%TA.AperFunction,ComponentPad*%
%ADD19O,1.600000X1.600000*%
%TD*%
%TA.AperFunction,ViaPad*%
%ADD20C,0.800000*%
%TD*%
%TA.AperFunction,Conductor*%
%ADD21C,0.250000*%
%TD*%
G04 APERTURE END LIST*
D10*
%TO.P,D5,2*%
%TO.N,Net-(D5-Pad2)*%
X153540000Y-114000000D03*
D11*
%TO.P,D5,1*%
%TO.N,GND*%
X151000000Y-114000000D03*
%TD*%
D10*
%TO.P,D4,2*%
%TO.N,Net-(D4-Pad2)*%
X159540000Y-114000000D03*
D11*
%TO.P,D4,1*%
%TO.N,GND*%
X157000000Y-114000000D03*
%TD*%
D10*
%TO.P,D3,2*%
%TO.N,Net-(D3-Pad2)*%
X153540000Y-108000000D03*
D11*
%TO.P,D3,1*%
%TO.N,GND*%
X151000000Y-108000000D03*
%TD*%
D10*
%TO.P,D1,2*%
%TO.N,Net-(D1-Pad2)*%
X147540000Y-114000000D03*
D11*
%TO.P,D1,1*%
%TO.N,GND*%
X145000000Y-114000000D03*
%TD*%
D10*
%TO.P,D2,2*%
%TO.N,Net-(D2-Pad2)*%
X153540000Y-120000000D03*
D11*
%TO.P,D2,1*%
%TO.N,GND*%
X151000000Y-120000000D03*
%TD*%
D12*
%TO.P,VR1,5*%
%TO.N,N/C*%
X157435000Y-67815000D03*
%TO.P,VR1,4*%
X148635000Y-67815000D03*
D13*
%TO.P,VR1,3*%
%TO.N,Net-(U1-Pad12)*%
X155535000Y-74815000D03*
%TO.P,VR1,2*%
%TO.N,+5V*%
X153035000Y-74815000D03*
%TO.P,VR1,1*%
%TO.N,GND*%
X150535000Y-74815000D03*
%TD*%
D14*
%TO.P,HOLE_M3,1*%
%TO.N,N/C*%
X163195000Y-139065000D03*
%TD*%
%TO.P,HOLE_M3,1*%
%TO.N,N/C*%
X112395000Y-139065000D03*
%TD*%
%TO.P,HOLE_M3,1*%
%TO.N,N/C*%
X163195000Y-62865000D03*
%TD*%
%TO.P,HOLE_M3,1*%
%TO.N,N/C*%
X112395000Y-62865000D03*
%TD*%
D15*
%TO.P,S4,4*%
%TO.N,Net-(S4-Pad4)*%
X154155000Y-90115000D03*
%TO.P,S4,3*%
%TO.N,Net-(S4-Pad3)*%
X160655000Y-90115000D03*
%TO.P,S4,2*%
%TO.N,GND*%
X154155000Y-94615000D03*
%TO.P,S4,1*%
%TO.N,Net-(S4-Pad1)*%
X160655000Y-94615000D03*
%TD*%
D13*
%TO.P,JPadConenctorHeader1,10*%
%TO.N,GND*%
X114385000Y-131445000D03*
%TO.P,JPadConenctorHeader1,9*%
%TO.N,Net-(JPadConenctorHeader1-Pad9)*%
X119385000Y-131445000D03*
%TO.P,JPadConenctorHeader1,8*%
%TO.N,GND*%
X124385000Y-131445000D03*
%TO.P,JPadConenctorHeader1,7*%
%TO.N,Net-(JPadConenctorHeader1-Pad7)*%
X129385000Y-131445000D03*
%TO.P,JPadConenctorHeader1,6*%
%TO.N,GND*%
X134385000Y-131445000D03*
%TO.P,JPadConenctorHeader1,5*%
%TO.N,Net-(JPadConenctorHeader1-Pad5)*%
X139385000Y-131445000D03*
%TO.P,JPadConenctorHeader1,4*%
%TO.N,GND*%
X144385000Y-131445000D03*
%TO.P,JPadConenctorHeader1,3*%
%TO.N,Net-(JPadConenctorHeader1-Pad3)*%
X149385000Y-131445000D03*
%TO.P,JPadConenctorHeader1,2*%
%TO.N,GND*%
X154385000Y-131445000D03*
D16*
%TO.P,JPadConenctorHeader1,1*%
%TO.N,Net-(JPadConenctorHeader1-Pad1)*%
X159385000Y-131445000D03*
%TD*%
D17*
%TO.P,U1,24*%
%TO.N,Net-(U1-Pad24)*%
X130175000Y-66675000D03*
%TO.P,U1,23*%
%TO.N,GND*%
X130175000Y-69215000D03*
%TO.P,U1,22*%
%TO.N,Net-(SR1-Pad2)*%
X130175000Y-71755000D03*
%TO.P,U1,21*%
%TO.N,+5V*%
X130175000Y-74295000D03*
%TO.P,U1,20*%
%TO.N,Net-(JPadConenctorHeader1-Pad1)*%
X130175000Y-76835000D03*
%TO.P,U1,19*%
%TO.N,Net-(JPadConenctorHeader1-Pad3)*%
X130175000Y-79375000D03*
%TO.P,U1,18*%
%TO.N,Net-(JPadConenctorHeader1-Pad5)*%
X130175000Y-81915000D03*
%TO.P,U1,17*%
%TO.N,Net-(JPadConenctorHeader1-Pad7)*%
X130175000Y-84455000D03*
%TO.P,U1,16*%
%TO.N,Net-(S5-Pad3)*%
X130175000Y-86995000D03*
%TO.P,U1,15*%
%TO.N,Net-(S4-Pad3)*%
X130175000Y-89535000D03*
%TO.P,U1,14*%
%TO.N,Net-(S3-Pad3)*%
X130175000Y-92075000D03*
%TO.P,U1,13*%
%TO.N,Net-(JPadConenctorHeader1-Pad9)*%
X130175000Y-94615000D03*
%TO.P,U1,12*%
%TO.N,Net-(U1-Pad12)*%
X114935000Y-94615000D03*
%TO.P,U1,11*%
%TO.N,Net-(U1-Pad11)*%
X114935000Y-92075000D03*
%TO.P,U1,10*%
%TO.N,Net-(U1-Pad10)*%
X114935000Y-89535000D03*
%TO.P,U1,9*%
%TO.N,Net-(R5-220ohm1-Pad2)*%
X114935000Y-86995000D03*
%TO.P,U1,8*%
%TO.N,Net-(R4-220ohm1-Pad2)*%
X114935000Y-84455000D03*
%TO.P,U1,7*%
%TO.N,Net-(R3-220ohm1-Pad2)*%
X114935000Y-81915000D03*
%TO.P,U1,6*%
%TO.N,Net-(R2-220ohm1-Pad2)*%
X114935000Y-79375000D03*
%TO.P,U1,5*%
%TO.N,Net-(R1-220ohm1-Pad2)*%
X114935000Y-76835000D03*
%TO.P,U1,4*%
%TO.N,Net-(U1-Pad4)*%
X114935000Y-74295000D03*
%TO.P,U1,3*%
%TO.N,Net-(U1-Pad3)*%
X114935000Y-71755000D03*
%TO.P,U1,2*%
%TO.N,Net-(S2-Pad3)*%
X114935000Y-69215000D03*
D18*
%TO.P,U1,1*%
%TO.N,Net-(S1-Pad3)*%
X114935000Y-66675000D03*
%TD*%
D15*
%TO.P,SR1,4*%
%TO.N,Net-(SR1-Pad4)*%
X135105000Y-67255000D03*
%TO.P,SR1,3*%
%TO.N,GND*%
X141605000Y-67255000D03*
%TO.P,SR1,2*%
%TO.N,Net-(SR1-Pad2)*%
X135105000Y-71755000D03*
%TO.P,SR1,1*%
%TO.N,Net-(SR1-Pad1)*%
X141605000Y-71755000D03*
%TD*%
%TO.P,S5,4*%
%TO.N,Net-(S5-Pad4)*%
X143995000Y-90115000D03*
%TO.P,S5,3*%
%TO.N,Net-(S5-Pad3)*%
X150495000Y-90115000D03*
%TO.P,S5,2*%
%TO.N,GND*%
X143995000Y-94615000D03*
%TO.P,S5,1*%
%TO.N,Net-(S5-Pad1)*%
X150495000Y-94615000D03*
%TD*%
%TO.P,S3,4*%
%TO.N,Net-(S3-Pad4)*%
X143995000Y-97735000D03*
%TO.P,S3,3*%
%TO.N,Net-(S3-Pad3)*%
X150495000Y-97735000D03*
%TO.P,S3,2*%
%TO.N,GND*%
X143995000Y-102235000D03*
%TO.P,S3,1*%
%TO.N,Net-(S3-Pad1)*%
X150495000Y-102235000D03*
%TD*%
%TO.P,S2,4*%
%TO.N,Net-(S2-Pad4)*%
X143995000Y-82495000D03*
%TO.P,S2,3*%
%TO.N,Net-(S2-Pad3)*%
X150495000Y-82495000D03*
%TO.P,S2,2*%
%TO.N,GND*%
X143995000Y-86995000D03*
%TO.P,S2,1*%
%TO.N,Net-(S2-Pad1)*%
X150495000Y-86995000D03*
%TD*%
%TO.P,S1,4*%
%TO.N,Net-(S1-Pad4)*%
X133835000Y-90115000D03*
%TO.P,S1,3*%
%TO.N,Net-(S1-Pad3)*%
X140335000Y-90115000D03*
%TO.P,S1,2*%
%TO.N,GND*%
X133835000Y-94615000D03*
%TO.P,S1,1*%
%TO.N,Net-(S1-Pad1)*%
X140335000Y-94615000D03*
%TD*%
D19*
%TO.P,R5-220ohm1,2*%
%TO.N,Net-(R5-220ohm1-Pad2)*%
X117475000Y-122555000D03*
D17*
%TO.P,R5-220ohm1,1*%
%TO.N,Net-(D5-Pad2)*%
X125095000Y-122555000D03*
%TD*%
D19*
%TO.P,R4-220ohm1,2*%
%TO.N,Net-(R4-220ohm1-Pad2)*%
X117475000Y-117475000D03*
D17*
%TO.P,R4-220ohm1,1*%
%TO.N,Net-(D4-Pad2)*%
X125095000Y-117475000D03*
%TD*%
D19*
%TO.P,R3-220ohm1,2*%
%TO.N,Net-(R3-220ohm1-Pad2)*%
X117475000Y-112395000D03*
D17*
%TO.P,R3-220ohm1,1*%
%TO.N,Net-(D3-Pad2)*%
X125095000Y-112395000D03*
%TD*%
D19*
%TO.P,R2-220ohm1,2*%
%TO.N,Net-(R2-220ohm1-Pad2)*%
X117475000Y-107315000D03*
D17*
%TO.P,R2-220ohm1,1*%
%TO.N,Net-(D2-Pad2)*%
X125095000Y-107315000D03*
%TD*%
D19*
%TO.P,R1-220ohm1,2*%
%TO.N,Net-(R1-220ohm1-Pad2)*%
X117475000Y-102235000D03*
D17*
%TO.P,R1-220ohm1,1*%
%TO.N,Net-(D1-Pad2)*%
X125095000Y-102235000D03*
%TD*%
D20*
%TO.N,Net-(D4-Pad2)*%
X141000000Y-117500000D03*
%TO.N,Net-(JPadConenctorHeader1-Pad1)*%
X122555000Y-126365000D03*
X159385000Y-126365000D03*
%TO.N,Net-(S2-Pad3)*%
X133985000Y-75565000D03*
%TO.N,Net-(U1-Pad12)*%
X121285000Y-93345000D03*
%TD*%
D21*
%TO.N,Net-(D1-Pad2)*%
X125095000Y-102235000D02*
X121285000Y-106045000D01*
X121285000Y-106045000D02*
X121285000Y-120015000D01*
X147540000Y-114000000D02*
X147540000Y-118460000D01*
X145985000Y-120015000D02*
X121285000Y-120015000D01*
X147540000Y-118460000D02*
X145985000Y-120015000D01*
%TO.N,Net-(D2-Pad2)*%
X162500000Y-117500000D02*
X160000000Y-120000000D01*
X141685000Y-107315000D02*
X144000000Y-105000000D01*
X125095000Y-107315000D02*
X141685000Y-107315000D01*
X144000000Y-105000000D02*
X157500000Y-105000000D01*
X157500000Y-105000000D02*
X162500000Y-110000000D01*
X160000000Y-120000000D02*
X153540000Y-120000000D01*
X162500000Y-110000000D02*
X162500000Y-117500000D01*
%TO.N,Net-(D3-Pad2)*%
X153540000Y-108000000D02*
X153540000Y-109960000D01*
X153540000Y-109960000D02*
X153000000Y-110500000D01*
X153000000Y-110500000D02*
X140500000Y-110500000D01*
X138605000Y-112395000D02*
X125095000Y-112395000D01*
X140500000Y-110500000D02*
X138605000Y-112395000D01*
%TO.N,Net-(D4-Pad2)*%
X140975000Y-117475000D02*
X141000000Y-117500000D01*
X137525000Y-117475000D02*
X140975000Y-117475000D01*
X137525000Y-117475000D02*
X137795000Y-117475000D01*
X125095000Y-117475000D02*
X137525000Y-117475000D01*
%TO.N,Net-(D5-Pad2)*%
X153540000Y-114000000D02*
X145040000Y-122500000D01*
X125150000Y-122500000D02*
X125095000Y-122555000D01*
X145040000Y-122500000D02*
X125150000Y-122500000D01*
%TO.N,Net-(JPadConenctorHeader1-Pad9)*%
X130175000Y-95489998D02*
X130175000Y-94615000D01*
X119385000Y-106279998D02*
X130175000Y-95489998D01*
X119385000Y-131445000D02*
X119385000Y-106279998D01*
%TO.N,Net-(JPadConenctorHeader1-Pad1)*%
X122555000Y-126365000D02*
X159385000Y-126365000D01*
X159385000Y-126365000D02*
X159385000Y-126365000D01*
%TO.N,Net-(R1-220ohm1-Pad2)*%
X117475000Y-102235000D02*
X120015000Y-99695000D01*
X120015000Y-99695000D02*
X120015000Y-78105000D01*
X114935000Y-76835000D02*
X118745000Y-76835000D01*
X118745000Y-76835000D02*
X120015000Y-78105000D01*
%TO.N,Net-(R2-220ohm1-Pad2)*%
X116205000Y-100965000D02*
X116205000Y-106045000D01*
X118745000Y-98425000D02*
X116205000Y-100965000D01*
X116205000Y-106045000D02*
X117475000Y-107315000D01*
X114935000Y-79375000D02*
X118745000Y-79375000D01*
X118745000Y-79375000D02*
X118745000Y-98425000D01*
%TO.N,Net-(R3-220ohm1-Pad2)*%
X117475000Y-112395000D02*
X117475000Y-111125000D01*
X117475000Y-111125000D02*
X114935000Y-108585000D01*
X114935000Y-108585000D02*
X114935000Y-99695000D01*
X114935000Y-99695000D02*
X117475000Y-97155000D01*
X117475000Y-84455000D02*
X114935000Y-81915000D01*
X117475000Y-97155000D02*
X117475000Y-84455000D01*
%TO.N,Net-(R4-220ohm1-Pad2)*%
X113665000Y-98425000D02*
X113665000Y-113665000D01*
X116205000Y-95885000D02*
X113665000Y-98425000D01*
X113665000Y-113665000D02*
X117475000Y-117475000D01*
X114935000Y-84455000D02*
X116205000Y-85725000D01*
X116205000Y-85725000D02*
X116205000Y-95885000D01*
%TO.N,Net-(R5-220ohm1-Pad2)*%
X112395000Y-89535000D02*
X114935000Y-86995000D01*
X117475000Y-122555000D02*
X117475000Y-121285000D01*
X117475000Y-121285000D02*
X112395000Y-116205000D01*
X112395000Y-89535000D02*
X112395000Y-116205000D01*
%TO.N,Net-(S2-Pad3)*%
X133985000Y-75565000D02*
X123825000Y-75565000D01*
X117475000Y-69215000D02*
X114935000Y-69215000D01*
X123825000Y-75565000D02*
X117475000Y-69215000D01*
%TO.N,Net-(S3-Pad3)*%
X150495000Y-97735000D02*
X147265000Y-100965000D01*
X147265000Y-100965000D02*
X138190002Y-100965000D01*
X130175000Y-92949998D02*
X130175000Y-92075000D01*
X138190002Y-100965000D02*
X130175000Y-92949998D01*
%TO.N,Net-(S4-Pad3)*%
X159559999Y-91210001D02*
X131850001Y-91210001D01*
X160655000Y-90115000D02*
X159559999Y-91210001D01*
X131850001Y-91210001D02*
X130175000Y-89535000D01*
%TO.N,Net-(S5-Pad3)*%
X151590001Y-86469399D02*
X149575602Y-84455000D01*
X150495000Y-90115000D02*
X151590001Y-89019999D01*
X151590001Y-89019999D02*
X151590001Y-86469399D01*
X132715000Y-84455000D02*
X130175000Y-86995000D01*
X149575602Y-84455000D02*
X132715000Y-84455000D01*
%TO.N,Net-(SR1-Pad2)*%
X135105000Y-71755000D02*
X130175000Y-71755000D01*
%TO.N,+5V*%
X153035000Y-73285000D02*
X153035000Y-74815000D01*
X145250000Y-72250000D02*
X152000000Y-72250000D01*
X130175000Y-74295000D02*
X143205000Y-74295000D01*
X152000000Y-72250000D02*
X153035000Y-73285000D01*
X143205000Y-74295000D02*
X145250000Y-72250000D01*
%TO.N,GND*%
X150535000Y-74815000D02*
X150015000Y-74295000D01*
%TO.N,Net-(U1-Pad12)*%
X129924997Y-80500001D02*
X149849999Y-80500001D01*
X121285000Y-93345000D02*
X121285000Y-89139998D01*
X149849999Y-80500001D02*
X155535000Y-74815000D01*
X121285000Y-89139998D02*
X129924997Y-80500001D01*
%TO.N,GND*%
X154385000Y-131445000D02*
X154385000Y-138129000D01*
X154385000Y-138129000D02*
X154338000Y-138176000D01*
X121116000Y-138176000D02*
X114385000Y-131445000D01*
X124385000Y-138101000D02*
X124460000Y-138176000D01*
X124385000Y-131445000D02*
X124385000Y-138101000D01*
X124460000Y-138176000D02*
X121116000Y-138176000D01*
X134385000Y-137903000D02*
X134112000Y-138176000D01*
X134385000Y-131445000D02*
X134385000Y-137903000D01*
X144385000Y-137781000D02*
X144780000Y-138176000D01*
X144385000Y-131445000D02*
X144385000Y-137781000D01*
X154338000Y-138176000D02*
X144780000Y-138176000D01*
X144780000Y-138176000D02*
X134112000Y-138176000D01*
X134112000Y-138176000D02*
X124460000Y-138176000D01*
X114385000Y-131445000D02*
X110500000Y-127560000D01*
X114394999Y-68089999D02*
X129049999Y-68089999D01*
X110500000Y-71984998D02*
X114394999Y-68089999D01*
X129049999Y-68089999D02*
X130175000Y-69215000D01*
X110500000Y-127560000D02*
X110500000Y-71984998D01*
%TD*%
M02*
