M48
; DRILL file {KiCad (5.1.6)-1} date 06/27/20 19:36:03
; FORMAT={-:-/ absolute / inch / decimal}
; #@! TF.CreationDate,2020-06-27T19:36:03-04:00
; #@! TF.GenerationSoftware,Kicad,Pcbnew,(5.1.6)-1
FMAT,2
INCH
T1C0.0157
T2C0.0315
T3C0.0390
T4C0.0433
T5C0.0472
T6C0.0492
T7C0.1171
T8C0.1260
%
G90
G05
T1
X4.775Y-3.675
X4.825Y-4.975
X5.275Y-2.975
X5.5512Y-4.626
X6.275Y-4.975
T2
X4.625Y-4.225
X4.925Y-4.225
X4.625Y-4.425
X4.925Y-4.425
X4.625Y-4.025
X4.925Y-4.025
X4.625Y-4.625
X4.925Y-4.625
X4.625Y-4.825
X4.925Y-4.825
T3
X5.6691Y-3.5478
X5.6691Y-3.725
X5.925Y-3.5478
X5.925Y-3.725
X5.6691Y-3.8478
X5.6691Y-4.025
X5.925Y-3.8478
X5.925Y-4.025
X5.2691Y-3.5478
X5.2691Y-3.725
X5.525Y-3.5478
X5.525Y-3.725
X5.6691Y-3.2478
X5.6691Y-3.425
X5.925Y-3.2478
X5.925Y-3.425
X5.3191Y-2.6478
X5.3191Y-2.825
X5.575Y-2.6478
X5.575Y-2.825
X6.0691Y-3.5478
X6.0691Y-3.725
X6.325Y-3.5478
X6.325Y-3.725
T4
X4.525Y-2.625
X4.525Y-2.725
X4.525Y-2.825
X4.525Y-2.925
X4.525Y-3.025
X4.525Y-3.125
X4.525Y-3.225
X4.525Y-3.325
X4.525Y-3.425
X4.525Y-3.525
X4.525Y-3.625
X4.525Y-3.725
X5.125Y-2.625
X5.125Y-2.725
X5.125Y-2.825
X5.125Y-2.925
X5.125Y-3.025
X5.125Y-3.125
X5.125Y-3.225
X5.125Y-3.325
X5.125Y-3.425
X5.125Y-3.525
X5.125Y-3.625
X5.125Y-3.725
T5
X4.5033Y-5.175
X4.7002Y-5.175
X4.897Y-5.175
X5.0939Y-5.175
X5.2907Y-5.175
X5.4876Y-5.175
X5.6844Y-5.175
X5.8813Y-5.175
X6.0781Y-5.175
X6.275Y-5.175
X5.9266Y-2.9455
X6.025Y-2.9455
X6.1234Y-2.9455
T6
X6.1811Y-4.4882
X6.2811Y-4.4882
X5.9449Y-4.252
X6.0449Y-4.252
X5.9449Y-4.4882
X6.0449Y-4.4882
X5.7087Y-4.4882
X5.8087Y-4.4882
X5.9449Y-4.7244
X6.0449Y-4.7244
T7
X5.8518Y-2.6699
X6.1982Y-2.6699
T8
X4.425Y-2.475
X6.425Y-2.475
X6.425Y-5.475
X4.425Y-5.475
T0
M30
