%TF.GenerationSoftware,KiCad,Pcbnew,(5.1.6)-1*%
%TF.CreationDate,2020-06-27T19:36:01-04:00*%
%TF.ProjectId,dancegames controller,64616e63-6567-4616-9d65-7320636f6e74,rev?*%
%TF.SameCoordinates,Original*%
%TF.FileFunction,Copper,L1,Top*%
%TF.FilePolarity,Positive*%
%FSLAX46Y46*%
G04 Gerber Fmt 4.6, Leading zero omitted, Abs format (unit mm)*
G04 Created by KiCad (PCBNEW (5.1.6)-1) date 2020-06-27 19:36:01*
%MOMM*%
%LPD*%
G01*
G04 APERTURE LIST*
%TA.AperFunction,ComponentPad*%
%ADD10C,2.000000*%
%TD*%
%TA.AperFunction,ComponentPad*%
%ADD11R,2.000000X2.000000*%
%TD*%
%TA.AperFunction,ComponentPad*%
%ADD12C,4.460000*%
%TD*%
%TA.AperFunction,ComponentPad*%
%ADD13C,1.800000*%
%TD*%
%TA.AperFunction,ComponentPad*%
%ADD14C,4.000000*%
%TD*%
%TA.AperFunction,ComponentPad*%
%ADD15C,1.540000*%
%TD*%
%TA.AperFunction,ComponentPad*%
%ADD16R,1.800000X1.800000*%
%TD*%
%TA.AperFunction,ComponentPad*%
%ADD17C,1.600000*%
%TD*%
%TA.AperFunction,ComponentPad*%
%ADD18R,1.600000X1.600000*%
%TD*%
%TA.AperFunction,ComponentPad*%
%ADD19O,1.600000X1.600000*%
%TD*%
%TA.AperFunction,ViaPad*%
%ADD20C,0.800000*%
%TD*%
%TA.AperFunction,Conductor*%
%ADD21C,0.250000*%
%TD*%
G04 APERTURE END LIST*
D10*
%TO.P,D5,2*%
%TO.N,Net-(D5-Pad2)*%
X153540000Y-114000000D03*
D11*
%TO.P,D5,1*%
%TO.N,GND*%
X151000000Y-114000000D03*
%TD*%
D10*
%TO.P,D4,2*%
%TO.N,Net-(D4-Pad2)*%
X159540000Y-114000000D03*
D11*
%TO.P,D4,1*%
%TO.N,GND*%
X157000000Y-114000000D03*
%TD*%
D10*
%TO.P,D3,2*%
%TO.N,Net-(D3-Pad2)*%
X153540000Y-108000000D03*
D11*
%TO.P,D3,1*%
%TO.N,GND*%
X151000000Y-108000000D03*
%TD*%
D10*
%TO.P,D1,2*%
%TO.N,Net-(D1-Pad2)*%
X147540000Y-114000000D03*
D11*
%TO.P,D1,1*%
%TO.N,GND*%
X145000000Y-114000000D03*
%TD*%
D10*
%TO.P,D2,2*%
%TO.N,Net-(D2-Pad2)*%
X153540000Y-120000000D03*
D11*
%TO.P,D2,1*%
%TO.N,GND*%
X151000000Y-120000000D03*
%TD*%
D12*
%TO.P,VR1,5*%
%TO.N,N/C*%
X157435000Y-67815000D03*
%TO.P,VR1,4*%
X148635000Y-67815000D03*
D13*
%TO.P,VR1,3*%
%TO.N,Net-(U1-Pad12)*%
X155535000Y-74815000D03*
%TO.P,VR1,2*%
%TO.N,+5V*%
X153035000Y-74815000D03*
%TO.P,VR1,1*%
%TO.N,GND*%
X150535000Y-74815000D03*
%TD*%
D14*
%TO.P,HOLE_M3,1*%
%TO.N,N/C*%
X163195000Y-139065000D03*
%TD*%
%TO.P,HOLE_M3,1*%
%TO.N,N/C*%
X112395000Y-139065000D03*
%TD*%
%TO.P,HOLE_M3,1*%
%TO.N,N/C*%
X163195000Y-62865000D03*
%TD*%
%TO.P,HOLE_M3,1*%
%TO.N,N/C*%
X112395000Y-62865000D03*
%TD*%
D15*
%TO.P,S4,4*%
%TO.N,Net-(S4-Pad4)*%
X154155000Y-90115000D03*
%TO.P,S4,3*%
%TO.N,Net-(S4-Pad3)*%
X160655000Y-90115000D03*
%TO.P,S4,2*%
%TO.N,GND*%
X154155000Y-94615000D03*
%TO.P,S4,1*%
%TO.N,Net-(S4-Pad1)*%
X160655000Y-94615000D03*
%TD*%
D13*
%TO.P,JPadConenctorHeader1,10*%
%TO.N,GND*%
X114385000Y-131445000D03*
%TO.P,JPadConenctorHeader1,9*%
%TO.N,Net-(JPadConenctorHeader1-Pad9)*%
X119385000Y-131445000D03*
%TO.P,JPadConenctorHeader1,8*%
%TO.N,GND*%
X124385000Y-131445000D03*
%TO.P,JPadConenctorHeader1,7*%
%TO.N,Net-(JPadConenctorHeader1-Pad7)*%
X129385000Y-131445000D03*
%TO.P,JPadConenctorHeader1,6*%
%TO.N,GND*%
X134385000Y-131445000D03*
%TO.P,JPadConenctorHeader1,5*%
%TO.N,Net-(JPadConenctorHeader1-Pad5)*%
X139385000Y-131445000D03*
%TO.P,JPadConenctorHeader1,4*%
%TO.N,GND*%
X144385000Y-131445000D03*
%TO.P,JPadConenctorHeader1,3*%
%TO.N,Net-(JPadConenctorHeader1-Pad3)*%
X149385000Y-131445000D03*
%TO.P,JPadConenctorHeader1,2*%
%TO.N,GND*%
X154385000Y-131445000D03*
D16*
%TO.P,JPadConenctorHeader1,1*%
%TO.N,Net-(JPadConenctorHeader1-Pad1)*%
X159385000Y-131445000D03*
%TD*%
D17*
%TO.P,U1,24*%
%TO.N,Net-(U1-Pad24)*%
X130175000Y-66675000D03*
%TO.P,U1,23*%
%TO.N,GND*%
X130175000Y-69215000D03*
%TO.P,U1,22*%
%TO.N,Net-(SR1-Pad2)*%
X130175000Y-71755000D03*
%TO.P,U1,21*%
%TO.N,+5V*%
X130175000Y-74295000D03*
%TO.P,U1,20*%
%TO.N,Net-(JPadConenctorHeader1-Pad1)*%
X130175000Y-76835000D03*
%TO.P,U1,19*%
%TO.N,Net-(JPadConenctorHeader1-Pad3)*%
X130175000Y-79375000D03*
%TO.P,U1,18*%
%TO.N,Net-(JPadConenctorHeader1-Pad5)*%
X130175000Y-81915000D03*
%TO.P,U1,17*%
%TO.N,Net-(JPadConenctorHeader1-Pad7)*%
X130175000Y-84455000D03*
%TO.P,U1,16*%
%TO.N,Net-(S5-Pad3)*%
X130175000Y-86995000D03*
%TO.P,U1,15*%
%TO.N,Net-(S4-Pad3)*%
X130175000Y-89535000D03*
%TO.P,U1,14*%
%TO.N,Net-(S3-Pad3)*%
X130175000Y-92075000D03*
%TO.P,U1,13*%
%TO.N,Net-(JPadConenctorHeader1-Pad9)*%
X130175000Y-94615000D03*
%TO.P,U1,12*%
%TO.N,Net-(U1-Pad12)*%
X114935000Y-94615000D03*
%TO.P,U1,11*%
%TO.N,Net-(U1-Pad11)*%
X114935000Y-92075000D03*
%TO.P,U1,10*%
%TO.N,Net-(U1-Pad10)*%
X114935000Y-89535000D03*
%TO.P,U1,9*%
%TO.N,Net-(R5-220ohm1-Pad2)*%
X114935000Y-86995000D03*
%TO.P,U1,8*%
%TO.N,Net-(R4-220ohm1-Pad2)*%
X114935000Y-84455000D03*
%TO.P,U1,7*%
%TO.N,Net-(R3-220ohm1-Pad2)*%
X114935000Y-81915000D03*
%TO.P,U1,6*%
%TO.N,Net-(R2-220ohm1-Pad2)*%
X114935000Y-79375000D03*
%TO.P,U1,5*%
%TO.N,Net-(R1-220ohm1-Pad2)*%
X114935000Y-76835000D03*
%TO.P,U1,4*%
%TO.N,Net-(U1-Pad4)*%
X114935000Y-74295000D03*
%TO.P,U1,3*%
%TO.N,Net-(U1-Pad3)*%
X114935000Y-71755000D03*
%TO.P,U1,2*%
%TO.N,Net-(S2-Pad3)*%
X114935000Y-69215000D03*
D18*
%TO.P,U1,1*%
%TO.N,Net-(S1-Pad3)*%
X114935000Y-66675000D03*
%TD*%
D15*
%TO.P,SR1,4*%
%TO.N,Net-(SR1-Pad4)*%
X135105000Y-67255000D03*
%TO.P,SR1,3*%
%TO.N,GND*%
X141605000Y-67255000D03*
%TO.P,SR1,2*%
%TO.N,Net-(SR1-Pad2)*%
X135105000Y-71755000D03*
%TO.P,SR1,1*%
%TO.N,Net-(SR1-Pad1)*%
X141605000Y-71755000D03*
%TD*%
%TO.P,S5,4*%
%TO.N,Net-(S5-Pad4)*%
X143995000Y-90115000D03*
%TO.P,S5,3*%
%TO.N,Net-(S5-Pad3)*%
X150495000Y-90115000D03*
%TO.P,S5,2*%
%TO.N,GND*%
X143995000Y-94615000D03*
%TO.P,S5,1*%
%TO.N,Net-(S5-Pad1)*%
X150495000Y-94615000D03*
%TD*%
%TO.P,S3,4*%
%TO.N,Net-(S3-Pad4)*%
X143995000Y-97735000D03*
%TO.P,S3,3*%
%TO.N,Net-(S3-Pad3)*%
X150495000Y-97735000D03*
%TO.P,S3,2*%
%TO.N,GND*%
X143995000Y-102235000D03*
%TO.P,S3,1*%
%TO.N,Net-(S3-Pad1)*%
X150495000Y-102235000D03*
%TD*%
%TO.P,S2,4*%
%TO.N,Net-(S2-Pad4)*%
X143995000Y-82495000D03*
%TO.P,S2,3*%
%TO.N,Net-(S2-Pad3)*%
X150495000Y-82495000D03*
%TO.P,S2,2*%
%TO.N,GND*%
X143995000Y-86995000D03*
%TO.P,S2,1*%
%TO.N,Net-(S2-Pad1)*%
X150495000Y-86995000D03*
%TD*%
%TO.P,S1,4*%
%TO.N,Net-(S1-Pad4)*%
X133835000Y-90115000D03*
%TO.P,S1,3*%
%TO.N,Net-(S1-Pad3)*%
X140335000Y-90115000D03*
%TO.P,S1,2*%
%TO.N,GND*%
X133835000Y-94615000D03*
%TO.P,S1,1*%
%TO.N,Net-(S1-Pad1)*%
X140335000Y-94615000D03*
%TD*%
D19*
%TO.P,R5-220ohm1,2*%
%TO.N,Net-(R5-220ohm1-Pad2)*%
X117475000Y-122555000D03*
D17*
%TO.P,R5-220ohm1,1*%
%TO.N,Net-(D5-Pad2)*%
X125095000Y-122555000D03*
%TD*%
D19*
%TO.P,R4-220ohm1,2*%
%TO.N,Net-(R4-220ohm1-Pad2)*%
X117475000Y-117475000D03*
D17*
%TO.P,R4-220ohm1,1*%
%TO.N,Net-(D4-Pad2)*%
X125095000Y-117475000D03*
%TD*%
D19*
%TO.P,R3-220ohm1,2*%
%TO.N,Net-(R3-220ohm1-Pad2)*%
X117475000Y-112395000D03*
D17*
%TO.P,R3-220ohm1,1*%
%TO.N,Net-(D3-Pad2)*%
X125095000Y-112395000D03*
%TD*%
D19*
%TO.P,R2-220ohm1,2*%
%TO.N,Net-(R2-220ohm1-Pad2)*%
X117475000Y-107315000D03*
D17*
%TO.P,R2-220ohm1,1*%
%TO.N,Net-(D2-Pad2)*%
X125095000Y-107315000D03*
%TD*%
D19*
%TO.P,R1-220ohm1,2*%
%TO.N,Net-(R1-220ohm1-Pad2)*%
X117475000Y-102235000D03*
D17*
%TO.P,R1-220ohm1,1*%
%TO.N,Net-(D1-Pad2)*%
X125095000Y-102235000D03*
%TD*%
D20*
%TO.N,Net-(D4-Pad2)*%
X141000000Y-117500000D03*
%TO.N,Net-(JPadConenctorHeader1-Pad1)*%
X122555000Y-126365000D03*
X159385000Y-126365000D03*
%TO.N,Net-(S2-Pad3)*%
X133985000Y-75565000D03*
%TO.N,Net-(U1-Pad12)*%
X121285000Y-93345000D03*
%TD*%
D21*
%TO.N,Net-(D4-Pad2)*%
X159540000Y-114000000D02*
X159540000Y-122960000D01*
X159540000Y-122960000D02*
X158500000Y-124000000D01*
X158500000Y-124000000D02*
X147500000Y-124000000D01*
X147500000Y-124000000D02*
X141000000Y-117500000D01*
X141000000Y-117500000D02*
X141000000Y-117500000D01*
%TO.N,Net-(JPadConenctorHeader1-Pad7)*%
X129385000Y-104859998D02*
X123825000Y-99299998D01*
X129385000Y-131445000D02*
X129385000Y-104859998D01*
X123825000Y-99299998D02*
X123825000Y-89535000D01*
X128905000Y-84455000D02*
X130175000Y-84455000D01*
X123825000Y-89535000D02*
X128905000Y-84455000D01*
%TO.N,Net-(JPadConenctorHeader1-Pad5)*%
X131300001Y-83040001D02*
X130175000Y-81915000D01*
X139385000Y-131445000D02*
X131300001Y-123360001D01*
X131300001Y-123360001D02*
X131300001Y-83040001D01*
%TO.N,Net-(JPadConenctorHeader1-Pad3)*%
X132739999Y-81939999D02*
X130175000Y-79375000D01*
X132739999Y-114799999D02*
X132739999Y-81939999D01*
X149385000Y-131445000D02*
X132739999Y-114799999D01*
%TO.N,Net-(JPadConenctorHeader1-Pad1)*%
X130175000Y-76835000D02*
X122555000Y-84455000D01*
X122555000Y-84455000D02*
X122555000Y-126365000D01*
X122555000Y-126365000D02*
X122555000Y-126365000D01*
X159385000Y-126365000D02*
X159385000Y-131445000D01*
%TO.N,Net-(S1-Pad3)*%
X129634999Y-75420001D02*
X121285000Y-67070002D01*
X130425003Y-75420001D02*
X129634999Y-75420001D01*
X140335000Y-90115000D02*
X140335000Y-85329998D01*
X140335000Y-85329998D02*
X130425003Y-75420001D01*
X115330002Y-67070002D02*
X114935000Y-66675000D01*
X121285000Y-67070002D02*
X115330002Y-67070002D01*
%TO.N,Net-(S2-Pad3)*%
X149399999Y-81399999D02*
X139819999Y-81399999D01*
X150495000Y-82495000D02*
X149399999Y-81399999D01*
X139819999Y-81399999D02*
X133985000Y-75565000D01*
X133985000Y-75565000D02*
X133985000Y-75565000D01*
%TO.N,Net-(U1-Pad12)*%
X114935000Y-94615000D02*
X120015000Y-94615000D01*
X120015000Y-94615000D02*
X121285000Y-93345000D01*
X121285000Y-93345000D02*
X121285000Y-93345000D01*
%TO.N,GND*%
X145265000Y-95885000D02*
X143995000Y-94615000D01*
X124385000Y-132155000D02*
X124385000Y-131445000D01*
X155535000Y-93235000D02*
X154155000Y-94615000D01*
X144445010Y-101784990D02*
X144181400Y-101784990D01*
X145900000Y-100330000D02*
X144445010Y-101784990D01*
X143995000Y-94615000D02*
X146685000Y-97305000D01*
X146685000Y-100330000D02*
X145900000Y-100330000D01*
X136225000Y-92225000D02*
X133835000Y-94615000D01*
X141605000Y-92225000D02*
X136225000Y-92225000D01*
X143995000Y-94615000D02*
X141605000Y-92225000D01*
X154155000Y-96670000D02*
X154155000Y-94615000D01*
X150495000Y-100330000D02*
X146685000Y-100330000D01*
X150495000Y-100330000D02*
X154155000Y-96670000D01*
X139610000Y-69250000D02*
X141286795Y-67573205D01*
X130175000Y-69215000D02*
X130210000Y-69250000D01*
X130210000Y-69250000D02*
X139610000Y-69250000D01*
X155535000Y-84035000D02*
X155535000Y-93235000D01*
X155500000Y-79780000D02*
X155500000Y-84000000D01*
X150535000Y-74815000D02*
X155500000Y-79780000D01*
X155500000Y-84000000D02*
X155535000Y-84035000D01*
X145090001Y-85899999D02*
X153495001Y-85899999D01*
X153495001Y-85899999D02*
X155535000Y-83860000D01*
X143995000Y-86995000D02*
X145090001Y-85899999D01*
X155535000Y-83860000D02*
X155535000Y-84035000D01*
X151000000Y-104630000D02*
X146685000Y-100315000D01*
X151000000Y-108000000D02*
X151000000Y-104630000D01*
X146685000Y-97305000D02*
X146685000Y-100315000D01*
X146685000Y-100315000D02*
X146685000Y-100330000D01*
X151000000Y-108000000D02*
X151000000Y-114000000D01*
X151000000Y-114000000D02*
X151000000Y-120000000D01*
X145000000Y-112500000D02*
X145000000Y-114000000D01*
X146500000Y-111000000D02*
X145000000Y-112500000D01*
X148500000Y-111000000D02*
X146500000Y-111000000D01*
X151000000Y-114000000D02*
X151000000Y-113500000D01*
X151000000Y-113500000D02*
X148500000Y-111000000D01*
X156500000Y-112000000D02*
X156500000Y-113500000D01*
X156500000Y-113500000D02*
X157000000Y-114000000D01*
X155500000Y-111000000D02*
X156500000Y-112000000D01*
X151000000Y-114000000D02*
X154000000Y-111000000D01*
X154000000Y-111000000D02*
X155500000Y-111000000D01*
X142975000Y-67255000D02*
X150535000Y-74815000D01*
X141605000Y-67255000D02*
X142975000Y-67255000D01*
%TD*%
M02*
