%TF.GenerationSoftware,KiCad,Pcbnew,(5.1.6)-1*%
%TF.CreationDate,2020-06-27T19:36:01-04:00*%
%TF.ProjectId,dancegames controller,64616e63-6567-4616-9d65-7320636f6e74,rev?*%
%TF.SameCoordinates,Original*%
%TF.FileFunction,Legend,Top*%
%TF.FilePolarity,Positive*%
%FSLAX46Y46*%
G04 Gerber Fmt 4.6, Leading zero omitted, Abs format (unit mm)*
G04 Created by KiCad (PCBNEW (5.1.6)-1) date 2020-06-27 19:36:01*
%MOMM*%
%LPD*%
G01*
G04 APERTURE LIST*
%ADD10C,0.150000*%
%ADD11C,0.100000*%
%ADD12C,0.120000*%
%ADD13C,0.200000*%
%ADD14C,0.254000*%
G04 APERTURE END LIST*
D10*
X133738095Y-138500000D02*
X133642857Y-138452380D01*
X133500000Y-138452380D01*
X133357142Y-138500000D01*
X133261904Y-138595238D01*
X133214285Y-138690476D01*
X133166666Y-138880952D01*
X133166666Y-139023809D01*
X133214285Y-139214285D01*
X133261904Y-139309523D01*
X133357142Y-139404761D01*
X133500000Y-139452380D01*
X133595238Y-139452380D01*
X133738095Y-139404761D01*
X133785714Y-139357142D01*
X133785714Y-139023809D01*
X133595238Y-139023809D01*
X134214285Y-139452380D02*
X134214285Y-138452380D01*
X134785714Y-139452380D01*
X134785714Y-138452380D01*
X135261904Y-139452380D02*
X135261904Y-138452380D01*
X135500000Y-138452380D01*
X135642857Y-138500000D01*
X135738095Y-138595238D01*
X135785714Y-138690476D01*
X135833333Y-138880952D01*
X135833333Y-139023809D01*
X135785714Y-139214285D01*
X135738095Y-139309523D01*
X135642857Y-139404761D01*
X135500000Y-139452380D01*
X135261904Y-139452380D01*
X153738095Y-138500000D02*
X153642857Y-138452380D01*
X153500000Y-138452380D01*
X153357142Y-138500000D01*
X153261904Y-138595238D01*
X153214285Y-138690476D01*
X153166666Y-138880952D01*
X153166666Y-139023809D01*
X153214285Y-139214285D01*
X153261904Y-139309523D01*
X153357142Y-139404761D01*
X153500000Y-139452380D01*
X153595238Y-139452380D01*
X153738095Y-139404761D01*
X153785714Y-139357142D01*
X153785714Y-139023809D01*
X153595238Y-139023809D01*
X154214285Y-139452380D02*
X154214285Y-138452380D01*
X154785714Y-139452380D01*
X154785714Y-138452380D01*
X155261904Y-139452380D02*
X155261904Y-138452380D01*
X155500000Y-138452380D01*
X155642857Y-138500000D01*
X155738095Y-138595238D01*
X155785714Y-138690476D01*
X155833333Y-138880952D01*
X155833333Y-139023809D01*
X155785714Y-139214285D01*
X155738095Y-139309523D01*
X155642857Y-139404761D01*
X155500000Y-139452380D01*
X155261904Y-139452380D01*
X115238095Y-138500000D02*
X115142857Y-138452380D01*
X115000000Y-138452380D01*
X114857142Y-138500000D01*
X114761904Y-138595238D01*
X114714285Y-138690476D01*
X114666666Y-138880952D01*
X114666666Y-139023809D01*
X114714285Y-139214285D01*
X114761904Y-139309523D01*
X114857142Y-139404761D01*
X115000000Y-139452380D01*
X115095238Y-139452380D01*
X115238095Y-139404761D01*
X115285714Y-139357142D01*
X115285714Y-139023809D01*
X115095238Y-139023809D01*
X115714285Y-139452380D02*
X115714285Y-138452380D01*
X116285714Y-139452380D01*
X116285714Y-138452380D01*
X116761904Y-139452380D02*
X116761904Y-138452380D01*
X117000000Y-138452380D01*
X117142857Y-138500000D01*
X117238095Y-138595238D01*
X117285714Y-138690476D01*
X117333333Y-138880952D01*
X117333333Y-139023809D01*
X117285714Y-139214285D01*
X117238095Y-139309523D01*
X117142857Y-139404761D01*
X117000000Y-139452380D01*
X116761904Y-139452380D01*
X123738095Y-138500000D02*
X123642857Y-138452380D01*
X123500000Y-138452380D01*
X123357142Y-138500000D01*
X123261904Y-138595238D01*
X123214285Y-138690476D01*
X123166666Y-138880952D01*
X123166666Y-139023809D01*
X123214285Y-139214285D01*
X123261904Y-139309523D01*
X123357142Y-139404761D01*
X123500000Y-139452380D01*
X123595238Y-139452380D01*
X123738095Y-139404761D01*
X123785714Y-139357142D01*
X123785714Y-139023809D01*
X123595238Y-139023809D01*
X124214285Y-139452380D02*
X124214285Y-138452380D01*
X124785714Y-139452380D01*
X124785714Y-138452380D01*
X125261904Y-139452380D02*
X125261904Y-138452380D01*
X125500000Y-138452380D01*
X125642857Y-138500000D01*
X125738095Y-138595238D01*
X125785714Y-138690476D01*
X125833333Y-138880952D01*
X125833333Y-139023809D01*
X125785714Y-139214285D01*
X125738095Y-139309523D01*
X125642857Y-139404761D01*
X125500000Y-139452380D01*
X125261904Y-139452380D01*
X143738095Y-138500000D02*
X143642857Y-138452380D01*
X143500000Y-138452380D01*
X143357142Y-138500000D01*
X143261904Y-138595238D01*
X143214285Y-138690476D01*
X143166666Y-138880952D01*
X143166666Y-139023809D01*
X143214285Y-139214285D01*
X143261904Y-139309523D01*
X143357142Y-139404761D01*
X143500000Y-139452380D01*
X143595238Y-139452380D01*
X143738095Y-139404761D01*
X143785714Y-139357142D01*
X143785714Y-139023809D01*
X143595238Y-139023809D01*
X144214285Y-139452380D02*
X144214285Y-138452380D01*
X144785714Y-139452380D01*
X144785714Y-138452380D01*
X145261904Y-139452380D02*
X145261904Y-138452380D01*
X145500000Y-138452380D01*
X145642857Y-138500000D01*
X145738095Y-138595238D01*
X145785714Y-138690476D01*
X145833333Y-138880952D01*
X145833333Y-139023809D01*
X145785714Y-139214285D01*
X145738095Y-139309523D01*
X145642857Y-139404761D01*
X145500000Y-139452380D01*
X145261904Y-139452380D01*
D11*
X136077841Y-120309780D02*
X136074545Y-120207565D01*
X136074545Y-120207565D02*
X136052421Y-120192800D01*
X137546001Y-120462200D02*
X137546001Y-120462200D01*
X136052421Y-120192800D02*
X135963447Y-120140798D01*
X135963447Y-120140798D02*
X135878584Y-120087125D01*
X135878584Y-120087125D02*
X135869600Y-120081200D01*
X137439421Y-120487580D02*
X137537222Y-120462659D01*
X137537222Y-120462659D02*
X137546001Y-120462200D01*
X135869600Y-120081200D02*
X135776168Y-120023714D01*
X135776168Y-120023714D02*
X135674162Y-119963218D01*
X135674162Y-119963218D02*
X135576647Y-119911704D01*
X135576647Y-119911704D02*
X135480485Y-119879972D01*
X135480485Y-119879972D02*
X135381302Y-119903552D01*
X135381302Y-119903552D02*
X135351240Y-119923760D01*
X132775801Y-118272760D02*
X132853817Y-118354062D01*
X132853817Y-118354062D02*
X132955197Y-118449106D01*
X132955197Y-118449106D02*
X133032750Y-118517759D01*
X133032750Y-118517759D02*
X133116165Y-118589002D01*
X133116165Y-118589002D02*
X133203635Y-118661430D01*
X133203635Y-118661430D02*
X133293350Y-118733635D01*
X133293350Y-118733635D02*
X133383503Y-118804212D01*
X133383503Y-118804212D02*
X133472284Y-118871753D01*
X133472284Y-118871753D02*
X133557886Y-118934853D01*
X133557886Y-118934853D02*
X133676370Y-119018096D01*
X133676370Y-119018096D02*
X133777526Y-119083433D01*
X133777526Y-119083433D02*
X133874897Y-119134490D01*
X133874897Y-119134490D02*
X133903441Y-119141400D01*
X132618421Y-117815560D02*
X132540093Y-117746391D01*
X132540093Y-117746391D02*
X132568037Y-117845441D01*
X132568037Y-117845441D02*
X132616450Y-117935870D01*
X132616450Y-117935870D02*
X132628441Y-117957620D01*
X137144601Y-118171160D02*
X137244497Y-118145277D01*
X137244497Y-118145277D02*
X137353949Y-118129667D01*
X137353949Y-118129667D02*
X137449421Y-118120360D01*
X137449421Y-118120360D02*
X137558811Y-118103041D01*
X137558811Y-118103041D02*
X137662262Y-118072642D01*
X137662262Y-118072642D02*
X137757863Y-118026643D01*
X137757863Y-118026643D02*
X137774601Y-118013760D01*
X133791841Y-117972980D02*
X133703924Y-117915677D01*
X133703924Y-117915677D02*
X133619947Y-117860464D01*
X133619947Y-117860464D02*
X133528985Y-117800909D01*
X133528985Y-117800909D02*
X133512421Y-117790160D01*
X134772381Y-118308200D02*
X134774847Y-118410543D01*
X134774847Y-118410543D02*
X134724365Y-118507654D01*
X134724365Y-118507654D02*
X134660441Y-118577560D01*
X136164061Y-119369980D02*
X136238629Y-119487065D01*
X136238629Y-119487065D02*
X136305484Y-119574210D01*
X136305484Y-119574210D02*
X136383571Y-119666447D01*
X136383571Y-119666447D02*
X136470761Y-119761909D01*
X136470761Y-119761909D02*
X136564927Y-119858728D01*
X136564927Y-119858728D02*
X136663939Y-119955038D01*
X136663939Y-119955038D02*
X136765670Y-120048970D01*
X136765670Y-120048970D02*
X136867992Y-120138659D01*
X136867992Y-120138659D02*
X136968777Y-120222237D01*
X136968777Y-120222237D02*
X137065895Y-120297836D01*
X137065895Y-120297836D02*
X137157220Y-120363590D01*
X137157220Y-120363590D02*
X137278688Y-120439676D01*
X137278688Y-120439676D02*
X137375149Y-120483106D01*
X137375149Y-120483106D02*
X137439421Y-120487580D01*
X135950801Y-118516420D02*
X135952987Y-118641174D01*
X135952987Y-118641174D02*
X135964186Y-118747524D01*
X135964186Y-118747524D02*
X135983209Y-118857559D01*
X135983209Y-118857559D02*
X136009524Y-118969307D01*
X136009524Y-118969307D02*
X136042597Y-119080798D01*
X136042597Y-119080798D02*
X136081899Y-119190060D01*
X136081899Y-119190060D02*
X136126895Y-119295123D01*
X136126895Y-119295123D02*
X136164061Y-119369980D01*
X135803441Y-118303160D02*
X135884652Y-118238729D01*
X135884652Y-118238729D02*
X135941531Y-118322354D01*
X135941531Y-118322354D02*
X135951518Y-118425823D01*
X135951518Y-118425823D02*
X135950801Y-118516420D01*
X132603021Y-118008400D02*
X132535347Y-117924335D01*
X132535347Y-117924335D02*
X132484334Y-117836877D01*
X132484334Y-117836877D02*
X132471021Y-117790160D01*
X134792441Y-118638400D02*
X134895146Y-118664562D01*
X134895146Y-118664562D02*
X135002632Y-118664232D01*
X135002632Y-118664232D02*
X135102505Y-118655595D01*
X135102505Y-118655595D02*
X135117641Y-118653760D01*
X134203241Y-118186200D02*
X134116956Y-118126682D01*
X134116956Y-118126682D02*
X134045841Y-118099980D01*
X132735061Y-118150780D02*
X132603021Y-118008400D01*
X133771441Y-120512980D02*
X133791841Y-120462200D01*
X135656061Y-118272760D02*
X135720128Y-118354178D01*
X135720128Y-118354178D02*
X135803441Y-118303160D01*
X135382001Y-118425160D02*
X135428728Y-118519034D01*
X135428728Y-118519034D02*
X135535808Y-118527109D01*
X135535808Y-118527109D02*
X135595221Y-118501360D01*
X136438440Y-117891760D02*
X136333059Y-117913896D01*
X136333059Y-117913896D02*
X136224478Y-117929643D01*
X136224478Y-117929643D02*
X136111849Y-117943704D01*
X136111849Y-117943704D02*
X136077841Y-117947580D01*
X134350601Y-118308200D02*
X134396421Y-118226980D01*
X132471021Y-117790160D02*
X132415200Y-117718980D01*
X137546001Y-120462200D02*
X137615900Y-120386653D01*
X137615900Y-120386653D02*
X137647601Y-120330160D01*
X132811241Y-117363400D02*
X132903521Y-117409658D01*
X132903521Y-117409658D02*
X132998772Y-117450777D01*
X132998772Y-117450777D02*
X132918397Y-117383959D01*
X132918397Y-117383959D02*
X132887441Y-117363400D01*
X134498001Y-117922160D02*
X134390038Y-117898540D01*
X134390038Y-117898540D02*
X134286743Y-117889261D01*
X134286743Y-117889261D02*
X134340601Y-117942560D01*
X135620601Y-118008400D02*
X135508189Y-118023652D01*
X135508189Y-118023652D02*
X135382318Y-118031349D01*
X135382318Y-118031349D02*
X135280731Y-118032199D01*
X135280731Y-118032199D02*
X135174273Y-118028857D01*
X135174273Y-118028857D02*
X135064099Y-118021347D01*
X135064099Y-118021347D02*
X134951368Y-118009695D01*
X134951368Y-118009695D02*
X134837236Y-117993926D01*
X134837236Y-117993926D02*
X134722859Y-117974063D01*
X134722859Y-117974063D02*
X134609395Y-117950133D01*
X134609395Y-117950133D02*
X134498001Y-117922160D01*
X136179421Y-118353980D02*
X136076729Y-118324622D01*
X136076729Y-118324622D02*
X136032021Y-118257400D01*
X135514001Y-118211580D02*
X135613884Y-118220999D01*
X135613884Y-118220999D02*
X135656061Y-118272760D01*
X135595221Y-118501360D02*
X135683167Y-118451328D01*
X135683167Y-118451328D02*
X135661380Y-118450560D01*
X135661380Y-118450560D02*
X135559016Y-118427264D01*
X135559016Y-118427264D02*
X135497936Y-118343318D01*
X135497936Y-118343318D02*
X135496093Y-118237173D01*
X135496093Y-118237173D02*
X135514001Y-118211580D01*
X135214221Y-118425160D02*
X135228967Y-118319320D01*
X135228967Y-118319320D02*
X135328759Y-118328691D01*
X135328759Y-118328691D02*
X135382001Y-118425160D01*
X137789641Y-117698580D02*
X137676815Y-117704874D01*
X137676815Y-117704874D02*
X137565604Y-117711985D01*
X137565604Y-117711985D02*
X137463054Y-117719740D01*
X137463054Y-117719740D02*
X137351968Y-117730780D01*
X137351968Y-117730780D02*
X137297021Y-117739360D01*
X135305801Y-118592580D02*
X135229303Y-118526324D01*
X135229303Y-118526324D02*
X135214221Y-118425160D01*
X133715601Y-120462200D02*
X133771441Y-120512980D01*
X134660441Y-118577560D02*
X134660441Y-118618000D01*
X136077841Y-117947580D02*
X135973850Y-117959479D01*
X135973850Y-117959479D02*
X135871591Y-117971823D01*
X135871591Y-117971823D02*
X135762516Y-117985977D01*
X135762516Y-117985977D02*
X135663062Y-118000651D01*
X135663062Y-118000651D02*
X135620601Y-118008400D01*
X133995021Y-118902760D02*
X134027510Y-118793102D01*
X134027510Y-118793102D02*
X134066318Y-118687750D01*
X134066318Y-118687750D02*
X134109176Y-118590506D01*
X134109176Y-118590506D02*
X134164988Y-118486145D01*
X134164988Y-118486145D02*
X134229402Y-118395936D01*
X134229402Y-118395936D02*
X134304841Y-118359000D01*
X134553841Y-118516420D02*
X134595306Y-118420678D01*
X134595306Y-118420678D02*
X134664480Y-118346009D01*
X134664480Y-118346009D02*
X134756404Y-118300706D01*
X134756404Y-118300706D02*
X134772381Y-118308200D01*
X134416801Y-118074580D02*
X134362868Y-118161039D01*
X134362868Y-118161039D02*
X134274777Y-118209886D01*
X134274777Y-118209886D02*
X134203241Y-118186200D01*
X137774601Y-118013760D02*
X137855738Y-117952918D01*
X137855738Y-117952918D02*
X137901601Y-117942560D01*
X133736001Y-120411400D02*
X133715601Y-120462200D01*
X132379441Y-117556560D02*
X132408593Y-117450294D01*
X132408593Y-117450294D02*
X132481414Y-117363723D01*
X132481414Y-117363723D02*
X132586295Y-117321352D01*
X132586295Y-117321352D02*
X132693963Y-117323333D01*
X132693963Y-117323333D02*
X132791300Y-117353967D01*
X132791300Y-117353967D02*
X132811241Y-117363400D01*
X137347841Y-119496981D02*
X137269298Y-119373633D01*
X137269298Y-119373633D02*
X137205668Y-119285852D01*
X137205668Y-119285852D02*
X137134622Y-119195168D01*
X137134622Y-119195168D02*
X137057529Y-119102900D01*
X137057529Y-119102900D02*
X136975760Y-119010363D01*
X136975760Y-119010363D02*
X136890684Y-118918877D01*
X136890684Y-118918877D02*
X136803670Y-118829757D01*
X136803670Y-118829757D02*
X136716090Y-118744323D01*
X136716090Y-118744323D02*
X136629312Y-118663890D01*
X136629312Y-118663890D02*
X136544707Y-118589776D01*
X136544707Y-118589776D02*
X136463643Y-118523299D01*
X136463643Y-118523299D02*
X136351686Y-118440784D01*
X136351686Y-118440784D02*
X136255404Y-118382862D01*
X136255404Y-118382862D02*
X136179421Y-118353980D01*
X134660441Y-118618000D02*
X134763735Y-118620824D01*
X134763735Y-118620824D02*
X134792441Y-118638400D01*
X132349020Y-117393780D02*
X132320947Y-117494684D01*
X132320947Y-117494684D02*
X132324569Y-117615105D01*
X132324569Y-117615105D02*
X132364403Y-117726635D01*
X132364403Y-117726635D02*
X132423880Y-117830374D01*
X132423880Y-117830374D02*
X132486234Y-117920005D01*
X132486234Y-117920005D02*
X132564969Y-118022173D01*
X132564969Y-118022173D02*
X132661140Y-118139038D01*
X132661140Y-118139038D02*
X132735461Y-118226179D01*
X132735461Y-118226179D02*
X132775801Y-118272760D01*
X134340601Y-117942560D02*
X134417978Y-118010427D01*
X134417978Y-118010427D02*
X134416801Y-118074580D01*
X136560421Y-118221980D02*
X136664074Y-118217647D01*
X136664074Y-118217647D02*
X136787898Y-118211127D01*
X136787898Y-118211127D02*
X136900902Y-118203579D01*
X136900902Y-118203579D02*
X137015525Y-118193462D01*
X137015525Y-118193462D02*
X137119257Y-118178774D01*
X137119257Y-118178774D02*
X137144601Y-118171160D01*
X134416801Y-118328580D02*
X134425933Y-118431460D01*
X134425933Y-118431460D02*
X134472601Y-118506400D01*
X134304841Y-118359000D02*
X134350601Y-118308200D01*
X137297021Y-117739360D02*
X137152036Y-117762675D01*
X137152036Y-117762675D02*
X137020027Y-117784124D01*
X137020027Y-117784124D02*
X136901122Y-117803706D01*
X136901122Y-117803706D02*
X136795447Y-117821419D01*
X136795447Y-117821419D02*
X136675348Y-117842132D01*
X136675348Y-117842132D02*
X136559076Y-117863352D01*
X136559076Y-117863352D02*
X136460541Y-117884337D01*
X136460541Y-117884337D02*
X136438440Y-117891760D01*
X138043641Y-117820580D02*
X138160641Y-117678200D01*
X133248381Y-117729000D02*
X133223771Y-117833077D01*
X133223771Y-117833077D02*
X133160358Y-117912628D01*
X133160358Y-117912628D02*
X133059783Y-117950247D01*
X133059783Y-117950247D02*
X132941690Y-117948837D01*
X132941690Y-117948837D02*
X132902841Y-117942560D01*
X132415200Y-117718980D02*
X132376526Y-117620430D01*
X132376526Y-117620430D02*
X132379441Y-117556560D01*
X132902841Y-117942560D02*
X132799852Y-117914296D01*
X132799852Y-117914296D02*
X132702619Y-117872688D01*
X132702619Y-117872688D02*
X132618421Y-117815560D01*
X138160641Y-117678200D02*
X137789641Y-117698580D01*
X137647601Y-120330160D02*
X137667670Y-120228824D01*
X137667670Y-120228824D02*
X137650597Y-120116733D01*
X137650597Y-120116733D02*
X137609599Y-119998293D01*
X137609599Y-119998293D02*
X137557857Y-119883209D01*
X137557857Y-119883209D02*
X137507337Y-119783193D01*
X137507337Y-119783193D02*
X137446306Y-119670116D01*
X137446306Y-119670116D02*
X137374335Y-119542792D01*
X137374335Y-119542792D02*
X137347841Y-119496981D01*
X134045841Y-118099980D02*
X133946623Y-118060299D01*
X133946623Y-118060299D02*
X133852248Y-118011386D01*
X133852248Y-118011386D02*
X133791841Y-117972980D01*
X132887441Y-117363400D02*
X132792892Y-117314545D01*
X132792892Y-117314545D02*
X132690589Y-117286576D01*
X132690589Y-117286576D02*
X132588449Y-117278787D01*
X132588449Y-117278787D02*
X132477247Y-117295089D01*
X132477247Y-117295089D02*
X132380478Y-117347931D01*
X132380478Y-117347931D02*
X132349020Y-117393780D01*
X132628441Y-117957620D02*
X132735061Y-118150780D01*
X136032021Y-118257400D02*
X136145099Y-118243238D01*
X136145099Y-118243238D02*
X136252655Y-118236112D01*
X136252655Y-118236112D02*
X136361443Y-118230321D01*
X136361443Y-118230321D02*
X136483068Y-118224925D01*
X136483068Y-118224925D02*
X136560421Y-118221980D01*
X137901601Y-117942560D02*
X137986785Y-117884654D01*
X137986785Y-117884654D02*
X138043641Y-117820580D01*
X135117641Y-118653760D02*
X135217716Y-118634947D01*
X135217716Y-118634947D02*
X135315318Y-118604577D01*
X135315318Y-118604577D02*
X135305801Y-118592580D01*
X134396421Y-118226980D02*
X134416801Y-118328580D01*
X133791841Y-120462200D02*
X133791841Y-120462200D01*
X133512421Y-117790160D02*
X133412321Y-117723576D01*
X133412321Y-117723576D02*
X133320790Y-117668978D01*
X133320790Y-117668978D02*
X133248381Y-117729000D01*
X134472601Y-118506400D02*
X134553841Y-118516420D01*
X133903441Y-119141400D02*
X133951258Y-119045629D01*
X133951258Y-119045629D02*
X133984939Y-118939149D01*
X133984939Y-118939149D02*
X133995021Y-118902760D01*
X137708441Y-121335800D02*
X137807230Y-121275151D01*
X137807230Y-121275151D02*
X137898692Y-121210636D01*
X137898692Y-121210636D02*
X137984854Y-121140383D01*
X137984854Y-121140383D02*
X138049001Y-121071780D01*
X134965241Y-122255556D02*
X134969290Y-122147872D01*
X134969290Y-122147872D02*
X134978277Y-122029620D01*
X134978277Y-122029620D02*
X134988747Y-121919815D01*
X134988747Y-121919815D02*
X135001193Y-121805460D01*
X135001193Y-121805460D02*
X135014928Y-121691887D01*
X135014928Y-121691887D02*
X135026381Y-121605174D01*
X134061201Y-120502940D02*
X133956709Y-120520629D01*
X133956709Y-120520629D02*
X133867319Y-120566355D01*
X133867319Y-120566355D02*
X133848512Y-120665772D01*
X133848512Y-120665772D02*
X133895125Y-120760511D01*
X133895125Y-120760511D02*
X133969601Y-120858560D01*
X137652601Y-120711160D02*
X137673001Y-120670380D01*
X136743221Y-121254600D02*
X136748241Y-121158000D01*
X137180061Y-120883960D02*
X137074786Y-120898624D01*
X137074786Y-120898624D02*
X136971800Y-120863178D01*
X136971800Y-120863178D02*
X136885601Y-120827800D01*
X137622201Y-121173380D02*
X137532248Y-121222416D01*
X137532248Y-121222416D02*
X137434446Y-121266977D01*
X137434446Y-121266977D02*
X137325708Y-121301577D01*
X137325708Y-121301577D02*
X137212436Y-121320212D01*
X137212436Y-121320212D02*
X137103528Y-121325674D01*
X137103528Y-121325674D02*
X137083801Y-121325780D01*
X138049001Y-121071780D02*
X138080876Y-120975091D01*
X138080876Y-120975091D02*
X138086788Y-120874798D01*
X138086788Y-120874798D02*
X138072068Y-120763123D01*
X138072068Y-120763123D02*
X138024787Y-120672630D01*
X138024787Y-120672630D02*
X138003201Y-120665380D01*
X136997241Y-121468152D02*
X137103540Y-121473034D01*
X137103540Y-121473034D02*
X137219621Y-121476485D01*
X137219621Y-121476485D02*
X137333445Y-121473950D01*
X137333445Y-121473950D02*
X137442407Y-121457318D01*
X137442407Y-121457318D02*
X137543785Y-121421480D01*
X137543785Y-121421480D02*
X137639705Y-121373596D01*
X137639705Y-121373596D02*
X137708441Y-121335800D01*
X136271001Y-121254600D02*
X136413021Y-121351180D01*
X136230220Y-122702396D02*
X136311420Y-122637639D01*
X136311420Y-122637639D02*
X136331800Y-122631208D01*
X136306420Y-121533994D02*
X136271001Y-121254600D01*
X136418060Y-122067394D02*
X136389890Y-121962189D01*
X136389890Y-121962189D02*
X136364893Y-121858599D01*
X136364893Y-121858599D02*
X136341439Y-121750288D01*
X136341439Y-121750288D02*
X136321732Y-121644512D01*
X136321732Y-121644512D02*
X136306420Y-121533994D01*
X136631601Y-120385980D02*
X136611221Y-120370620D01*
X135026381Y-121605174D02*
X135045676Y-121478324D01*
X135045676Y-121478324D02*
X135066873Y-121360748D01*
X135066873Y-121360748D02*
X135096745Y-121259104D01*
X135096745Y-121259104D02*
X135180154Y-121199721D01*
X135180154Y-121199721D02*
X135209200Y-121198780D01*
X137469801Y-120741580D02*
X137378408Y-120794972D01*
X137378408Y-120794972D02*
X137287001Y-120817780D01*
X133791841Y-120462200D02*
X133736001Y-120411400D01*
X133969601Y-120858560D02*
X134026974Y-120940521D01*
X134026974Y-120940521D02*
X134069341Y-121043726D01*
X134069341Y-121043726D02*
X134093428Y-121144552D01*
X134093428Y-121144552D02*
X134110513Y-121248603D01*
X134110513Y-121248603D02*
X134126756Y-121378591D01*
X134126756Y-121378591D02*
X134138996Y-121495961D01*
X134138996Y-121495961D02*
X134147421Y-121584788D01*
X138003201Y-120665380D02*
X137987841Y-120721200D01*
X134147421Y-121584788D02*
X134164412Y-121767722D01*
X134164412Y-121767722D02*
X134179438Y-121927159D01*
X134179438Y-121927159D02*
X134192915Y-122064840D01*
X134192915Y-122064840D02*
X134205261Y-122182505D01*
X134205261Y-122182505D02*
X134216892Y-122281896D01*
X134216892Y-122281896D02*
X134233909Y-122400525D01*
X134233909Y-122400525D02*
X134257984Y-122510985D01*
X134257984Y-122510985D02*
X134303838Y-122602724D01*
X134303838Y-122602724D02*
X134400659Y-122660118D01*
X134400659Y-122660118D02*
X134416801Y-122666972D01*
X137673001Y-120670380D02*
X137571401Y-120688812D01*
X137571401Y-120688812D02*
X137480665Y-120734005D01*
X137480665Y-120734005D02*
X137469801Y-120741580D01*
X134721601Y-122687358D02*
X134721601Y-122687358D01*
X134594601Y-122743164D02*
X134688030Y-122706089D01*
X134688030Y-122706089D02*
X134721601Y-122687358D01*
X134416801Y-122666972D02*
X134510413Y-122708845D01*
X134510413Y-122708845D02*
X134594601Y-122743164D01*
X136921021Y-120934760D02*
X137030000Y-120941989D01*
X137030000Y-120941989D02*
X137134870Y-120934865D01*
X137134870Y-120934865D02*
X137242548Y-120905431D01*
X137242548Y-120905431D02*
X137342801Y-120858560D01*
X134721601Y-122687358D02*
X134815263Y-122631086D01*
X134815263Y-122631086D02*
X134890939Y-122560907D01*
X134890939Y-122560907D02*
X134941297Y-122460338D01*
X134941297Y-122460338D02*
X134959497Y-122360583D01*
X134959497Y-122360583D02*
X134965241Y-122255556D01*
X135382001Y-120589180D02*
X135264557Y-120565007D01*
X135264557Y-120565007D02*
X135151939Y-120550713D01*
X135151939Y-120550713D02*
X135016761Y-120537157D01*
X135016761Y-120537157D02*
X134866433Y-120524817D01*
X134866433Y-120524817D02*
X134761456Y-120517500D01*
X134761456Y-120517500D02*
X134655233Y-120511075D01*
X134655233Y-120511075D02*
X134549960Y-120505684D01*
X134549960Y-120505684D02*
X134447832Y-120501467D01*
X134447832Y-120501467D02*
X134305340Y-120497653D01*
X134305340Y-120497653D02*
X134182271Y-120497276D01*
X134182271Y-120497276D02*
X134061201Y-120502940D01*
X135468221Y-120695800D02*
X135414642Y-120608758D01*
X135414642Y-120608758D02*
X135382001Y-120589180D01*
X135747600Y-120614580D02*
X135667090Y-120676193D01*
X135667090Y-120676193D02*
X135572761Y-120726583D01*
X135572761Y-120726583D02*
X135471605Y-120715583D01*
X135471605Y-120715583D02*
X135468221Y-120695800D01*
X136611221Y-120370620D02*
X136512141Y-120419333D01*
X136512141Y-120419333D02*
X136415025Y-120448407D01*
X136415025Y-120448407D02*
X136301340Y-120472212D01*
X136301340Y-120472212D02*
X136197026Y-120486021D01*
X136197026Y-120486021D02*
X136179421Y-120487580D01*
X136885601Y-120827800D02*
X136787483Y-120786456D01*
X136787483Y-120786456D02*
X136686136Y-120745991D01*
X136686136Y-120745991D02*
X136591000Y-120711135D01*
X136591000Y-120711135D02*
X136555421Y-120700800D01*
X137287001Y-120817780D02*
X137194189Y-120861513D01*
X137194189Y-120861513D02*
X137180061Y-120883960D01*
X136179421Y-120487580D02*
X136071184Y-120504378D01*
X136071184Y-120504378D02*
X135971732Y-120525531D01*
X135971732Y-120525531D02*
X135871372Y-120554370D01*
X135871372Y-120554370D02*
X135775493Y-120595579D01*
X135775493Y-120595579D02*
X135747600Y-120614580D01*
X136555421Y-120700800D02*
X136524356Y-120602375D01*
X136524356Y-120602375D02*
X136558303Y-120503372D01*
X136558303Y-120503372D02*
X136612396Y-120411216D01*
X136612396Y-120411216D02*
X136631601Y-120385980D01*
X137342801Y-120858560D02*
X137434690Y-120807813D01*
X137434690Y-120807813D02*
X137529864Y-120761906D01*
X137529864Y-120761906D02*
X137623026Y-120722277D01*
X137623026Y-120722277D02*
X137652601Y-120711160D01*
X135910061Y-122661958D02*
X135996594Y-122716070D01*
X135996594Y-122716070D02*
X136102593Y-122744962D01*
X136102593Y-122744962D02*
X136208089Y-122736208D01*
X136208089Y-122736208D02*
X136230220Y-122702396D01*
X135397021Y-121488204D02*
X135423114Y-121586494D01*
X135423114Y-121586494D02*
X135459923Y-121700925D01*
X135459923Y-121700925D02*
X135505313Y-121826749D01*
X135505313Y-121826749D02*
X135557152Y-121959223D01*
X135557152Y-121959223D02*
X135613307Y-122093601D01*
X135613307Y-122093601D02*
X135671644Y-122225136D01*
X135671644Y-122225136D02*
X135730030Y-122349084D01*
X135730030Y-122349084D02*
X135786332Y-122460700D01*
X135786332Y-122460700D02*
X135838417Y-122555237D01*
X135838417Y-122555237D02*
X135897617Y-122646518D01*
X135897617Y-122646518D02*
X135910061Y-122661958D01*
X137083801Y-121325780D02*
X136972688Y-121322186D01*
X136972688Y-121322186D02*
X136869291Y-121309553D01*
X136869291Y-121309553D02*
X136772242Y-121278168D01*
X136772242Y-121278168D02*
X136743221Y-121254600D01*
X136748241Y-121020980D02*
X136710424Y-120927395D01*
X136710424Y-120927395D02*
X136824016Y-120922923D01*
X136824016Y-120922923D02*
X136921021Y-120934760D01*
X136331800Y-122631208D02*
X136418226Y-122570323D01*
X136418226Y-122570323D02*
X136459464Y-122466615D01*
X136459464Y-122466615D02*
X136468272Y-122346357D01*
X136468272Y-122346357D02*
X136456294Y-122227710D01*
X136456294Y-122227710D02*
X136433741Y-122122739D01*
X136433741Y-122122739D02*
X136418060Y-122067394D01*
X135209200Y-121198780D02*
X135306422Y-121228597D01*
X135306422Y-121228597D02*
X135354673Y-121321684D01*
X135354673Y-121321684D02*
X135382037Y-121422377D01*
X135382037Y-121422377D02*
X135397021Y-121488204D01*
X136748241Y-121158000D02*
X136768669Y-121059292D01*
X136768669Y-121059292D02*
X136748241Y-121020980D01*
X136413021Y-121351180D02*
X136505014Y-121397325D01*
X136505014Y-121397325D02*
X136609850Y-121427057D01*
X136609850Y-121427057D02*
X136722585Y-121445920D01*
X136722585Y-121445920D02*
X136835558Y-121457748D01*
X136835558Y-121457748D02*
X136939970Y-121465086D01*
X136939970Y-121465086D02*
X136997241Y-121468152D01*
X137987841Y-120721200D02*
X137989888Y-120826676D01*
X137989888Y-120826676D02*
X137928846Y-120928240D01*
X137928846Y-120928240D02*
X137855828Y-121005771D01*
X137855828Y-121005771D02*
X137761089Y-121083765D01*
X137761089Y-121083765D02*
X137671315Y-121144303D01*
X137671315Y-121144303D02*
X137622201Y-121173380D01*
X136392641Y-116896160D02*
X136237139Y-116881074D01*
X136237139Y-116881074D02*
X136070727Y-116860878D01*
X136070727Y-116860878D02*
X135894997Y-116835937D01*
X135894997Y-116835937D02*
X135711542Y-116806615D01*
X135711542Y-116806615D02*
X135521953Y-116773276D01*
X135521953Y-116773276D02*
X135327823Y-116736286D01*
X135327823Y-116736286D02*
X135229553Y-116716535D01*
X135229553Y-116716535D02*
X135130744Y-116696009D01*
X135130744Y-116696009D02*
X135031596Y-116674752D01*
X135031596Y-116674752D02*
X134932308Y-116652810D01*
X134932308Y-116652810D02*
X134833079Y-116630228D01*
X134833079Y-116630228D02*
X134734107Y-116607053D01*
X134734107Y-116607053D02*
X134635592Y-116583329D01*
X134635592Y-116583329D02*
X134537733Y-116559103D01*
X134537733Y-116559103D02*
X134440729Y-116534420D01*
X134440729Y-116534420D02*
X134250081Y-116483865D01*
X134250081Y-116483865D02*
X134065240Y-116432029D01*
X134065240Y-116432029D02*
X133887800Y-116379277D01*
X133887800Y-116379277D02*
X133719351Y-116325972D01*
X133719351Y-116325972D02*
X133561486Y-116272481D01*
X133561486Y-116272481D02*
X133487021Y-116245780D01*
X136423381Y-118293140D02*
X136530226Y-118313084D01*
X136530226Y-118313084D02*
X136560421Y-118313200D01*
X136941421Y-112105580D02*
X136856487Y-112160894D01*
X136856487Y-112160894D02*
X136839841Y-112156400D01*
X136961801Y-112029400D02*
X136941421Y-112105580D01*
X134980600Y-120299760D02*
X135089292Y-120335074D01*
X135089292Y-120335074D02*
X135193072Y-120347041D01*
X135193072Y-120347041D02*
X135318456Y-120355181D01*
X135318456Y-120355181D02*
X135456928Y-120359468D01*
X135456928Y-120359468D02*
X135599976Y-120359878D01*
X135599976Y-120359878D02*
X135739083Y-120356385D01*
X135739083Y-120356385D02*
X135865736Y-120348964D01*
X135865736Y-120348964D02*
X135971421Y-120337590D01*
X135971421Y-120337590D02*
X136077841Y-120309780D01*
X136072801Y-117652800D02*
X136191317Y-117598831D01*
X136191317Y-117598831D02*
X136287532Y-117542862D01*
X136287532Y-117542862D02*
X136385979Y-117477131D01*
X136385979Y-117477131D02*
X136483016Y-117404803D01*
X136483016Y-117404803D02*
X136574998Y-117329045D01*
X136574998Y-117329045D02*
X136658283Y-117253021D01*
X136658283Y-117253021D02*
X136729227Y-117179899D01*
X136729227Y-117179899D02*
X136798325Y-117092388D01*
X136798325Y-117092388D02*
X136829801Y-116997760D01*
X133101021Y-117546200D02*
X133055221Y-117566580D01*
X132877421Y-116123800D02*
X132902642Y-116231091D01*
X132902642Y-116231091D02*
X132942485Y-116339172D01*
X132942485Y-116339172D02*
X132988033Y-116446316D01*
X132988033Y-116446316D02*
X133024801Y-116525200D01*
X137033001Y-111948160D02*
X136957049Y-112015766D01*
X136957049Y-112015766D02*
X136961801Y-112029400D01*
X136560421Y-118313200D02*
X136668131Y-118311474D01*
X136668131Y-118311474D02*
X136728201Y-118293140D01*
X137180061Y-111729580D02*
X137115422Y-111807563D01*
X137115422Y-111807563D02*
X137119221Y-111826160D01*
X134655421Y-120269000D02*
X134602126Y-120181157D01*
X134602126Y-120181157D02*
X134553841Y-120131980D01*
X138262221Y-110281780D02*
X138211421Y-110352980D01*
X138689001Y-111241980D02*
X138678393Y-111134006D01*
X138678393Y-111134006D02*
X138667196Y-111024966D01*
X138667196Y-111024966D02*
X138656226Y-110917602D01*
X138656226Y-110917602D02*
X138648241Y-110835580D01*
X134457221Y-118780760D02*
X134299841Y-118922800D01*
X138734801Y-111597580D02*
X138716623Y-111490310D01*
X138716623Y-111490310D02*
X138701643Y-111382139D01*
X138701643Y-111382139D02*
X138690925Y-111274616D01*
X138690925Y-111274616D02*
X138689001Y-111241980D01*
X138927641Y-113299400D02*
X138880016Y-113200577D01*
X138880016Y-113200577D02*
X138868109Y-113094917D01*
X138868109Y-113094917D02*
X138858584Y-112987225D01*
X138858584Y-112987225D02*
X138851441Y-112892980D01*
X133024801Y-116525200D02*
X133070700Y-116614934D01*
X133070700Y-116614934D02*
X133122490Y-116702157D01*
X133122490Y-116702157D02*
X133179898Y-116786769D01*
X133179898Y-116786769D02*
X133242656Y-116868668D01*
X133242656Y-116868668D02*
X133310492Y-116947755D01*
X133310492Y-116947755D02*
X133383135Y-117023930D01*
X133383135Y-117023930D02*
X133460315Y-117097090D01*
X133460315Y-117097090D02*
X133541761Y-117167137D01*
X133541761Y-117167137D02*
X133627204Y-117233969D01*
X133627204Y-117233969D02*
X133716371Y-117297487D01*
X133716371Y-117297487D02*
X133808993Y-117357589D01*
X133808993Y-117357589D02*
X133904798Y-117414175D01*
X133904798Y-117414175D02*
X134003517Y-117467144D01*
X134003517Y-117467144D02*
X134104879Y-117516397D01*
X134104879Y-117516397D02*
X134208613Y-117561832D01*
X134208613Y-117561832D02*
X134314448Y-117603350D01*
X134314448Y-117603350D02*
X134422114Y-117640849D01*
X134422114Y-117640849D02*
X134531341Y-117674229D01*
X134531341Y-117674229D02*
X134641857Y-117703390D01*
X134641857Y-117703390D02*
X134753392Y-117728231D01*
X134753392Y-117728231D02*
X134865675Y-117748652D01*
X134865675Y-117748652D02*
X134978437Y-117764551D01*
X134978437Y-117764551D02*
X135091405Y-117775830D01*
X135091405Y-117775830D02*
X135204311Y-117782387D01*
X135204311Y-117782387D02*
X135316882Y-117784122D01*
X135316882Y-117784122D02*
X135428849Y-117780933D01*
X135428849Y-117780933D02*
X135539941Y-117772722D01*
X135539941Y-117772722D02*
X135649887Y-117759387D01*
X135649887Y-117759387D02*
X135758416Y-117740828D01*
X135758416Y-117740828D02*
X135865259Y-117716944D01*
X135865259Y-117716944D02*
X135970144Y-117687634D01*
X135970144Y-117687634D02*
X136072801Y-117652800D01*
X134655421Y-120269000D02*
X134655421Y-120269000D01*
X134081241Y-119065160D02*
X134008076Y-119142626D01*
X134008076Y-119142626D02*
X134020346Y-119253021D01*
X134020346Y-119253021D02*
X134059238Y-119348012D01*
X134059238Y-119348012D02*
X134122021Y-119441160D01*
X134299841Y-118922800D02*
X134214746Y-118989583D01*
X134214746Y-118989583D02*
X134127122Y-119047489D01*
X134127122Y-119047489D02*
X134081241Y-119065160D01*
X135742601Y-119019400D02*
X135675300Y-118941524D01*
X135675300Y-118941524D02*
X135600323Y-118861761D01*
X135600323Y-118861761D02*
X135509575Y-118792243D01*
X135509575Y-118792243D02*
X135403519Y-118789354D01*
X135403519Y-118789354D02*
X135313848Y-118851401D01*
X135313848Y-118851401D02*
X135240101Y-118921999D01*
X135240101Y-118921999D02*
X135219221Y-118943200D01*
X136829801Y-116997760D02*
X136734228Y-116945627D01*
X136734228Y-116945627D02*
X136630377Y-116924553D01*
X136630377Y-116924553D02*
X136511937Y-116908473D01*
X136511937Y-116908473D02*
X136392641Y-116896160D01*
X134503021Y-119400400D02*
X134503021Y-119400400D01*
X137241201Y-111673780D02*
X137180061Y-111729580D01*
X138211421Y-110352980D02*
X138136369Y-110421509D01*
X138136369Y-110421509D02*
X138114841Y-110464620D01*
X137378241Y-111490980D02*
X137308575Y-111570502D01*
X137308575Y-111570502D02*
X137245586Y-111651842D01*
X137245586Y-111651842D02*
X137241201Y-111673780D01*
X138114841Y-110464620D02*
X138064851Y-110559014D01*
X138064851Y-110559014D02*
X138000018Y-110659616D01*
X138000018Y-110659616D02*
X137941628Y-110743492D01*
X137941628Y-110743492D02*
X137878245Y-110830153D01*
X137878245Y-110830153D02*
X137812907Y-110915608D01*
X137812907Y-110915608D02*
X137748652Y-110995863D01*
X137748652Y-110995863D02*
X137669916Y-111087883D01*
X137669916Y-111087883D02*
X137592771Y-111165515D01*
X137592771Y-111165515D02*
X137571421Y-111181140D01*
X138963381Y-113883580D02*
X138938938Y-113781275D01*
X138938938Y-113781275D02*
X138940624Y-113670643D01*
X138940624Y-113670643D02*
X138943001Y-113604160D01*
X137525601Y-111267400D02*
X137483268Y-111366038D01*
X137483268Y-111366038D02*
X137412939Y-111453237D01*
X137412939Y-111453237D02*
X137378241Y-111490980D01*
X133487021Y-116245780D02*
X133375530Y-116204739D01*
X133375530Y-116204739D02*
X133278512Y-116169090D01*
X133278512Y-116169090D02*
X133157927Y-116125288D01*
X133157927Y-116125288D02*
X133038427Y-116083884D01*
X133038427Y-116083884D02*
X132931313Y-116054945D01*
X132931313Y-116054945D02*
X132877421Y-116123800D01*
X138851441Y-112892980D02*
X138842148Y-112750515D01*
X138842148Y-112750515D02*
X138833296Y-112618129D01*
X138833296Y-112618129D02*
X138824848Y-112495419D01*
X138824848Y-112495419D02*
X138816765Y-112381983D01*
X138816765Y-112381983D02*
X138809012Y-112277417D01*
X138809012Y-112277417D02*
X138797917Y-112136322D01*
X138797917Y-112136322D02*
X138787353Y-112012922D01*
X138787353Y-112012922D02*
X138777195Y-111905860D01*
X138777195Y-111905860D02*
X138764064Y-111786177D01*
X138764064Y-111786177D02*
X138747898Y-111669117D01*
X138747898Y-111669117D02*
X138734801Y-111597580D01*
X138968421Y-116575980D02*
X138983441Y-115153580D01*
X135737601Y-119405400D02*
X135737601Y-119405400D01*
X134553841Y-118887400D02*
X134457221Y-118780760D01*
X136077841Y-120309780D02*
X136077841Y-120309780D01*
X134503021Y-119400400D02*
X134578534Y-119326097D01*
X134578534Y-119326097D02*
X134644485Y-119245815D01*
X134644485Y-119245815D02*
X134684573Y-119145887D01*
X134684573Y-119145887D02*
X134664888Y-119045198D01*
X134664888Y-119045198D02*
X134601426Y-118945465D01*
X134601426Y-118945465D02*
X134553841Y-118887400D01*
X134426841Y-119949160D02*
X134363670Y-119866046D01*
X134363670Y-119866046D02*
X134259650Y-119872312D01*
X134259650Y-119872312D02*
X134156754Y-119921224D01*
X134156754Y-119921224D02*
X134070297Y-119974413D01*
X134070297Y-119974413D02*
X133995021Y-120025361D01*
X134553841Y-120131980D02*
X134483957Y-120052946D01*
X134483957Y-120052946D02*
X134432194Y-119964204D01*
X134432194Y-119964204D02*
X134426841Y-119949160D01*
X133182221Y-117597000D02*
X133182221Y-117597000D01*
X133858001Y-120248940D02*
X133954371Y-120276007D01*
X133954371Y-120276007D02*
X134069288Y-120291937D01*
X134069288Y-120291937D02*
X134202602Y-120302450D01*
X134202602Y-120302450D02*
X134306211Y-120306595D01*
X134306211Y-120306595D02*
X134406338Y-120307391D01*
X134406338Y-120307391D02*
X134524184Y-120303020D01*
X134524184Y-120303020D02*
X134626570Y-120288398D01*
X134626570Y-120288398D02*
X134655421Y-120269000D01*
X137119221Y-111826160D02*
X137069651Y-111919725D01*
X137069651Y-111919725D02*
X137033001Y-111948160D01*
X138648241Y-110835580D02*
X138633345Y-110710249D01*
X138633345Y-110710249D02*
X138619192Y-110584435D01*
X138619192Y-110584435D02*
X138606089Y-110461947D01*
X138606089Y-110461947D02*
X138594341Y-110346597D01*
X138594341Y-110346597D02*
X138584253Y-110242196D01*
X138584253Y-110242196D02*
X138574447Y-110132898D01*
X138574447Y-110132898D02*
X138567021Y-110032800D01*
X137571421Y-111181140D02*
X137525601Y-111267400D01*
X138943001Y-113604160D02*
X138946596Y-113500140D01*
X138946596Y-113500140D02*
X138947995Y-113398351D01*
X138947995Y-113398351D02*
X138943220Y-113295548D01*
X138943220Y-113295548D02*
X138927641Y-113299400D01*
X135737601Y-119405400D02*
X135814150Y-119326876D01*
X135814150Y-119326876D02*
X135863190Y-119237160D01*
X135863190Y-119237160D02*
X135825820Y-119129898D01*
X135825820Y-119129898D02*
X135757351Y-119037922D01*
X135757351Y-119037922D02*
X135742601Y-119019400D01*
X134274421Y-119598580D02*
X134356512Y-119532519D01*
X134356512Y-119532519D02*
X134439351Y-119458273D01*
X134439351Y-119458273D02*
X134503021Y-119400400D01*
X138343441Y-110180200D02*
X138268471Y-110251018D01*
X138268471Y-110251018D02*
X138262221Y-110281780D01*
X138389221Y-110104000D02*
X138343441Y-110180200D01*
X138465421Y-109997400D02*
X138390226Y-110068428D01*
X138390226Y-110068428D02*
X138389221Y-110104000D01*
X138567021Y-110032800D02*
X138473298Y-109993254D01*
X138473298Y-109993254D02*
X138465421Y-109997400D01*
X138744801Y-117007780D02*
X138968421Y-116575980D01*
X133055221Y-117566580D02*
X133145313Y-117618478D01*
X133145313Y-117618478D02*
X133182221Y-117597000D01*
X136728201Y-118293140D02*
X136622330Y-118285855D01*
X136622330Y-118285855D02*
X136519169Y-118286462D01*
X136519169Y-118286462D02*
X136423381Y-118293140D01*
X136728201Y-118293140D02*
X136728201Y-118293140D01*
X135011021Y-119192160D02*
X135070763Y-119273510D01*
X135070763Y-119273510D02*
X135144596Y-119349934D01*
X135144596Y-119349934D02*
X135214221Y-119415760D01*
X133995021Y-120025361D02*
X133901467Y-120091093D01*
X133901467Y-120091093D02*
X133820813Y-120154089D01*
X133820813Y-120154089D02*
X133858001Y-120248940D01*
X135351240Y-119923760D02*
X135256610Y-119990102D01*
X135256610Y-119990102D02*
X135174809Y-120051742D01*
X135174809Y-120051742D02*
X135091337Y-120121550D01*
X135091337Y-120121550D02*
X135019968Y-120193639D01*
X135019968Y-120193639D02*
X134975917Y-120288294D01*
X134975917Y-120288294D02*
X134980600Y-120299760D01*
X134122021Y-119441160D02*
X134189110Y-119515885D01*
X134189110Y-119515885D02*
X134260258Y-119588949D01*
X134260258Y-119588949D02*
X134274421Y-119598580D01*
X133182221Y-117597000D02*
X133101021Y-117546200D01*
X136072801Y-117652800D02*
X136072801Y-117652800D01*
X135219221Y-118943200D02*
X135146980Y-119015717D01*
X135146980Y-119015717D02*
X135078583Y-119091564D01*
X135078583Y-119091564D02*
X135017474Y-119174273D01*
X135017474Y-119174273D02*
X135011021Y-119192160D01*
X135214221Y-119415760D02*
X135291525Y-119480767D01*
X135291525Y-119480767D02*
X135388638Y-119543177D01*
X135388638Y-119543177D02*
X135487980Y-119562261D01*
X135487980Y-119562261D02*
X135590823Y-119522865D01*
X135590823Y-119522865D02*
X135677202Y-119458561D01*
X135677202Y-119458561D02*
X135737601Y-119405400D01*
X138983441Y-115153580D02*
X138985143Y-115009492D01*
X138985143Y-115009492D02*
X138986376Y-114871049D01*
X138986376Y-114871049D02*
X138987155Y-114738890D01*
X138987155Y-114738890D02*
X138987498Y-114613654D01*
X138987498Y-114613654D02*
X138987419Y-114495980D01*
X138987419Y-114495980D02*
X138986935Y-114386509D01*
X138986935Y-114386509D02*
X138986063Y-114285879D01*
X138986063Y-114285879D02*
X138984061Y-114152910D01*
X138984061Y-114152910D02*
X138981275Y-114043431D01*
X138981275Y-114043431D02*
X138976435Y-113937730D01*
X138976435Y-113937730D02*
X138963381Y-113883580D01*
X136738220Y-114244200D02*
X136865705Y-114215178D01*
X136865705Y-114215178D02*
X136988261Y-114205250D01*
X136988261Y-114205250D02*
X137106034Y-114214487D01*
X137106034Y-114214487D02*
X137219171Y-114242966D01*
X137219171Y-114242966D02*
X137327821Y-114290759D01*
X137327821Y-114290759D02*
X137432130Y-114357940D01*
X137432130Y-114357940D02*
X137532245Y-114444585D01*
X137532245Y-114444585D02*
X137628315Y-114550768D01*
X137628315Y-114550768D02*
X137690186Y-114632446D01*
X137690186Y-114632446D02*
X137750369Y-114722863D01*
X137750369Y-114722863D02*
X137808905Y-114822040D01*
X137808905Y-114822040D02*
X137865841Y-114930000D01*
X137683021Y-111790760D02*
X137757195Y-111693573D01*
X137757195Y-111693573D02*
X137823754Y-111607538D01*
X137823754Y-111607538D02*
X137910391Y-111498514D01*
X137910391Y-111498514D02*
X137982664Y-111412316D01*
X137982664Y-111412316D02*
X138059558Y-111330548D01*
X138059558Y-111330548D02*
X138141179Y-111272414D01*
X138141179Y-111272414D02*
X138226028Y-111334000D01*
X138226028Y-111334000D02*
X138231801Y-111348580D01*
X133451601Y-113817400D02*
X133397700Y-113901706D01*
X133397700Y-113901706D02*
X133342706Y-114003419D01*
X133342706Y-114003419D02*
X133287923Y-114118798D01*
X133287923Y-114118798D02*
X133234653Y-114244102D01*
X133234653Y-114244102D02*
X133184201Y-114375592D01*
X133184201Y-114375592D02*
X133137870Y-114509526D01*
X133137870Y-114509526D02*
X133096963Y-114642165D01*
X133096963Y-114642165D02*
X133062784Y-114769768D01*
X133062784Y-114769768D02*
X133036635Y-114888595D01*
X133036635Y-114888595D02*
X133019821Y-114994906D01*
X133019821Y-114994906D02*
X133014441Y-115056980D01*
X136555421Y-116113780D02*
X136462338Y-116059325D01*
X136462338Y-116059325D02*
X136367576Y-115986690D01*
X136367576Y-115986690D02*
X136273468Y-115899143D01*
X136273468Y-115899143D02*
X136182352Y-115799951D01*
X136182352Y-115799951D02*
X136096563Y-115692384D01*
X136096563Y-115692384D02*
X136018439Y-115579710D01*
X136018439Y-115579710D02*
X135950315Y-115465196D01*
X135950315Y-115465196D02*
X135894527Y-115352112D01*
X135894527Y-115352112D02*
X135853413Y-115243726D01*
X135853413Y-115243726D02*
X135829307Y-115143306D01*
X135829307Y-115143306D02*
X135823840Y-115082400D01*
X134579221Y-118303160D02*
X134511004Y-118376950D01*
X134511004Y-118376950D02*
X134477601Y-118353980D01*
X135341220Y-111567160D02*
X135363281Y-111676929D01*
X135363281Y-111676929D02*
X135386003Y-111780025D01*
X135386003Y-111780025D02*
X135412998Y-111889677D01*
X135412998Y-111889677D02*
X135442343Y-111990062D01*
X135442343Y-111990062D02*
X135473240Y-112059780D01*
X134371001Y-114721780D02*
X134172841Y-114930000D01*
X138231801Y-111348580D02*
X138257097Y-111455997D01*
X138257097Y-111455997D02*
X138277196Y-111567225D01*
X138277196Y-111567225D02*
X138299784Y-111704912D01*
X138299784Y-111704912D02*
X138315741Y-111807917D01*
X138315741Y-111807917D02*
X138332075Y-111917455D01*
X138332075Y-111917455D02*
X138348496Y-112031433D01*
X138348496Y-112031433D02*
X138364713Y-112147762D01*
X138364713Y-112147762D02*
X138380434Y-112264350D01*
X138380434Y-112264350D02*
X138395368Y-112379106D01*
X138395368Y-112379106D02*
X138409224Y-112489940D01*
X138409224Y-112489940D02*
X138421710Y-112594760D01*
X138421710Y-112594760D02*
X138437233Y-112736141D01*
X138437233Y-112736141D02*
X138445021Y-112816780D01*
X137027641Y-116139160D02*
X137101111Y-116043424D01*
X137101111Y-116043424D02*
X137152533Y-115955678D01*
X137152533Y-115955678D02*
X137197545Y-115857619D01*
X137197545Y-115857619D02*
X137236265Y-115748882D01*
X137236265Y-115748882D02*
X137268811Y-115629103D01*
X137268811Y-115629103D02*
X137295301Y-115497917D01*
X137295301Y-115497917D02*
X137311265Y-115391823D01*
X137311265Y-115391823D02*
X137323939Y-115278955D01*
X137323939Y-115278955D02*
X137327441Y-115239800D01*
X136916021Y-116261141D02*
X137027641Y-116139160D01*
X134472601Y-112410400D02*
X134368119Y-112445267D01*
X134368119Y-112445267D02*
X134236195Y-112489266D01*
X134236195Y-112489266D02*
X134131282Y-112523860D01*
X134131282Y-112523860D02*
X134028072Y-112556442D01*
X134028072Y-112556442D02*
X133927737Y-112580393D01*
X133927737Y-112580393D02*
X133893421Y-112537400D01*
X133781801Y-115234780D02*
X133689657Y-115276308D01*
X133689657Y-115276308D02*
X133585847Y-115312349D01*
X133585847Y-115312349D02*
X133477754Y-115341713D01*
X133477754Y-115341713D02*
X133372761Y-115363212D01*
X133372761Y-115363212D02*
X133257122Y-115377212D01*
X133257122Y-115377212D02*
X133150195Y-115368619D01*
X133150195Y-115368619D02*
X133131421Y-115346760D01*
X133116061Y-113817400D02*
X133204154Y-113728483D01*
X133204154Y-113728483D02*
X133285988Y-113652900D01*
X133285988Y-113652900D02*
X133386578Y-113572298D01*
X133386578Y-113572298D02*
X133478953Y-113514041D01*
X133478953Y-113514041D02*
X133585405Y-113471460D01*
X133585405Y-113471460D02*
X133684872Y-113461061D01*
X133684872Y-113461061D02*
X133799587Y-113488930D01*
X133799587Y-113488930D02*
X133837601Y-113507580D01*
X137865841Y-114930000D02*
X137914927Y-115028081D01*
X137914927Y-115028081D02*
X137960838Y-115124577D01*
X137960838Y-115124577D02*
X138009481Y-115232872D01*
X138009481Y-115232872D02*
X138048462Y-115326715D01*
X138048462Y-115326715D02*
X138082746Y-115425865D01*
X138082746Y-115425865D02*
X138084421Y-115432980D01*
X134477601Y-118353980D02*
X134507799Y-118253382D01*
X134507799Y-118253382D02*
X134523421Y-118176160D01*
X138084421Y-115432980D02*
X138082864Y-115550024D01*
X138082864Y-115550024D02*
X138033602Y-115675628D01*
X138033602Y-115675628D02*
X137969903Y-115771439D01*
X137969903Y-115771439D02*
X137886818Y-115865504D01*
X137886818Y-115865504D02*
X137787541Y-115955010D01*
X137787541Y-115955010D02*
X137675264Y-116037148D01*
X137675264Y-116037148D02*
X137553179Y-116109103D01*
X137553179Y-116109103D02*
X137424478Y-116168064D01*
X137424478Y-116168064D02*
X137292355Y-116211221D01*
X137292355Y-116211221D02*
X137160001Y-116235760D01*
X134523421Y-118176160D02*
X134574221Y-118110000D01*
X138511221Y-113390940D02*
X138526056Y-113492127D01*
X138526056Y-113492127D02*
X138540893Y-113593469D01*
X138540893Y-113593469D02*
X138546641Y-113654980D01*
X138445021Y-112816780D02*
X138452799Y-112919440D01*
X138452799Y-112919440D02*
X138463817Y-113033319D01*
X138463817Y-113033319D02*
X138477084Y-113150395D01*
X138477084Y-113150395D02*
X138491610Y-113262645D01*
X138491610Y-113262645D02*
X138506402Y-113362047D01*
X138506402Y-113362047D02*
X138511221Y-113390940D01*
X136712840Y-115514200D02*
X136713814Y-115640976D01*
X136713814Y-115640976D02*
X136716815Y-115751333D01*
X136716815Y-115751333D02*
X136723596Y-115867280D01*
X136723596Y-115867280D02*
X136736483Y-115975997D01*
X136736483Y-115975997D02*
X136762379Y-116073299D01*
X136762379Y-116073299D02*
X136784001Y-116108760D01*
X133131421Y-115346760D02*
X133131421Y-115346760D01*
X135473240Y-112059780D02*
X135445309Y-112163793D01*
X135445309Y-112163793D02*
X135345464Y-112208860D01*
X135345464Y-112208860D02*
X135242204Y-112228486D01*
X135242204Y-112228486D02*
X135163421Y-112232580D01*
X132948601Y-115280580D02*
X132867593Y-115209553D01*
X132867593Y-115209553D02*
X132817730Y-115121766D01*
X132817730Y-115121766D02*
X132770142Y-115012113D01*
X132770142Y-115012113D02*
X132736757Y-114915358D01*
X132736757Y-114915358D02*
X132710051Y-114816117D01*
X132710051Y-114816117D02*
X132689601Y-114696360D01*
X135061841Y-110556200D02*
X135118321Y-110661854D01*
X135118321Y-110661854D02*
X135152490Y-110767318D01*
X135152490Y-110767318D02*
X135180583Y-110865412D01*
X135180583Y-110865412D02*
X135210148Y-110977306D01*
X135210148Y-110977306D02*
X135240610Y-111100766D01*
X135240610Y-111100766D02*
X135271391Y-111233560D01*
X135271391Y-111233560D02*
X135301916Y-111373453D01*
X135301916Y-111373453D02*
X135331607Y-111518211D01*
X135331607Y-111518211D02*
X135341220Y-111567160D01*
X138059021Y-113223160D02*
X138059021Y-113223160D01*
X137271601Y-112364580D02*
X137346930Y-112295786D01*
X137346930Y-112295786D02*
X137347841Y-112288400D01*
X134477601Y-118353980D02*
X134477601Y-118353980D01*
X132689601Y-114696360D02*
X132684938Y-114591749D01*
X132684938Y-114591749D02*
X132694714Y-114489809D01*
X132694714Y-114489809D02*
X132719991Y-114388454D01*
X132719991Y-114388454D02*
X132761831Y-114285597D01*
X132761831Y-114285597D02*
X132821295Y-114179150D01*
X132821295Y-114179150D02*
X132878099Y-114095703D01*
X132878099Y-114095703D02*
X132945862Y-114008183D01*
X132945862Y-114008183D02*
X133025033Y-113915709D01*
X133025033Y-113915709D02*
X133116061Y-113817400D01*
X133131421Y-115346760D02*
X133178874Y-115258491D01*
X133178874Y-115258491D02*
X133217641Y-115224780D01*
X137327441Y-115239800D02*
X137335842Y-115100959D01*
X137335842Y-115100959D02*
X137338174Y-114973362D01*
X137338174Y-114973362D02*
X137334539Y-114857535D01*
X137334539Y-114857535D02*
X137325037Y-114754006D01*
X137325037Y-114754006D02*
X137303416Y-114636007D01*
X137303416Y-114636007D02*
X137262340Y-114522472D01*
X137262340Y-114522472D02*
X137193061Y-114439263D01*
X137193061Y-114439263D02*
X137119221Y-114416980D01*
X133014441Y-115056980D02*
X133003081Y-115165125D01*
X133003081Y-115165125D02*
X132971018Y-115263504D01*
X132971018Y-115263504D02*
X132948601Y-115280580D01*
X135823840Y-115082400D02*
X135865949Y-114973412D01*
X135865949Y-114973412D02*
X135926012Y-114888585D01*
X135926012Y-114888585D02*
X136006368Y-114794521D01*
X136006368Y-114794521D02*
X136102271Y-114695585D01*
X136102271Y-114695585D02*
X136208970Y-114596143D01*
X136208970Y-114596143D02*
X136321717Y-114500564D01*
X136321717Y-114500564D02*
X136435765Y-114413213D01*
X136435765Y-114413213D02*
X136546363Y-114338458D01*
X136546363Y-114338458D02*
X136648764Y-114280664D01*
X136648764Y-114280664D02*
X136738220Y-114244200D01*
X138546641Y-113654980D02*
X138459777Y-113581272D01*
X138459777Y-113581272D02*
X138383045Y-113513566D01*
X138383045Y-113513566D02*
X138288109Y-113429058D01*
X138288109Y-113429058D02*
X138201640Y-113351626D01*
X138201640Y-113351626D02*
X138107954Y-113267336D01*
X138107954Y-113267336D02*
X138059021Y-113223160D01*
X134807841Y-118577560D02*
X134807841Y-118577560D01*
X133837601Y-113507580D02*
X133917769Y-113572937D01*
X133917769Y-113572937D02*
X133985599Y-113656746D01*
X133985599Y-113656746D02*
X134054004Y-113763228D01*
X134054004Y-113763228D02*
X134104178Y-113855000D01*
X134104178Y-113855000D02*
X134152210Y-113954667D01*
X134152210Y-113954667D02*
X134197045Y-114060147D01*
X134197045Y-114060147D02*
X134237626Y-114169359D01*
X134237626Y-114169359D02*
X134272897Y-114280219D01*
X134272897Y-114280219D02*
X134301803Y-114390647D01*
X134301803Y-114390647D02*
X134309841Y-114427000D01*
X135163421Y-112232580D02*
X135060514Y-112246777D01*
X135060514Y-112246777D02*
X134941742Y-112273698D01*
X134941742Y-112273698D02*
X134823173Y-112304689D01*
X134823173Y-112304689D02*
X134719442Y-112333999D01*
X134719442Y-112333999D02*
X134610863Y-112366489D01*
X134610863Y-112366489D02*
X134500245Y-112401389D01*
X134500245Y-112401389D02*
X134472601Y-112410400D01*
X134848580Y-110886400D02*
X134899262Y-110796122D01*
X134899262Y-110796122D02*
X134952324Y-110703996D01*
X134952324Y-110703996D02*
X134970240Y-110673160D01*
X134309841Y-114427000D02*
X134371001Y-114721780D01*
X133690221Y-114117200D02*
X133709967Y-114009086D01*
X133709967Y-114009086D02*
X133726146Y-113903825D01*
X133726146Y-113903825D02*
X133733336Y-113801030D01*
X133733336Y-113801030D02*
X133705387Y-113700130D01*
X133705387Y-113700130D02*
X133685221Y-113675360D01*
X137388601Y-112705140D02*
X137289282Y-112644954D01*
X137289282Y-112644954D02*
X137214250Y-112560836D01*
X137214250Y-112560836D02*
X137188620Y-112463510D01*
X137188620Y-112463510D02*
X137245570Y-112377480D01*
X137245570Y-112377480D02*
X137271601Y-112364580D01*
X134172841Y-114930000D02*
X134091572Y-115005950D01*
X134091572Y-115005950D02*
X134013573Y-115071724D01*
X134013573Y-115071724D02*
X133933817Y-115133680D01*
X133933817Y-115133680D02*
X133846056Y-115195525D01*
X133846056Y-115195525D02*
X133781801Y-115234780D01*
X137119221Y-114416980D02*
X137017033Y-114453148D01*
X137017033Y-114453148D02*
X136950299Y-114537494D01*
X136950299Y-114537494D02*
X136899435Y-114630480D01*
X136899435Y-114630480D02*
X136860221Y-114711760D01*
X133685221Y-113675360D02*
X133586913Y-113653326D01*
X133586913Y-113653326D02*
X133517932Y-113727013D01*
X133517932Y-113727013D02*
X133451601Y-113817400D01*
X136784001Y-116108760D02*
X136700399Y-116173675D01*
X136700399Y-116173675D02*
X136596659Y-116132520D01*
X136596659Y-116132520D02*
X136555421Y-116113780D01*
X137160001Y-116235760D02*
X136916021Y-116261141D01*
X136860221Y-114711760D02*
X136808472Y-114822592D01*
X136808472Y-114822592D02*
X136770761Y-114920557D01*
X136770761Y-114920557D02*
X136744769Y-115018101D01*
X136744769Y-115018101D02*
X136728178Y-115127672D01*
X136728178Y-115127672D02*
X136720115Y-115232353D01*
X136720115Y-115232353D02*
X136715398Y-115359071D01*
X136715398Y-115359071D02*
X136713342Y-115472406D01*
X136713342Y-115472406D02*
X136712840Y-115514200D01*
X134574221Y-118110000D02*
X134667297Y-118149829D01*
X134667297Y-118149829D02*
X134629431Y-118248337D01*
X134629431Y-118248337D02*
X134579221Y-118303160D01*
X133893421Y-112537400D02*
X133893421Y-112537400D01*
X133893421Y-112537400D02*
X133923661Y-112431258D01*
X133923661Y-112431258D02*
X133978849Y-112313390D01*
X133978849Y-112313390D02*
X134039604Y-112198691D01*
X134039604Y-112198691D02*
X134089649Y-112109185D01*
X134089649Y-112109185D02*
X134147527Y-112008926D01*
X134147527Y-112008926D02*
X134213409Y-111897638D01*
X134213409Y-111897638D02*
X134287467Y-111775045D01*
X134287467Y-111775045D02*
X134369872Y-111640872D01*
X134369872Y-111640872D02*
X134460796Y-111494843D01*
X134460796Y-111494843D02*
X134560408Y-111336683D01*
X134560408Y-111336683D02*
X134668881Y-111166116D01*
X134668881Y-111166116D02*
X134726494Y-111076094D01*
X134726494Y-111076094D02*
X134786386Y-110982866D01*
X134786386Y-110982866D02*
X134848580Y-110886400D01*
X133217641Y-115224780D02*
X133291452Y-115135250D01*
X133291452Y-115135250D02*
X133357823Y-115023886D01*
X133357823Y-115023886D02*
X133409645Y-114922498D01*
X133409645Y-114922498D02*
X133461631Y-114809593D01*
X133461631Y-114809593D02*
X133512348Y-114688588D01*
X133512348Y-114688588D02*
X133560366Y-114562900D01*
X133560366Y-114562900D02*
X133604255Y-114435946D01*
X133604255Y-114435946D02*
X133642583Y-114311144D01*
X133642583Y-114311144D02*
X133673920Y-114191909D01*
X133673920Y-114191909D02*
X133690221Y-114117200D01*
X138059021Y-113223160D02*
X137983891Y-113156455D01*
X137983891Y-113156455D02*
X137907817Y-113091106D01*
X137907817Y-113091106D02*
X137807000Y-113007518D01*
X137807000Y-113007518D02*
X137709509Y-112929783D01*
X137709509Y-112929783D02*
X137618201Y-112859867D01*
X137618201Y-112859867D02*
X137535936Y-112799738D01*
X137535936Y-112799738D02*
X137450178Y-112741336D01*
X137450178Y-112741336D02*
X137388601Y-112705140D01*
X134970240Y-110673160D02*
X135023004Y-110586029D01*
X135023004Y-110586029D02*
X135061841Y-110556200D01*
X137347841Y-112288400D02*
X137396904Y-112198970D01*
X137396904Y-112198970D02*
X137458572Y-112106062D01*
X137458572Y-112106062D02*
X137524280Y-112011235D01*
X137524280Y-112011235D02*
X137584208Y-111926835D01*
X137584208Y-111926835D02*
X137649132Y-111837044D01*
X137649132Y-111837044D02*
X137683021Y-111790760D01*
X134884021Y-121869204D02*
X134931539Y-121965580D01*
X134931539Y-121965580D02*
X134923845Y-122070997D01*
X134923845Y-122070997D02*
X134919441Y-122123210D01*
X134807841Y-118577560D02*
X134834737Y-118474801D01*
X134834737Y-118474801D02*
X134890859Y-118388605D01*
X134890859Y-118388605D02*
X134978866Y-118329005D01*
X134978866Y-118329005D02*
X134985641Y-118328580D01*
X137576421Y-120289400D02*
X137492916Y-120344990D01*
X137492916Y-120344990D02*
X137388529Y-120338365D01*
X137388529Y-120338365D02*
X137297021Y-120304760D01*
X134401421Y-121727168D02*
X134471436Y-121653782D01*
X134471436Y-121653782D02*
X134557218Y-121711063D01*
X134557218Y-121711063D02*
X134640061Y-121787988D01*
X139059641Y-114610160D02*
X139039629Y-114710098D01*
X139039629Y-114710098D02*
X139039601Y-114721780D01*
X136194801Y-122484158D02*
X136090281Y-122442262D01*
X136090281Y-122442262D02*
X136001745Y-122368647D01*
X136001745Y-122368647D02*
X135934841Y-122291367D01*
X135934841Y-122291367D02*
X135875172Y-122203093D01*
X135875172Y-122203093D02*
X135826197Y-122108762D01*
X135826197Y-122108762D02*
X135791376Y-122013314D01*
X135791376Y-122013314D02*
X135773021Y-121899958D01*
X135773021Y-121899958D02*
X135784439Y-121795559D01*
X135784439Y-121795559D02*
X135853502Y-121719071D01*
X135853502Y-121719071D02*
X135963275Y-121732229D01*
X135963275Y-121732229D02*
X136047421Y-121767600D01*
X137515601Y-119898360D02*
X137565726Y-120001408D01*
X137565726Y-120001408D02*
X137609376Y-120097563D01*
X137609376Y-120097563D02*
X137638573Y-120194544D01*
X137638573Y-120194544D02*
X137584736Y-120283364D01*
X137584736Y-120283364D02*
X137576421Y-120289400D01*
X137190421Y-119512360D02*
X137286814Y-119563268D01*
X137286814Y-119563268D02*
X137362304Y-119638534D01*
X137362304Y-119638534D02*
X137419207Y-119720971D01*
X137419207Y-119720971D02*
X137470374Y-119810712D01*
X137470374Y-119810712D02*
X137515601Y-119898360D01*
X134660441Y-122595780D02*
X134680841Y-122646582D01*
X136047421Y-121767600D02*
X136142944Y-121809479D01*
X136142944Y-121809479D02*
X136225221Y-121787988D01*
X136951441Y-119750980D02*
X136944834Y-119636734D01*
X136944834Y-119636734D02*
X136956950Y-119529867D01*
X136956950Y-119529867D02*
X137042559Y-119472974D01*
X137042559Y-119472974D02*
X137150613Y-119497702D01*
X137150613Y-119497702D02*
X137190421Y-119512360D01*
X136225221Y-121787988D02*
X136291420Y-121863818D01*
X136291420Y-121863818D02*
X136335616Y-121971722D01*
X136335616Y-121971722D02*
X136370138Y-122073613D01*
X136370138Y-122073613D02*
X136400172Y-122178378D01*
X136400172Y-122178378D02*
X136426132Y-122297958D01*
X136426132Y-122297958D02*
X136433421Y-122372189D01*
X137297021Y-120304760D02*
X137197562Y-120250306D01*
X137197562Y-120250306D02*
X137111841Y-120169288D01*
X137111841Y-120169288D02*
X137052369Y-120083930D01*
X137052369Y-120083930D02*
X137005026Y-119984449D01*
X137005026Y-119984449D02*
X136970991Y-119872810D01*
X136970991Y-119872810D02*
X136951441Y-119750980D01*
X136382601Y-112232580D02*
X136418060Y-112197160D01*
X134259061Y-122214780D02*
X134284441Y-122153960D01*
X135859240Y-111587560D02*
X135859240Y-111587560D01*
X134421801Y-122306358D02*
X134410497Y-122199163D01*
X134410497Y-122199163D02*
X134394671Y-122095107D01*
X134394671Y-122095107D02*
X134376021Y-122001552D01*
X134655421Y-122555002D02*
X134551004Y-122529685D01*
X134551004Y-122529685D02*
X134465584Y-122462750D01*
X134465584Y-122462750D02*
X134430814Y-122365512D01*
X134430814Y-122365512D02*
X134421801Y-122306358D01*
X135859240Y-111587560D02*
X135823840Y-111622980D01*
X138455381Y-117454940D02*
X138532578Y-117371825D01*
X138532578Y-117371825D02*
X138589503Y-117285414D01*
X138589503Y-117285414D02*
X138642738Y-117196248D01*
X138642738Y-117196248D02*
X138699008Y-117095084D01*
X138699008Y-117095084D02*
X138744801Y-117007780D01*
X136433421Y-122372189D02*
X136413827Y-122472272D01*
X136413827Y-122472272D02*
X136368487Y-122567419D01*
X136368487Y-122567419D02*
X136331800Y-122560352D01*
X135991581Y-122661958D02*
X135991581Y-122661958D01*
X135991581Y-122661958D02*
X136062441Y-122661958D01*
X134350601Y-122595780D02*
X134299841Y-122539964D01*
X136062441Y-122661958D02*
X136027021Y-122697386D01*
X136418060Y-112197160D02*
X136418060Y-112197160D01*
X138196061Y-115880141D02*
X138183830Y-115984807D01*
X138183830Y-115984807D02*
X138164570Y-116113078D01*
X138164570Y-116113078D02*
X138141395Y-116229981D01*
X138141395Y-116229981D02*
X138113712Y-116337184D01*
X138113712Y-116337184D02*
X138080930Y-116436356D01*
X138080930Y-116436356D02*
X138042458Y-116529164D01*
X138042458Y-116529164D02*
X137985462Y-116638768D01*
X137985462Y-116638768D02*
X137932021Y-116723360D01*
X136494241Y-116169580D02*
X136598398Y-116221500D01*
X136598398Y-116221500D02*
X136704592Y-116262943D01*
X136704592Y-116262943D02*
X136812196Y-116293886D01*
X136812196Y-116293886D02*
X136920587Y-116314303D01*
X136920587Y-116314303D02*
X137029140Y-116324170D01*
X137029140Y-116324170D02*
X137137232Y-116323462D01*
X137137232Y-116323462D02*
X137244236Y-116312155D01*
X137244236Y-116312155D02*
X137349530Y-116290225D01*
X137349530Y-116290225D02*
X137452489Y-116257646D01*
X137452489Y-116257646D02*
X137552487Y-116214395D01*
X137552487Y-116214395D02*
X137617201Y-116179620D01*
X135666421Y-114950400D02*
X135694547Y-115059504D01*
X135694547Y-115059504D02*
X135725687Y-115164016D01*
X135725687Y-115164016D02*
X135759871Y-115263979D01*
X135759871Y-115263979D02*
X135797126Y-115359436D01*
X135797126Y-115359436D02*
X135858831Y-115494272D01*
X135858831Y-115494272D02*
X135927609Y-115619219D01*
X135927609Y-115619219D02*
X136003557Y-115734427D01*
X136003557Y-115734427D02*
X136086771Y-115840043D01*
X136086771Y-115840043D02*
X136177350Y-115936218D01*
X136177350Y-115936218D02*
X136275390Y-116023100D01*
X136275390Y-116023100D02*
X136380988Y-116100838D01*
X136380988Y-116100838D02*
X136494241Y-116169580D01*
X136331800Y-122560352D02*
X136248353Y-122495967D01*
X136248353Y-122495967D02*
X136194801Y-122484158D01*
X134919441Y-122123210D02*
X134907066Y-122252191D01*
X134907066Y-122252191D02*
X134891766Y-122354979D01*
X134891766Y-122354979D02*
X134860086Y-122465259D01*
X134860086Y-122465259D02*
X134793754Y-122542848D01*
X134793754Y-122542848D02*
X134689003Y-122558524D01*
X134689003Y-122558524D02*
X134655421Y-122555002D01*
X134640061Y-121787988D02*
X134717335Y-121863344D01*
X134717335Y-121863344D02*
X134804185Y-121923756D01*
X134804185Y-121923756D02*
X134884021Y-121869204D01*
X136418060Y-112197160D02*
X136347201Y-112197160D01*
X139039601Y-114721780D02*
X139042741Y-114824297D01*
X139042741Y-114824297D02*
X139059641Y-114838760D01*
X137805021Y-116956980D02*
X137876224Y-117050239D01*
X137876224Y-117050239D02*
X137965012Y-117130381D01*
X137965012Y-117130381D02*
X138044941Y-117196013D01*
X138044941Y-117196013D02*
X138130412Y-117261917D01*
X138130412Y-117261917D02*
X138216125Y-117324078D01*
X138216125Y-117324078D02*
X138321623Y-117394191D01*
X138321623Y-117394191D02*
X138421707Y-117447925D01*
X138421707Y-117447925D02*
X138455381Y-117454940D01*
X134655421Y-122555002D02*
X134655421Y-122555002D01*
X134350601Y-122519586D02*
X134401421Y-122575392D01*
X136027021Y-122697386D02*
X135991581Y-122661958D01*
X139059641Y-114838760D02*
X139067289Y-114737940D01*
X139067289Y-114737940D02*
X139063040Y-114634730D01*
X139063040Y-114634730D02*
X139059641Y-114610160D01*
X138109841Y-115656560D02*
X138165641Y-115585400D01*
X134299841Y-122539964D02*
X134299841Y-122539964D01*
X137932021Y-116723360D02*
X137876508Y-116808366D01*
X137876508Y-116808366D02*
X137826436Y-116898693D01*
X137826436Y-116898693D02*
X137805021Y-116956980D01*
X134299841Y-122539964D02*
X134350601Y-122519586D01*
X137617201Y-116179620D02*
X137709756Y-116119706D01*
X137709756Y-116119706D02*
X137799071Y-116052253D01*
X137799071Y-116052253D02*
X137882341Y-115980249D01*
X137882341Y-115980249D02*
X137956761Y-115906682D01*
X137956761Y-115906682D02*
X138033067Y-115817079D01*
X138033067Y-115817079D02*
X138092882Y-115720715D01*
X138092882Y-115720715D02*
X138109841Y-115656560D01*
X134401421Y-122575392D02*
X134350601Y-122595780D01*
X135859240Y-111658420D02*
X135859240Y-111587560D01*
X134579221Y-122646582D02*
X134579221Y-122646582D01*
X134599601Y-122697386D02*
X134579221Y-122646582D01*
X138165641Y-115585400D02*
X138205823Y-115686426D01*
X138205823Y-115686426D02*
X138203386Y-115792992D01*
X138203386Y-115792992D02*
X138196061Y-115880141D01*
X137297021Y-120304760D02*
X137297021Y-120304760D01*
X134284441Y-122306358D02*
X134259061Y-122214780D01*
X134284441Y-122153960D02*
X134291725Y-122254403D01*
X134291725Y-122254403D02*
X134284441Y-122306358D01*
X136331800Y-122560352D02*
X136331800Y-122560352D01*
X134680841Y-122646582D02*
X134599601Y-122697386D01*
X134376021Y-122001552D02*
X134369054Y-121900055D01*
X134369054Y-121900055D02*
X134378952Y-121799313D01*
X134378952Y-121799313D02*
X134401421Y-121727168D01*
X134579221Y-122646582D02*
X134660441Y-122595780D01*
X135823840Y-111622980D02*
X135859240Y-111658420D01*
X136347201Y-112197160D02*
X136382601Y-112232580D01*
X138744801Y-117007780D02*
X138744801Y-117007780D01*
X139059641Y-114610160D02*
X139059641Y-114610160D01*
X135087221Y-118582580D02*
X134992767Y-118627163D01*
X134992767Y-118627163D02*
X134885485Y-118627887D01*
X134885485Y-118627887D02*
X134807841Y-118577560D01*
X134985641Y-118328580D02*
X135069987Y-118397884D01*
X135069987Y-118397884D02*
X135102775Y-118500400D01*
X135102775Y-118500400D02*
X135087221Y-118582580D01*
X134259061Y-122214780D02*
X134259061Y-122214780D01*
X132064600Y-115214400D02*
X132085095Y-115313138D01*
X132085095Y-115313138D02*
X132120441Y-115361800D01*
X135630641Y-113014980D02*
X135649822Y-113123443D01*
X135649822Y-113123443D02*
X135642572Y-113225176D01*
X135642572Y-113225176D02*
X135636000Y-113284000D01*
X135315841Y-109413200D02*
X135265020Y-109352360D01*
X133979641Y-111587560D02*
X133949221Y-111622980D01*
X132120441Y-115361800D02*
X132152835Y-115456865D01*
X132152835Y-115456865D02*
X132145841Y-115509160D01*
X132826601Y-113746560D02*
X132786340Y-113841270D01*
X132786340Y-113841270D02*
X132735061Y-113898940D01*
X135239601Y-113604160D02*
X135293414Y-113518275D01*
X135293414Y-113518275D02*
X135362685Y-113408950D01*
X135362685Y-113408950D02*
X135427592Y-113307905D01*
X135427592Y-113307905D02*
X135486467Y-113217706D01*
X135486467Y-113217706D02*
X135549039Y-113124118D01*
X135549039Y-113124118D02*
X135610228Y-113037836D01*
X135610228Y-113037836D02*
X135630641Y-113014980D01*
X133837601Y-115300980D02*
X133946683Y-115236312D01*
X133946683Y-115236312D02*
X134055174Y-115158059D01*
X134055174Y-115158059D02*
X134164879Y-115064163D01*
X134164879Y-115064163D02*
X134239582Y-114991858D01*
X134239582Y-114991858D02*
X134316162Y-114911075D01*
X134316162Y-114911075D02*
X134395155Y-114821204D01*
X134395155Y-114821204D02*
X134477095Y-114721635D01*
X134477095Y-114721635D02*
X134562517Y-114611757D01*
X134562517Y-114611757D02*
X134651958Y-114490962D01*
X134651958Y-114490962D02*
X134745950Y-114358638D01*
X134745950Y-114358638D02*
X134845030Y-114214175D01*
X134845030Y-114214175D02*
X134949733Y-114056965D01*
X134949733Y-114056965D02*
X135060594Y-113886395D01*
X135060594Y-113886395D02*
X135118500Y-113795911D01*
X135118500Y-113795911D02*
X135178147Y-113701857D01*
X135178147Y-113701857D02*
X135239601Y-113604160D01*
X133004421Y-113258620D02*
X132994381Y-113284000D01*
X135788381Y-111490980D02*
X135757641Y-111404420D01*
X132623421Y-114782620D02*
X132643955Y-114904647D01*
X132643955Y-114904647D02*
X132673055Y-115015346D01*
X132673055Y-115015346D02*
X132710468Y-115114585D01*
X132710468Y-115114585D02*
X132781616Y-115241662D01*
X132781616Y-115241662D02*
X132870037Y-115342201D01*
X132870037Y-115342201D02*
X132974873Y-115415751D01*
X132974873Y-115415751D02*
X133095266Y-115461861D01*
X133095266Y-115461861D02*
X133230359Y-115480080D01*
X133230359Y-115480080D02*
X133379294Y-115469958D01*
X133379294Y-115469958D02*
X133485850Y-115447242D01*
X133485850Y-115447242D02*
X133597922Y-115411596D01*
X133597922Y-115411596D02*
X133715257Y-115362886D01*
X133715257Y-115362886D02*
X133837601Y-115300980D01*
X132145841Y-115509160D02*
X132137219Y-115609570D01*
X132137219Y-115609570D02*
X132149281Y-115709854D01*
X132149281Y-115709854D02*
X132156201Y-115732780D01*
X135930421Y-112059780D02*
X135904104Y-111962970D01*
X135904104Y-111962970D02*
X135895001Y-111948160D01*
X133182221Y-112969200D02*
X133156801Y-113050400D01*
X136398001Y-112313780D02*
X136291892Y-112282190D01*
X136291892Y-112282190D02*
X136192689Y-112255132D01*
X136192689Y-112255132D02*
X136088563Y-112229493D01*
X136088563Y-112229493D02*
X136027021Y-112217200D01*
X133995021Y-111495980D02*
X133979641Y-111587560D01*
X132359380Y-115559981D02*
X132335748Y-115453471D01*
X132335748Y-115453471D02*
X132335767Y-115331268D01*
X132335767Y-115331268D02*
X132347754Y-115217807D01*
X132347754Y-115217807D02*
X132369666Y-115095162D01*
X132369666Y-115095162D02*
X132400843Y-114967737D01*
X132400843Y-114967737D02*
X132429908Y-114871680D01*
X132429908Y-114871680D02*
X132463534Y-114777268D01*
X132463534Y-114777268D02*
X132501441Y-114686360D01*
X132588001Y-114493160D02*
X132623421Y-114782620D01*
X132501441Y-114686360D02*
X132588001Y-114493160D01*
X133918841Y-111673780D02*
X133903441Y-111724580D01*
X132156201Y-115732780D02*
X132216909Y-115812654D01*
X132216909Y-115812654D02*
X132303241Y-115763200D01*
X132994381Y-113284000D02*
X133008146Y-113385755D01*
X133008146Y-113385755D02*
X132963784Y-113475663D01*
X132963784Y-113475663D02*
X132928221Y-113477160D01*
X132110421Y-115168940D02*
X132064600Y-115214400D01*
X133639421Y-112207200D02*
X133589056Y-112319566D01*
X133589056Y-112319566D02*
X133526306Y-112433116D01*
X133526306Y-112433116D02*
X133469868Y-112530473D01*
X133469868Y-112530473D02*
X133409579Y-112631332D01*
X133409579Y-112631332D02*
X133349206Y-112729437D01*
X133349206Y-112729437D02*
X133292516Y-112818533D01*
X133292516Y-112818533D02*
X133229171Y-112912498D01*
X133229171Y-112912498D02*
X133182221Y-112969200D01*
X133578581Y-112212200D02*
X133639421Y-112207200D01*
X133639421Y-112156400D02*
X133558201Y-112186800D01*
X136027021Y-112217200D02*
X135931312Y-112174057D01*
X135931312Y-112174057D02*
X135876466Y-112084774D01*
X135876466Y-112084774D02*
X135874641Y-112064800D01*
X135361601Y-109590980D02*
X135341220Y-109524800D01*
X135636000Y-110835580D02*
X135597297Y-110736896D01*
X135597297Y-110736896D02*
X135565650Y-110629917D01*
X135565650Y-110629917D02*
X135540311Y-110529566D01*
X135540311Y-110529566D02*
X135518016Y-110426977D01*
X135518016Y-110426977D02*
X135498058Y-110311408D01*
X135498058Y-110311408D02*
X135493601Y-110276780D01*
X135681441Y-111064160D02*
X135675010Y-110959665D01*
X135675010Y-110959665D02*
X135646906Y-110858509D01*
X135646906Y-110858509D02*
X135636000Y-110835580D01*
X133710601Y-112100560D02*
X133639421Y-112156400D01*
X133746021Y-111907400D02*
X133693625Y-112000529D01*
X133693625Y-112000529D02*
X133690221Y-112054780D01*
X133690221Y-112054780D02*
X133710601Y-112100560D01*
X136804381Y-112252980D02*
X136779001Y-112308780D01*
X136839841Y-112156400D02*
X136768641Y-112212200D01*
X136768641Y-112212200D02*
X136804381Y-112252980D01*
X133949221Y-111622980D02*
X133918841Y-111673780D01*
X135874641Y-111851580D02*
X135859240Y-111755000D01*
X135265020Y-109352360D02*
X135191152Y-109443381D01*
X135191152Y-109443381D02*
X135125348Y-109546673D01*
X135125348Y-109546673D02*
X135064725Y-109645520D01*
X135064725Y-109645520D02*
X134995615Y-109760822D01*
X134995615Y-109760822D02*
X134919074Y-109890900D01*
X134919074Y-109890900D02*
X134864439Y-109984998D01*
X134864439Y-109984998D02*
X134807284Y-110084417D01*
X134807284Y-110084417D02*
X134747921Y-110188660D01*
X134747921Y-110188660D02*
X134686663Y-110297228D01*
X134686663Y-110297228D02*
X134655421Y-110352980D01*
X132303241Y-115763200D02*
X132379953Y-115692727D01*
X132379953Y-115692727D02*
X132372039Y-115588045D01*
X132372039Y-115588045D02*
X132359380Y-115559981D01*
X135422441Y-110002400D02*
X135397651Y-109893655D01*
X135397651Y-109893655D02*
X135384483Y-109783671D01*
X135384483Y-109783671D02*
X135386023Y-109678940D01*
X135386023Y-109678940D02*
X135392021Y-109646780D01*
X132735061Y-113898940D02*
X132709641Y-113939400D01*
X135341220Y-109524800D02*
X135348528Y-109421976D01*
X135348528Y-109421976D02*
X135315841Y-109413200D01*
X132892801Y-113609200D02*
X132838112Y-113694601D01*
X132838112Y-113694601D02*
X132826601Y-113746560D01*
X135493601Y-110276780D02*
X135469556Y-110175822D01*
X135469556Y-110175822D02*
X135441858Y-110070849D01*
X135441858Y-110070849D02*
X135422441Y-110002400D01*
X132181601Y-115168940D02*
X132110421Y-115168940D01*
X132709641Y-113939400D02*
X132688664Y-114049474D01*
X132688664Y-114049474D02*
X132649828Y-114147114D01*
X132649828Y-114147114D02*
X132609067Y-114242193D01*
X132609067Y-114242193D02*
X132560791Y-114349773D01*
X132560791Y-114349773D02*
X132506011Y-114467473D01*
X132506011Y-114467473D02*
X132491420Y-114498200D01*
X135392021Y-109646780D02*
X135361601Y-109590980D01*
X135717221Y-111114980D02*
X135681441Y-111064160D01*
X135737601Y-111236980D02*
X135752270Y-111134341D01*
X135752270Y-111134341D02*
X135717221Y-111114980D01*
X134655421Y-110352980D02*
X134592216Y-110463406D01*
X134592216Y-110463406D02*
X134530405Y-110571451D01*
X134530405Y-110571451D02*
X134470315Y-110676511D01*
X134470315Y-110676511D02*
X134412275Y-110777982D01*
X134412275Y-110777982D02*
X134356611Y-110875260D01*
X134356611Y-110875260D02*
X134303652Y-110967743D01*
X134303652Y-110967743D02*
X134253727Y-111054825D01*
X134253727Y-111054825D02*
X134185244Y-111174004D01*
X134185244Y-111174004D02*
X134125431Y-111277638D01*
X134125431Y-111277638D02*
X134061080Y-111388115D01*
X134061080Y-111388115D02*
X134009083Y-111474898D01*
X134009083Y-111474898D02*
X133995021Y-111495980D01*
X132892801Y-113573760D02*
X132892801Y-113609200D01*
X132857021Y-113533000D02*
X132892801Y-113573760D01*
X135757641Y-111404420D02*
X135728847Y-111301336D01*
X135728847Y-111301336D02*
X135737601Y-111236980D01*
X135874641Y-112064800D02*
X135930421Y-112059780D01*
X135895001Y-111948160D02*
X135842563Y-111861416D01*
X135842563Y-111861416D02*
X135874641Y-111851580D01*
X132928221Y-113477160D02*
X132857021Y-113533000D01*
X133156801Y-113050400D02*
X133139902Y-113156553D01*
X133139902Y-113156553D02*
X133078107Y-113238512D01*
X133078107Y-113238512D02*
X133004421Y-113258620D01*
X133558201Y-112186800D02*
X133578581Y-112212200D01*
X135859240Y-111755000D02*
X135811522Y-111662095D01*
X135811522Y-111662095D02*
X135786770Y-111565021D01*
X135786770Y-111565021D02*
X135788381Y-111490980D01*
X136779001Y-112308780D02*
X136697601Y-112369667D01*
X136697601Y-112369667D02*
X136595971Y-112365976D01*
X136595971Y-112365976D02*
X136492686Y-112340420D01*
X136492686Y-112340420D02*
X136398001Y-112313780D01*
X132491420Y-114498200D02*
X132447759Y-114590198D01*
X132447759Y-114590198D02*
X132392063Y-114708696D01*
X132392063Y-114708696D02*
X132340346Y-114819817D01*
X132340346Y-114819817D02*
X132293804Y-114920704D01*
X132293804Y-114920704D02*
X132244732Y-115028072D01*
X132244732Y-115028072D02*
X132202287Y-115122064D01*
X132202287Y-115122064D02*
X132181601Y-115168940D01*
X133903441Y-111724580D02*
X133825631Y-111790847D01*
X133825631Y-111790847D02*
X133763317Y-111879412D01*
X133763317Y-111879412D02*
X133746021Y-111907400D01*
X135636000Y-113284000D02*
X135619639Y-113426461D01*
X135619639Y-113426461D02*
X135611194Y-113530633D01*
X135611194Y-113530633D02*
X135604666Y-113640584D01*
X135604666Y-113640584D02*
X135600010Y-113754961D01*
X135600010Y-113754961D02*
X135597180Y-113872408D01*
X135597180Y-113872408D02*
X135596132Y-113991573D01*
X135596132Y-113991573D02*
X135596821Y-114111100D01*
X135596821Y-114111100D02*
X135599202Y-114229637D01*
X135599202Y-114229637D02*
X135603228Y-114345828D01*
X135603228Y-114345828D02*
X135608857Y-114458320D01*
X135608857Y-114458320D02*
X135616041Y-114565760D01*
X135616041Y-114565760D02*
X135624737Y-114666792D01*
X135624737Y-114666792D02*
X135640515Y-114803365D01*
X135640515Y-114803365D02*
X135659439Y-114917905D01*
X135659439Y-114917905D02*
X135666421Y-114950400D01*
D10*
X122086666Y-87391047D02*
X122086666Y-86914857D01*
X122372380Y-87486285D02*
X121372380Y-87152952D01*
X122372380Y-86819619D01*
X122372380Y-86486285D02*
X121705714Y-86486285D01*
X121896190Y-86486285D02*
X121800952Y-86438666D01*
X121753333Y-86391047D01*
X121705714Y-86295809D01*
X121705714Y-86200571D01*
X122372380Y-85438666D02*
X121372380Y-85438666D01*
X122324761Y-85438666D02*
X122372380Y-85533904D01*
X122372380Y-85724380D01*
X122324761Y-85819619D01*
X122277142Y-85867238D01*
X122181904Y-85914857D01*
X121896190Y-85914857D01*
X121800952Y-85867238D01*
X121753333Y-85819619D01*
X121705714Y-85724380D01*
X121705714Y-85533904D01*
X121753333Y-85438666D01*
X121705714Y-84533904D02*
X122372380Y-84533904D01*
X121705714Y-84962476D02*
X122229523Y-84962476D01*
X122324761Y-84914857D01*
X122372380Y-84819619D01*
X122372380Y-84676761D01*
X122324761Y-84581523D01*
X122277142Y-84533904D01*
X122372380Y-84057714D02*
X121705714Y-84057714D01*
X121372380Y-84057714D02*
X121420000Y-84105333D01*
X121467619Y-84057714D01*
X121420000Y-84010095D01*
X121372380Y-84057714D01*
X121467619Y-84057714D01*
X121705714Y-83581523D02*
X122372380Y-83581523D01*
X121800952Y-83581523D02*
X121753333Y-83533904D01*
X121705714Y-83438666D01*
X121705714Y-83295809D01*
X121753333Y-83200571D01*
X121848571Y-83152952D01*
X122372380Y-83152952D01*
X122372380Y-82533904D02*
X122324761Y-82629142D01*
X122277142Y-82676761D01*
X122181904Y-82724380D01*
X121896190Y-82724380D01*
X121800952Y-82676761D01*
X121753333Y-82629142D01*
X121705714Y-82533904D01*
X121705714Y-82391047D01*
X121753333Y-82295809D01*
X121800952Y-82248190D01*
X121896190Y-82200571D01*
X122181904Y-82200571D01*
X122277142Y-82248190D01*
X122324761Y-82295809D01*
X122372380Y-82391047D01*
X122372380Y-82533904D01*
X122372380Y-81010095D02*
X121372380Y-81010095D01*
X121372380Y-80629142D01*
X121420000Y-80533904D01*
X121467619Y-80486285D01*
X121562857Y-80438666D01*
X121705714Y-80438666D01*
X121800952Y-80486285D01*
X121848571Y-80533904D01*
X121896190Y-80629142D01*
X121896190Y-81010095D01*
X122372380Y-80010095D02*
X121705714Y-80010095D01*
X121896190Y-80010095D02*
X121800952Y-79962476D01*
X121753333Y-79914857D01*
X121705714Y-79819619D01*
X121705714Y-79724380D01*
X122372380Y-79248190D02*
X122324761Y-79343428D01*
X122277142Y-79391047D01*
X122181904Y-79438666D01*
X121896190Y-79438666D01*
X121800952Y-79391047D01*
X121753333Y-79343428D01*
X121705714Y-79248190D01*
X121705714Y-79105333D01*
X121753333Y-79010095D01*
X121800952Y-78962476D01*
X121896190Y-78914857D01*
X122181904Y-78914857D01*
X122277142Y-78962476D01*
X122324761Y-79010095D01*
X122372380Y-79105333D01*
X122372380Y-79248190D01*
X122372380Y-77724380D02*
X121372380Y-77724380D01*
X122086666Y-77391047D01*
X121372380Y-77057714D01*
X122372380Y-77057714D01*
X122372380Y-76581523D02*
X121705714Y-76581523D01*
X121372380Y-76581523D02*
X121420000Y-76629142D01*
X121467619Y-76581523D01*
X121420000Y-76533904D01*
X121372380Y-76581523D01*
X121467619Y-76581523D01*
X122324761Y-75676761D02*
X122372380Y-75772000D01*
X122372380Y-75962476D01*
X122324761Y-76057714D01*
X122277142Y-76105333D01*
X122181904Y-76152952D01*
X121896190Y-76152952D01*
X121800952Y-76105333D01*
X121753333Y-76057714D01*
X121705714Y-75962476D01*
X121705714Y-75772000D01*
X121753333Y-75676761D01*
X122372380Y-75248190D02*
X121705714Y-75248190D01*
X121896190Y-75248190D02*
X121800952Y-75200571D01*
X121753333Y-75152952D01*
X121705714Y-75057714D01*
X121705714Y-74962476D01*
X122372380Y-74486285D02*
X122324761Y-74581523D01*
X122277142Y-74629142D01*
X122181904Y-74676761D01*
X121896190Y-74676761D01*
X121800952Y-74629142D01*
X121753333Y-74581523D01*
X121705714Y-74486285D01*
X121705714Y-74343428D01*
X121753333Y-74248190D01*
X121800952Y-74200571D01*
X121896190Y-74152952D01*
X122181904Y-74152952D01*
X122277142Y-74200571D01*
X122324761Y-74248190D01*
X122372380Y-74343428D01*
X122372380Y-74486285D01*
X145296952Y-78636761D02*
X145439809Y-78684380D01*
X145677904Y-78684380D01*
X145773142Y-78636761D01*
X145820761Y-78589142D01*
X145868380Y-78493904D01*
X145868380Y-78398666D01*
X145820761Y-78303428D01*
X145773142Y-78255809D01*
X145677904Y-78208190D01*
X145487428Y-78160571D01*
X145392190Y-78112952D01*
X145344571Y-78065333D01*
X145296952Y-77970095D01*
X145296952Y-77874857D01*
X145344571Y-77779619D01*
X145392190Y-77732000D01*
X145487428Y-77684380D01*
X145725523Y-77684380D01*
X145868380Y-77732000D01*
X146677904Y-78636761D02*
X146582666Y-78684380D01*
X146392190Y-78684380D01*
X146296952Y-78636761D01*
X146249333Y-78541523D01*
X146249333Y-78160571D01*
X146296952Y-78065333D01*
X146392190Y-78017714D01*
X146582666Y-78017714D01*
X146677904Y-78065333D01*
X146725523Y-78160571D01*
X146725523Y-78255809D01*
X146249333Y-78351047D01*
X147154095Y-78017714D02*
X147154095Y-78684380D01*
X147154095Y-78112952D02*
X147201714Y-78065333D01*
X147296952Y-78017714D01*
X147439809Y-78017714D01*
X147535047Y-78065333D01*
X147582666Y-78160571D01*
X147582666Y-78684380D01*
X148011238Y-78636761D02*
X148106476Y-78684380D01*
X148296952Y-78684380D01*
X148392190Y-78636761D01*
X148439809Y-78541523D01*
X148439809Y-78493904D01*
X148392190Y-78398666D01*
X148296952Y-78351047D01*
X148154095Y-78351047D01*
X148058857Y-78303428D01*
X148011238Y-78208190D01*
X148011238Y-78160571D01*
X148058857Y-78065333D01*
X148154095Y-78017714D01*
X148296952Y-78017714D01*
X148392190Y-78065333D01*
X148868380Y-78684380D02*
X148868380Y-78017714D01*
X148868380Y-77684380D02*
X148820761Y-77732000D01*
X148868380Y-77779619D01*
X148916000Y-77732000D01*
X148868380Y-77684380D01*
X148868380Y-77779619D01*
X149201714Y-78017714D02*
X149582666Y-78017714D01*
X149344571Y-77684380D02*
X149344571Y-78541523D01*
X149392190Y-78636761D01*
X149487428Y-78684380D01*
X149582666Y-78684380D01*
X149916000Y-78684380D02*
X149916000Y-78017714D01*
X149916000Y-77684380D02*
X149868380Y-77732000D01*
X149916000Y-77779619D01*
X149963619Y-77732000D01*
X149916000Y-77684380D01*
X149916000Y-77779619D01*
X150296952Y-78017714D02*
X150535047Y-78684380D01*
X150773142Y-78017714D01*
X151154095Y-78684380D02*
X151154095Y-78017714D01*
X151154095Y-77684380D02*
X151106476Y-77732000D01*
X151154095Y-77779619D01*
X151201714Y-77732000D01*
X151154095Y-77684380D01*
X151154095Y-77779619D01*
X151487428Y-78017714D02*
X151868380Y-78017714D01*
X151630285Y-77684380D02*
X151630285Y-78541523D01*
X151677904Y-78636761D01*
X151773142Y-78684380D01*
X151868380Y-78684380D01*
X152106476Y-78017714D02*
X152344571Y-78684380D01*
X152582666Y-78017714D02*
X152344571Y-78684380D01*
X152249333Y-78922476D01*
X152201714Y-78970095D01*
X152106476Y-79017714D01*
X154154095Y-78684380D02*
X154154095Y-78160571D01*
X154106476Y-78065333D01*
X154011238Y-78017714D01*
X153820761Y-78017714D01*
X153725523Y-78065333D01*
X154154095Y-78636761D02*
X154058857Y-78684380D01*
X153820761Y-78684380D01*
X153725523Y-78636761D01*
X153677904Y-78541523D01*
X153677904Y-78446285D01*
X153725523Y-78351047D01*
X153820761Y-78303428D01*
X154058857Y-78303428D01*
X154154095Y-78255809D01*
X155058857Y-78684380D02*
X155058857Y-77684380D01*
X155058857Y-78636761D02*
X154963619Y-78684380D01*
X154773142Y-78684380D01*
X154677904Y-78636761D01*
X154630285Y-78589142D01*
X154582666Y-78493904D01*
X154582666Y-78208190D01*
X154630285Y-78112952D01*
X154677904Y-78065333D01*
X154773142Y-78017714D01*
X154963619Y-78017714D01*
X155058857Y-78065333D01*
X155535047Y-78017714D02*
X155535047Y-78874857D01*
X155487428Y-78970095D01*
X155392190Y-79017714D01*
X155344571Y-79017714D01*
X155535047Y-77684380D02*
X155487428Y-77732000D01*
X155535047Y-77779619D01*
X155582666Y-77732000D01*
X155535047Y-77684380D01*
X155535047Y-77779619D01*
X156439809Y-78017714D02*
X156439809Y-78684380D01*
X156011238Y-78017714D02*
X156011238Y-78541523D01*
X156058857Y-78636761D01*
X156154095Y-78684380D01*
X156296952Y-78684380D01*
X156392190Y-78636761D01*
X156439809Y-78589142D01*
X156868380Y-78636761D02*
X156963619Y-78684380D01*
X157154095Y-78684380D01*
X157249333Y-78636761D01*
X157296952Y-78541523D01*
X157296952Y-78493904D01*
X157249333Y-78398666D01*
X157154095Y-78351047D01*
X157011238Y-78351047D01*
X156916000Y-78303428D01*
X156868380Y-78208190D01*
X156868380Y-78160571D01*
X156916000Y-78065333D01*
X157011238Y-78017714D01*
X157154095Y-78017714D01*
X157249333Y-78065333D01*
X157582666Y-78017714D02*
X157963619Y-78017714D01*
X157725523Y-77684380D02*
X157725523Y-78541523D01*
X157773142Y-78636761D01*
X157868380Y-78684380D01*
X157963619Y-78684380D01*
X158296952Y-78684380D02*
X158296952Y-78017714D01*
X158296952Y-78112952D02*
X158344571Y-78065333D01*
X158439809Y-78017714D01*
X158582666Y-78017714D01*
X158677904Y-78065333D01*
X158725523Y-78160571D01*
X158725523Y-78684380D01*
X158725523Y-78160571D02*
X158773142Y-78065333D01*
X158868380Y-78017714D01*
X159011238Y-78017714D01*
X159106476Y-78065333D01*
X159154095Y-78160571D01*
X159154095Y-78684380D01*
X160011238Y-78636761D02*
X159916000Y-78684380D01*
X159725523Y-78684380D01*
X159630285Y-78636761D01*
X159582666Y-78541523D01*
X159582666Y-78160571D01*
X159630285Y-78065333D01*
X159725523Y-78017714D01*
X159916000Y-78017714D01*
X160011238Y-78065333D01*
X160058857Y-78160571D01*
X160058857Y-78255809D01*
X159582666Y-78351047D01*
X160487428Y-78017714D02*
X160487428Y-78684380D01*
X160487428Y-78112952D02*
X160535047Y-78065333D01*
X160630285Y-78017714D01*
X160773142Y-78017714D01*
X160868380Y-78065333D01*
X160916000Y-78160571D01*
X160916000Y-78684380D01*
X161249333Y-78017714D02*
X161630285Y-78017714D01*
X161392190Y-77684380D02*
X161392190Y-78541523D01*
X161439809Y-78636761D01*
X161535047Y-78684380D01*
X161630285Y-78684380D01*
X159738095Y-138452380D02*
X159261904Y-138452380D01*
X159214285Y-138928571D01*
X159261904Y-138880952D01*
X159357142Y-138833333D01*
X159595238Y-138833333D01*
X159690476Y-138880952D01*
X159738095Y-138928571D01*
X159785714Y-139023809D01*
X159785714Y-139261904D01*
X159738095Y-139357142D01*
X159690476Y-139404761D01*
X159595238Y-139452380D01*
X159357142Y-139452380D01*
X159261904Y-139404761D01*
X159214285Y-139357142D01*
X149690476Y-138785714D02*
X149690476Y-139452380D01*
X149452380Y-138404761D02*
X149214285Y-139119047D01*
X149833333Y-139119047D01*
X139166666Y-138452380D02*
X139785714Y-138452380D01*
X139452380Y-138833333D01*
X139595238Y-138833333D01*
X139690476Y-138880952D01*
X139738095Y-138928571D01*
X139785714Y-139023809D01*
X139785714Y-139261904D01*
X139738095Y-139357142D01*
X139690476Y-139404761D01*
X139595238Y-139452380D01*
X139309523Y-139452380D01*
X139214285Y-139404761D01*
X139166666Y-139357142D01*
X128964285Y-138547619D02*
X129011904Y-138500000D01*
X129107142Y-138452380D01*
X129345238Y-138452380D01*
X129440476Y-138500000D01*
X129488095Y-138547619D01*
X129535714Y-138642857D01*
X129535714Y-138738095D01*
X129488095Y-138880952D01*
X128916666Y-139452380D01*
X129535714Y-139452380D01*
X119785714Y-139452380D02*
X119214285Y-139452380D01*
X119500000Y-139452380D02*
X119500000Y-138452380D01*
X119404761Y-138595238D01*
X119309523Y-138690476D01*
X119214285Y-138738095D01*
X156107047Y-98053380D02*
X156107047Y-97053380D01*
X156345142Y-97053380D01*
X156488000Y-97101000D01*
X156583238Y-97196238D01*
X156630857Y-97291476D01*
X156678476Y-97481952D01*
X156678476Y-97624809D01*
X156630857Y-97815285D01*
X156583238Y-97910523D01*
X156488000Y-98005761D01*
X156345142Y-98053380D01*
X156107047Y-98053380D01*
X157107047Y-98053380D02*
X157107047Y-97053380D01*
X157345142Y-97053380D01*
X157488000Y-97101000D01*
X157583238Y-97196238D01*
X157630857Y-97291476D01*
X157678476Y-97481952D01*
X157678476Y-97624809D01*
X157630857Y-97815285D01*
X157583238Y-97910523D01*
X157488000Y-98005761D01*
X157345142Y-98053380D01*
X157107047Y-98053380D01*
X158678476Y-98053380D02*
X158345142Y-97577190D01*
X158107047Y-98053380D02*
X158107047Y-97053380D01*
X158488000Y-97053380D01*
X158583238Y-97101000D01*
X158630857Y-97148619D01*
X158678476Y-97243857D01*
X158678476Y-97386714D01*
X158630857Y-97481952D01*
X158583238Y-97529571D01*
X158488000Y-97577190D01*
X158107047Y-97577190D01*
X159107047Y-97958142D02*
X159154666Y-98005761D01*
X159107047Y-98053380D01*
X159059428Y-98005761D01*
X159107047Y-97958142D01*
X159107047Y-98053380D01*
X159107047Y-97434333D02*
X159154666Y-97481952D01*
X159107047Y-97529571D01*
X159059428Y-97481952D01*
X159107047Y-97434333D01*
X159107047Y-97529571D01*
X157249904Y-98703380D02*
X157249904Y-99512904D01*
X157297523Y-99608142D01*
X157345142Y-99655761D01*
X157440380Y-99703380D01*
X157630857Y-99703380D01*
X157726095Y-99655761D01*
X157773714Y-99608142D01*
X157821333Y-99512904D01*
X157821333Y-98703380D01*
X158297523Y-99036714D02*
X158297523Y-100036714D01*
X158297523Y-99084333D02*
X158392761Y-99036714D01*
X158583238Y-99036714D01*
X158678476Y-99084333D01*
X158726095Y-99131952D01*
X158773714Y-99227190D01*
X158773714Y-99512904D01*
X158726095Y-99608142D01*
X158678476Y-99655761D01*
X158583238Y-99703380D01*
X158392761Y-99703380D01*
X158297523Y-99655761D01*
X152916571Y-101353380D02*
X152440380Y-101353380D01*
X152440380Y-100353380D01*
X153630857Y-101305761D02*
X153535619Y-101353380D01*
X153345142Y-101353380D01*
X153249904Y-101305761D01*
X153202285Y-101210523D01*
X153202285Y-100829571D01*
X153249904Y-100734333D01*
X153345142Y-100686714D01*
X153535619Y-100686714D01*
X153630857Y-100734333D01*
X153678476Y-100829571D01*
X153678476Y-100924809D01*
X153202285Y-101020047D01*
X153964190Y-100686714D02*
X154345142Y-100686714D01*
X154107047Y-101353380D02*
X154107047Y-100496238D01*
X154154666Y-100401000D01*
X154249904Y-100353380D01*
X154345142Y-100353380D01*
X154535619Y-100686714D02*
X154916571Y-100686714D01*
X154678476Y-100353380D02*
X154678476Y-101210523D01*
X154726095Y-101305761D01*
X154821333Y-101353380D01*
X154916571Y-101353380D01*
X156297523Y-101734333D02*
X156249904Y-101686714D01*
X156154666Y-101543857D01*
X156107047Y-101448619D01*
X156059428Y-101305761D01*
X156011809Y-101067666D01*
X156011809Y-100877190D01*
X156059428Y-100639095D01*
X156107047Y-100496238D01*
X156154666Y-100401000D01*
X156249904Y-100258142D01*
X156297523Y-100210523D01*
X156678476Y-101353380D02*
X156678476Y-100353380D01*
X157249904Y-101353380D01*
X157249904Y-100353380D01*
X158297523Y-101258142D02*
X158249904Y-101305761D01*
X158107047Y-101353380D01*
X158011809Y-101353380D01*
X157868952Y-101305761D01*
X157773714Y-101210523D01*
X157726095Y-101115285D01*
X157678476Y-100924809D01*
X157678476Y-100781952D01*
X157726095Y-100591476D01*
X157773714Y-100496238D01*
X157868952Y-100401000D01*
X158011809Y-100353380D01*
X158107047Y-100353380D01*
X158249904Y-100401000D01*
X158297523Y-100448619D01*
X158630857Y-101734333D02*
X158678476Y-101686714D01*
X158773714Y-101543857D01*
X158821333Y-101448619D01*
X158868952Y-101305761D01*
X158916571Y-101067666D01*
X158916571Y-100877190D01*
X158868952Y-100639095D01*
X158821333Y-100496238D01*
X158773714Y-100401000D01*
X158678476Y-100258142D01*
X158630857Y-100210523D01*
X160726095Y-101353380D02*
X160392761Y-100877190D01*
X160154666Y-101353380D02*
X160154666Y-100353380D01*
X160535619Y-100353380D01*
X160630857Y-100401000D01*
X160678476Y-100448619D01*
X160726095Y-100543857D01*
X160726095Y-100686714D01*
X160678476Y-100781952D01*
X160630857Y-100829571D01*
X160535619Y-100877190D01*
X160154666Y-100877190D01*
X161154666Y-101353380D02*
X161154666Y-100686714D01*
X161154666Y-100353380D02*
X161107047Y-100401000D01*
X161154666Y-100448619D01*
X161202285Y-100401000D01*
X161154666Y-100353380D01*
X161154666Y-100448619D01*
X162059428Y-100686714D02*
X162059428Y-101496238D01*
X162011809Y-101591476D01*
X161964190Y-101639095D01*
X161868952Y-101686714D01*
X161726095Y-101686714D01*
X161630857Y-101639095D01*
X162059428Y-101305761D02*
X161964190Y-101353380D01*
X161773714Y-101353380D01*
X161678476Y-101305761D01*
X161630857Y-101258142D01*
X161583238Y-101162904D01*
X161583238Y-100877190D01*
X161630857Y-100781952D01*
X161678476Y-100734333D01*
X161773714Y-100686714D01*
X161964190Y-100686714D01*
X162059428Y-100734333D01*
X162535619Y-101353380D02*
X162535619Y-100353380D01*
X162964190Y-101353380D02*
X162964190Y-100829571D01*
X162916571Y-100734333D01*
X162821333Y-100686714D01*
X162678476Y-100686714D01*
X162583238Y-100734333D01*
X162535619Y-100781952D01*
X163297523Y-100686714D02*
X163678476Y-100686714D01*
X163440380Y-100353380D02*
X163440380Y-101210523D01*
X163488000Y-101305761D01*
X163583238Y-101353380D01*
X163678476Y-101353380D01*
X156297523Y-103003380D02*
X156297523Y-102003380D01*
X156535619Y-102003380D01*
X156678476Y-102051000D01*
X156773714Y-102146238D01*
X156821333Y-102241476D01*
X156868952Y-102431952D01*
X156868952Y-102574809D01*
X156821333Y-102765285D01*
X156773714Y-102860523D01*
X156678476Y-102955761D01*
X156535619Y-103003380D01*
X156297523Y-103003380D01*
X157440380Y-103003380D02*
X157345142Y-102955761D01*
X157297523Y-102908142D01*
X157249904Y-102812904D01*
X157249904Y-102527190D01*
X157297523Y-102431952D01*
X157345142Y-102384333D01*
X157440380Y-102336714D01*
X157583238Y-102336714D01*
X157678476Y-102384333D01*
X157726095Y-102431952D01*
X157773714Y-102527190D01*
X157773714Y-102812904D01*
X157726095Y-102908142D01*
X157678476Y-102955761D01*
X157583238Y-103003380D01*
X157440380Y-103003380D01*
X158107047Y-102336714D02*
X158297523Y-103003380D01*
X158488000Y-102527190D01*
X158678476Y-103003380D01*
X158868952Y-102336714D01*
X159249904Y-102336714D02*
X159249904Y-103003380D01*
X159249904Y-102431952D02*
X159297523Y-102384333D01*
X159392761Y-102336714D01*
X159535619Y-102336714D01*
X159630857Y-102384333D01*
X159678476Y-102479571D01*
X159678476Y-103003380D01*
X155408571Y-82813380D02*
X155408571Y-81813380D01*
X155789523Y-81813380D01*
X155884761Y-81861000D01*
X155932380Y-81908619D01*
X155980000Y-82003857D01*
X155980000Y-82146714D01*
X155932380Y-82241952D01*
X155884761Y-82289571D01*
X155789523Y-82337190D01*
X155408571Y-82337190D01*
X156837142Y-82146714D02*
X156837142Y-82813380D01*
X156408571Y-82146714D02*
X156408571Y-82670523D01*
X156456190Y-82765761D01*
X156551428Y-82813380D01*
X156694285Y-82813380D01*
X156789523Y-82765761D01*
X156837142Y-82718142D01*
X157313333Y-82813380D02*
X157313333Y-82146714D01*
X157313333Y-82241952D02*
X157360952Y-82194333D01*
X157456190Y-82146714D01*
X157599047Y-82146714D01*
X157694285Y-82194333D01*
X157741904Y-82289571D01*
X157741904Y-82813380D01*
X157741904Y-82289571D02*
X157789523Y-82194333D01*
X157884761Y-82146714D01*
X158027619Y-82146714D01*
X158122857Y-82194333D01*
X158170476Y-82289571D01*
X158170476Y-82813380D01*
X158646666Y-82146714D02*
X158646666Y-83146714D01*
X158646666Y-82194333D02*
X158741904Y-82146714D01*
X158932380Y-82146714D01*
X159027619Y-82194333D01*
X159075238Y-82241952D01*
X159122857Y-82337190D01*
X159122857Y-82622904D01*
X159075238Y-82718142D01*
X159027619Y-82765761D01*
X158932380Y-82813380D01*
X158741904Y-82813380D01*
X158646666Y-82765761D01*
X159551428Y-82718142D02*
X159599047Y-82765761D01*
X159551428Y-82813380D01*
X159503809Y-82765761D01*
X159551428Y-82718142D01*
X159551428Y-82813380D01*
X159551428Y-82194333D02*
X159599047Y-82241952D01*
X159551428Y-82289571D01*
X159503809Y-82241952D01*
X159551428Y-82194333D01*
X159551428Y-82289571D01*
X157765714Y-84463380D02*
X157194285Y-84463380D01*
X157480000Y-84463380D02*
X157480000Y-83463380D01*
X157384761Y-83606238D01*
X157289523Y-83701476D01*
X157194285Y-83749095D01*
X154718095Y-85208619D02*
X154765714Y-85161000D01*
X154860952Y-85113380D01*
X155099047Y-85113380D01*
X155194285Y-85161000D01*
X155241904Y-85208619D01*
X155289523Y-85303857D01*
X155289523Y-85399095D01*
X155241904Y-85541952D01*
X154670476Y-86113380D01*
X155289523Y-86113380D01*
X157146666Y-85113380D02*
X157765714Y-85113380D01*
X157432380Y-85494333D01*
X157575238Y-85494333D01*
X157670476Y-85541952D01*
X157718095Y-85589571D01*
X157765714Y-85684809D01*
X157765714Y-85922904D01*
X157718095Y-86018142D01*
X157670476Y-86065761D01*
X157575238Y-86113380D01*
X157289523Y-86113380D01*
X157194285Y-86065761D01*
X157146666Y-86018142D01*
X160146666Y-85446714D02*
X160146666Y-86113380D01*
X159908571Y-85065761D02*
X159670476Y-85780047D01*
X160289523Y-85780047D01*
X157718095Y-86763380D02*
X157241904Y-86763380D01*
X157194285Y-87239571D01*
X157241904Y-87191952D01*
X157337142Y-87144333D01*
X157575238Y-87144333D01*
X157670476Y-87191952D01*
X157718095Y-87239571D01*
X157765714Y-87334809D01*
X157765714Y-87572904D01*
X157718095Y-87668142D01*
X157670476Y-87715761D01*
X157575238Y-87763380D01*
X157337142Y-87763380D01*
X157241904Y-87715761D01*
X157194285Y-87668142D01*
X136429904Y-64968380D02*
X136096571Y-64492190D01*
X135858476Y-64968380D02*
X135858476Y-63968380D01*
X136239428Y-63968380D01*
X136334666Y-64016000D01*
X136382285Y-64063619D01*
X136429904Y-64158857D01*
X136429904Y-64301714D01*
X136382285Y-64396952D01*
X136334666Y-64444571D01*
X136239428Y-64492190D01*
X135858476Y-64492190D01*
X137239428Y-64920761D02*
X137144190Y-64968380D01*
X136953714Y-64968380D01*
X136858476Y-64920761D01*
X136810857Y-64825523D01*
X136810857Y-64444571D01*
X136858476Y-64349333D01*
X136953714Y-64301714D01*
X137144190Y-64301714D01*
X137239428Y-64349333D01*
X137287047Y-64444571D01*
X137287047Y-64539809D01*
X136810857Y-64635047D01*
X137668000Y-64920761D02*
X137763238Y-64968380D01*
X137953714Y-64968380D01*
X138048952Y-64920761D01*
X138096571Y-64825523D01*
X138096571Y-64777904D01*
X138048952Y-64682666D01*
X137953714Y-64635047D01*
X137810857Y-64635047D01*
X137715619Y-64587428D01*
X137668000Y-64492190D01*
X137668000Y-64444571D01*
X137715619Y-64349333D01*
X137810857Y-64301714D01*
X137953714Y-64301714D01*
X138048952Y-64349333D01*
X138906095Y-64920761D02*
X138810857Y-64968380D01*
X138620380Y-64968380D01*
X138525142Y-64920761D01*
X138477523Y-64825523D01*
X138477523Y-64444571D01*
X138525142Y-64349333D01*
X138620380Y-64301714D01*
X138810857Y-64301714D01*
X138906095Y-64349333D01*
X138953714Y-64444571D01*
X138953714Y-64539809D01*
X138477523Y-64635047D01*
X139239428Y-64301714D02*
X139620380Y-64301714D01*
X139382285Y-63968380D02*
X139382285Y-64825523D01*
X139429904Y-64920761D01*
X139525142Y-64968380D01*
X139620380Y-64968380D01*
X131413714Y-102576380D02*
X131223238Y-102576380D01*
X131128000Y-102624000D01*
X131080380Y-102671619D01*
X130985142Y-102814476D01*
X130937523Y-103004952D01*
X130937523Y-103385904D01*
X130985142Y-103481142D01*
X131032761Y-103528761D01*
X131128000Y-103576380D01*
X131318476Y-103576380D01*
X131413714Y-103528761D01*
X131461333Y-103481142D01*
X131508952Y-103385904D01*
X131508952Y-103147809D01*
X131461333Y-103052571D01*
X131413714Y-103004952D01*
X131318476Y-102957333D01*
X131128000Y-102957333D01*
X131032761Y-103004952D01*
X130985142Y-103052571D01*
X130937523Y-103147809D01*
X132651809Y-102528761D02*
X131794666Y-103814476D01*
X132937523Y-102671619D02*
X132985142Y-102624000D01*
X133080380Y-102576380D01*
X133318476Y-102576380D01*
X133413714Y-102624000D01*
X133461333Y-102671619D01*
X133508952Y-102766857D01*
X133508952Y-102862095D01*
X133461333Y-103004952D01*
X132889904Y-103576380D01*
X133508952Y-103576380D01*
X133842285Y-102576380D02*
X134508952Y-102576380D01*
X134080380Y-103576380D01*
X135604190Y-102528761D02*
X134747047Y-103814476D01*
X135889904Y-102671619D02*
X135937523Y-102624000D01*
X136032761Y-102576380D01*
X136270857Y-102576380D01*
X136366095Y-102624000D01*
X136413714Y-102671619D01*
X136461333Y-102766857D01*
X136461333Y-102862095D01*
X136413714Y-103004952D01*
X135842285Y-103576380D01*
X136461333Y-103576380D01*
X137080380Y-102576380D02*
X137175619Y-102576380D01*
X137270857Y-102624000D01*
X137318476Y-102671619D01*
X137366095Y-102766857D01*
X137413714Y-102957333D01*
X137413714Y-103195428D01*
X137366095Y-103385904D01*
X137318476Y-103481142D01*
X137270857Y-103528761D01*
X137175619Y-103576380D01*
X137080380Y-103576380D01*
X136985142Y-103528761D01*
X136937523Y-103481142D01*
X136889904Y-103385904D01*
X136842285Y-103195428D01*
X136842285Y-102957333D01*
X136889904Y-102766857D01*
X136937523Y-102671619D01*
X136985142Y-102624000D01*
X137080380Y-102576380D01*
X137794666Y-102671619D02*
X137842285Y-102624000D01*
X137937523Y-102576380D01*
X138175619Y-102576380D01*
X138270857Y-102624000D01*
X138318476Y-102671619D01*
X138366095Y-102766857D01*
X138366095Y-102862095D01*
X138318476Y-103004952D01*
X137747047Y-103576380D01*
X138366095Y-103576380D01*
X138985142Y-102576380D02*
X139080380Y-102576380D01*
X139175619Y-102624000D01*
X139223238Y-102671619D01*
X139270857Y-102766857D01*
X139318476Y-102957333D01*
X139318476Y-103195428D01*
X139270857Y-103385904D01*
X139223238Y-103481142D01*
X139175619Y-103528761D01*
X139080380Y-103576380D01*
X138985142Y-103576380D01*
X138889904Y-103528761D01*
X138842285Y-103481142D01*
X138794666Y-103385904D01*
X138747047Y-103195428D01*
X138747047Y-102957333D01*
X138794666Y-102766857D01*
X138842285Y-102671619D01*
X138889904Y-102624000D01*
X138985142Y-102576380D01*
X129334285Y-101496761D02*
X129477142Y-101544380D01*
X129715238Y-101544380D01*
X129810476Y-101496761D01*
X129858095Y-101449142D01*
X129905714Y-101353904D01*
X129905714Y-101258666D01*
X129858095Y-101163428D01*
X129810476Y-101115809D01*
X129715238Y-101068190D01*
X129524761Y-101020571D01*
X129429523Y-100972952D01*
X129381904Y-100925333D01*
X129334285Y-100830095D01*
X129334285Y-100734857D01*
X129381904Y-100639619D01*
X129429523Y-100592000D01*
X129524761Y-100544380D01*
X129762857Y-100544380D01*
X129905714Y-100592000D01*
X130334285Y-100877714D02*
X130334285Y-101544380D01*
X130334285Y-100972952D02*
X130381904Y-100925333D01*
X130477142Y-100877714D01*
X130620000Y-100877714D01*
X130715238Y-100925333D01*
X130762857Y-101020571D01*
X130762857Y-101544380D01*
X131667619Y-101544380D02*
X131667619Y-101020571D01*
X131620000Y-100925333D01*
X131524761Y-100877714D01*
X131334285Y-100877714D01*
X131239047Y-100925333D01*
X131667619Y-101496761D02*
X131572380Y-101544380D01*
X131334285Y-101544380D01*
X131239047Y-101496761D01*
X131191428Y-101401523D01*
X131191428Y-101306285D01*
X131239047Y-101211047D01*
X131334285Y-101163428D01*
X131572380Y-101163428D01*
X131667619Y-101115809D01*
X132143809Y-101544380D02*
X132143809Y-100877714D01*
X132143809Y-100544380D02*
X132096190Y-100592000D01*
X132143809Y-100639619D01*
X132191428Y-100592000D01*
X132143809Y-100544380D01*
X132143809Y-100639619D01*
X132762857Y-101544380D02*
X132667619Y-101496761D01*
X132620000Y-101401523D01*
X132620000Y-100544380D01*
X133096190Y-101496761D02*
X133239047Y-101544380D01*
X133477142Y-101544380D01*
X133572380Y-101496761D01*
X133620000Y-101449142D01*
X133667619Y-101353904D01*
X133667619Y-101258666D01*
X133620000Y-101163428D01*
X133572380Y-101115809D01*
X133477142Y-101068190D01*
X133286666Y-101020571D01*
X133191428Y-100972952D01*
X133143809Y-100925333D01*
X133096190Y-100830095D01*
X133096190Y-100734857D01*
X133143809Y-100639619D01*
X133191428Y-100592000D01*
X133286666Y-100544380D01*
X133524761Y-100544380D01*
X133667619Y-100592000D01*
X133953333Y-100877714D02*
X134334285Y-100877714D01*
X134096190Y-100544380D02*
X134096190Y-101401523D01*
X134143809Y-101496761D01*
X134239047Y-101544380D01*
X134334285Y-101544380D01*
X135048571Y-101496761D02*
X134953333Y-101544380D01*
X134762857Y-101544380D01*
X134667619Y-101496761D01*
X134620000Y-101401523D01*
X134620000Y-101020571D01*
X134667619Y-100925333D01*
X134762857Y-100877714D01*
X134953333Y-100877714D01*
X135048571Y-100925333D01*
X135096190Y-101020571D01*
X135096190Y-101115809D01*
X134620000Y-101211047D01*
X135524761Y-100877714D02*
X135524761Y-101877714D01*
X135524761Y-100925333D02*
X135620000Y-100877714D01*
X135810476Y-100877714D01*
X135905714Y-100925333D01*
X135953333Y-100972952D01*
X136000952Y-101068190D01*
X136000952Y-101353904D01*
X135953333Y-101449142D01*
X135905714Y-101496761D01*
X135810476Y-101544380D01*
X135620000Y-101544380D01*
X135524761Y-101496761D01*
X137096190Y-100877714D02*
X137334285Y-101544380D01*
X137572380Y-100877714D01*
X138477142Y-101544380D02*
X137905714Y-101544380D01*
X138191428Y-101544380D02*
X138191428Y-100544380D01*
X138096190Y-100687238D01*
X138000952Y-100782476D01*
X137905714Y-100830095D01*
X138905714Y-101449142D02*
X138953333Y-101496761D01*
X138905714Y-101544380D01*
X138858095Y-101496761D01*
X138905714Y-101449142D01*
X138905714Y-101544380D01*
X139905714Y-101544380D02*
X139334285Y-101544380D01*
X139620000Y-101544380D02*
X139620000Y-100544380D01*
X139524761Y-100687238D01*
X139429523Y-100782476D01*
X139334285Y-100830095D01*
D12*
%TO.C,D5*%
X153952713Y-115080961D02*
G75*
G02*
X150586670Y-115080000I-1682713J1080961D01*
G01*
X153952713Y-112919039D02*
G75*
G03*
X150586670Y-112920000I-1682713J-1080961D01*
G01*
X154513242Y-115080724D02*
G75*
G02*
X150210000Y-115398749I-2243242J1080724D01*
G01*
X154513242Y-112919276D02*
G75*
G03*
X150210000Y-112601251I-2243242J-1080724D01*
G01*
X150210000Y-115080000D02*
X150210000Y-115399000D01*
X150210000Y-112601000D02*
X150210000Y-112920000D01*
%TO.C,D4*%
X159952713Y-115080961D02*
G75*
G02*
X156586670Y-115080000I-1682713J1080961D01*
G01*
X159952713Y-112919039D02*
G75*
G03*
X156586670Y-112920000I-1682713J-1080961D01*
G01*
X160513242Y-115080724D02*
G75*
G02*
X156210000Y-115398749I-2243242J1080724D01*
G01*
X160513242Y-112919276D02*
G75*
G03*
X156210000Y-112601251I-2243242J-1080724D01*
G01*
X156210000Y-115080000D02*
X156210000Y-115399000D01*
X156210000Y-112601000D02*
X156210000Y-112920000D01*
%TO.C,D3*%
X153952713Y-109080961D02*
G75*
G02*
X150586670Y-109080000I-1682713J1080961D01*
G01*
X153952713Y-106919039D02*
G75*
G03*
X150586670Y-106920000I-1682713J-1080961D01*
G01*
X154513242Y-109080724D02*
G75*
G02*
X150210000Y-109398749I-2243242J1080724D01*
G01*
X154513242Y-106919276D02*
G75*
G03*
X150210000Y-106601251I-2243242J-1080724D01*
G01*
X150210000Y-109080000D02*
X150210000Y-109399000D01*
X150210000Y-106601000D02*
X150210000Y-106920000D01*
%TO.C,D1*%
X147952713Y-115080961D02*
G75*
G02*
X144586670Y-115080000I-1682713J1080961D01*
G01*
X147952713Y-112919039D02*
G75*
G03*
X144586670Y-112920000I-1682713J-1080961D01*
G01*
X148513242Y-115080724D02*
G75*
G02*
X144210000Y-115398749I-2243242J1080724D01*
G01*
X148513242Y-112919276D02*
G75*
G03*
X144210000Y-112601251I-2243242J-1080724D01*
G01*
X144210000Y-115080000D02*
X144210000Y-115399000D01*
X144210000Y-112601000D02*
X144210000Y-112920000D01*
%TO.C,D2*%
X153952713Y-121080961D02*
G75*
G02*
X150586670Y-121080000I-1682713J1080961D01*
G01*
X153952713Y-118919039D02*
G75*
G03*
X150586670Y-118920000I-1682713J-1080961D01*
G01*
X154513242Y-121080724D02*
G75*
G02*
X150210000Y-121398749I-2243242J1080724D01*
G01*
X154513242Y-118919276D02*
G75*
G03*
X150210000Y-118601251I-2243242J-1080724D01*
G01*
X150210000Y-121080000D02*
X150210000Y-121399000D01*
X150210000Y-118601000D02*
X150210000Y-118920000D01*
D13*
%TO.C,VR1*%
X150435000Y-76015000D02*
G75*
G03*
X150635000Y-76015000I100000J0D01*
G01*
X150635000Y-76015000D02*
G75*
G03*
X150435000Y-76015000I-100000J0D01*
G01*
D11*
X148185000Y-65315000D02*
X148185000Y-62315000D01*
X148185000Y-62315000D02*
X157885000Y-62315000D01*
X157885000Y-62315000D02*
X157885000Y-65315000D01*
X148185000Y-70315000D02*
X148185000Y-74815000D01*
X148185000Y-74815000D02*
X149035000Y-74815000D01*
X157035000Y-74815000D02*
X157885000Y-74815000D01*
X157885000Y-74815000D02*
X157885000Y-70315000D01*
D13*
X150435000Y-76015000D02*
X150435000Y-76015000D01*
X150635000Y-76015000D02*
X150635000Y-76015000D01*
%TO.C,S4*%
X161705000Y-95065000D02*
G75*
G02*
X161705000Y-95265000I0J-100000D01*
G01*
X161705000Y-95265000D02*
G75*
G02*
X161705000Y-95065000I0J100000D01*
G01*
X161705000Y-95065000D02*
X161705000Y-95065000D01*
X161705000Y-95265000D02*
X161705000Y-95265000D01*
D11*
X155405000Y-89370000D02*
X159405000Y-89370000D01*
X155405000Y-95360000D02*
X159405000Y-95365000D01*
X154410000Y-91365000D02*
X154405000Y-93365000D01*
X160400000Y-91365000D02*
X160400000Y-93365000D01*
D13*
%TO.C,JPadConenctorHeader1*%
X159385000Y-127445000D02*
X111885000Y-127445000D01*
X111885000Y-127445000D02*
X111885000Y-136445000D01*
X111885000Y-136445000D02*
X161885000Y-136445000D01*
X161885000Y-136445000D02*
X161885000Y-131445000D01*
D10*
%TO.C,U1*%
X113665000Y-65405000D02*
X113665000Y-95885000D01*
X113665000Y-65405000D02*
X118745000Y-65405000D01*
X118745000Y-65405000D02*
X118745000Y-62865000D01*
X118745000Y-62865000D02*
X126365000Y-62865000D01*
X126365000Y-62865000D02*
X126365000Y-65405000D01*
X126365000Y-65405000D02*
X131445000Y-65405000D01*
X131445000Y-65405000D02*
X131445000Y-95885000D01*
X131445000Y-95885000D02*
X113665000Y-95885000D01*
D13*
%TO.C,SR1*%
X142655000Y-72205000D02*
G75*
G02*
X142655000Y-72405000I0J-100000D01*
G01*
X142655000Y-72405000D02*
G75*
G02*
X142655000Y-72205000I0J100000D01*
G01*
X142655000Y-72205000D02*
X142655000Y-72205000D01*
X142655000Y-72405000D02*
X142655000Y-72405000D01*
D11*
X136355000Y-66510000D02*
X140355000Y-66510000D01*
X136355000Y-72500000D02*
X140355000Y-72505000D01*
X135360000Y-68505000D02*
X135355000Y-70505000D01*
X141350000Y-68505000D02*
X141350000Y-70505000D01*
D13*
%TO.C,S5*%
X151545000Y-95065000D02*
G75*
G02*
X151545000Y-95265000I0J-100000D01*
G01*
X151545000Y-95265000D02*
G75*
G02*
X151545000Y-95065000I0J100000D01*
G01*
X151545000Y-95065000D02*
X151545000Y-95065000D01*
X151545000Y-95265000D02*
X151545000Y-95265000D01*
D11*
X145245000Y-89370000D02*
X149245000Y-89370000D01*
X145245000Y-95360000D02*
X149245000Y-95365000D01*
X144250000Y-91365000D02*
X144245000Y-93365000D01*
X150240000Y-91365000D02*
X150240000Y-93365000D01*
D13*
%TO.C,S3*%
X151545000Y-102685000D02*
G75*
G02*
X151545000Y-102885000I0J-100000D01*
G01*
X151545000Y-102885000D02*
G75*
G02*
X151545000Y-102685000I0J100000D01*
G01*
X151545000Y-102685000D02*
X151545000Y-102685000D01*
X151545000Y-102885000D02*
X151545000Y-102885000D01*
D11*
X145245000Y-96990000D02*
X149245000Y-96990000D01*
X145245000Y-102980000D02*
X149245000Y-102985000D01*
X144250000Y-98985000D02*
X144245000Y-100985000D01*
X150240000Y-98985000D02*
X150240000Y-100985000D01*
D13*
%TO.C,S2*%
X151545000Y-87445000D02*
G75*
G02*
X151545000Y-87645000I0J-100000D01*
G01*
X151545000Y-87645000D02*
G75*
G02*
X151545000Y-87445000I0J100000D01*
G01*
X151545000Y-87445000D02*
X151545000Y-87445000D01*
X151545000Y-87645000D02*
X151545000Y-87645000D01*
D11*
X145245000Y-81750000D02*
X149245000Y-81750000D01*
X145245000Y-87740000D02*
X149245000Y-87745000D01*
X144250000Y-83745000D02*
X144245000Y-85745000D01*
X150240000Y-83745000D02*
X150240000Y-85745000D01*
D13*
%TO.C,S1*%
X141385000Y-95065000D02*
G75*
G02*
X141385000Y-95265000I0J-100000D01*
G01*
X141385000Y-95265000D02*
G75*
G02*
X141385000Y-95065000I0J100000D01*
G01*
X141385000Y-95065000D02*
X141385000Y-95065000D01*
X141385000Y-95265000D02*
X141385000Y-95265000D01*
D11*
X135085000Y-89370000D02*
X139085000Y-89370000D01*
X135085000Y-95360000D02*
X139085000Y-95365000D01*
X134090000Y-91365000D02*
X134085000Y-93365000D01*
X140080000Y-91365000D02*
X140080000Y-93365000D01*
D12*
%TO.C,R5-220ohm1*%
X124555000Y-123595000D02*
X124555000Y-123925000D01*
X124555000Y-123925000D02*
X118015000Y-123925000D01*
X118015000Y-123925000D02*
X118015000Y-123595000D01*
X124555000Y-121515000D02*
X124555000Y-121185000D01*
X124555000Y-121185000D02*
X118015000Y-121185000D01*
X118015000Y-121185000D02*
X118015000Y-121515000D01*
%TO.C,R4-220ohm1*%
X124555000Y-118515000D02*
X124555000Y-118845000D01*
X124555000Y-118845000D02*
X118015000Y-118845000D01*
X118015000Y-118845000D02*
X118015000Y-118515000D01*
X124555000Y-116435000D02*
X124555000Y-116105000D01*
X124555000Y-116105000D02*
X118015000Y-116105000D01*
X118015000Y-116105000D02*
X118015000Y-116435000D01*
%TO.C,R3-220ohm1*%
X124555000Y-113435000D02*
X124555000Y-113765000D01*
X124555000Y-113765000D02*
X118015000Y-113765000D01*
X118015000Y-113765000D02*
X118015000Y-113435000D01*
X124555000Y-111355000D02*
X124555000Y-111025000D01*
X124555000Y-111025000D02*
X118015000Y-111025000D01*
X118015000Y-111025000D02*
X118015000Y-111355000D01*
%TO.C,R2-220ohm1*%
X124555000Y-108355000D02*
X124555000Y-108685000D01*
X124555000Y-108685000D02*
X118015000Y-108685000D01*
X118015000Y-108685000D02*
X118015000Y-108355000D01*
X124555000Y-106275000D02*
X124555000Y-105945000D01*
X124555000Y-105945000D02*
X118015000Y-105945000D01*
X118015000Y-105945000D02*
X118015000Y-106275000D01*
%TO.C,R1-220ohm1*%
X124555000Y-103275000D02*
X124555000Y-103605000D01*
X124555000Y-103605000D02*
X118015000Y-103605000D01*
X118015000Y-103605000D02*
X118015000Y-103275000D01*
X124555000Y-101195000D02*
X124555000Y-100865000D01*
X124555000Y-100865000D02*
X118015000Y-100865000D01*
X118015000Y-100865000D02*
X118015000Y-101195000D01*
%TO.C,D5*%
D10*
X151531904Y-110992380D02*
X151531904Y-109992380D01*
X151770000Y-109992380D01*
X151912857Y-110040000D01*
X152008095Y-110135238D01*
X152055714Y-110230476D01*
X152103333Y-110420952D01*
X152103333Y-110563809D01*
X152055714Y-110754285D01*
X152008095Y-110849523D01*
X151912857Y-110944761D01*
X151770000Y-110992380D01*
X151531904Y-110992380D01*
X153008095Y-109992380D02*
X152531904Y-109992380D01*
X152484285Y-110468571D01*
X152531904Y-110420952D01*
X152627142Y-110373333D01*
X152865238Y-110373333D01*
X152960476Y-110420952D01*
X153008095Y-110468571D01*
X153055714Y-110563809D01*
X153055714Y-110801904D01*
X153008095Y-110897142D01*
X152960476Y-110944761D01*
X152865238Y-110992380D01*
X152627142Y-110992380D01*
X152531904Y-110944761D01*
X152484285Y-110897142D01*
%TO.C,D4*%
X157531904Y-110992380D02*
X157531904Y-109992380D01*
X157770000Y-109992380D01*
X157912857Y-110040000D01*
X158008095Y-110135238D01*
X158055714Y-110230476D01*
X158103333Y-110420952D01*
X158103333Y-110563809D01*
X158055714Y-110754285D01*
X158008095Y-110849523D01*
X157912857Y-110944761D01*
X157770000Y-110992380D01*
X157531904Y-110992380D01*
X158960476Y-110325714D02*
X158960476Y-110992380D01*
X158722380Y-109944761D02*
X158484285Y-110659047D01*
X159103333Y-110659047D01*
%TO.C,D3*%
X151531904Y-104992380D02*
X151531904Y-103992380D01*
X151770000Y-103992380D01*
X151912857Y-104040000D01*
X152008095Y-104135238D01*
X152055714Y-104230476D01*
X152103333Y-104420952D01*
X152103333Y-104563809D01*
X152055714Y-104754285D01*
X152008095Y-104849523D01*
X151912857Y-104944761D01*
X151770000Y-104992380D01*
X151531904Y-104992380D01*
X152436666Y-103992380D02*
X153055714Y-103992380D01*
X152722380Y-104373333D01*
X152865238Y-104373333D01*
X152960476Y-104420952D01*
X153008095Y-104468571D01*
X153055714Y-104563809D01*
X153055714Y-104801904D01*
X153008095Y-104897142D01*
X152960476Y-104944761D01*
X152865238Y-104992380D01*
X152579523Y-104992380D01*
X152484285Y-104944761D01*
X152436666Y-104897142D01*
%TO.C,D1*%
X145531904Y-110992380D02*
X145531904Y-109992380D01*
X145770000Y-109992380D01*
X145912857Y-110040000D01*
X146008095Y-110135238D01*
X146055714Y-110230476D01*
X146103333Y-110420952D01*
X146103333Y-110563809D01*
X146055714Y-110754285D01*
X146008095Y-110849523D01*
X145912857Y-110944761D01*
X145770000Y-110992380D01*
X145531904Y-110992380D01*
X147055714Y-110992380D02*
X146484285Y-110992380D01*
X146770000Y-110992380D02*
X146770000Y-109992380D01*
X146674761Y-110135238D01*
X146579523Y-110230476D01*
X146484285Y-110278095D01*
%TO.C,D2*%
X151531904Y-116992380D02*
X151531904Y-115992380D01*
X151770000Y-115992380D01*
X151912857Y-116040000D01*
X152008095Y-116135238D01*
X152055714Y-116230476D01*
X152103333Y-116420952D01*
X152103333Y-116563809D01*
X152055714Y-116754285D01*
X152008095Y-116849523D01*
X151912857Y-116944761D01*
X151770000Y-116992380D01*
X151531904Y-116992380D01*
X152484285Y-116087619D02*
X152531904Y-116040000D01*
X152627142Y-115992380D01*
X152865238Y-115992380D01*
X152960476Y-116040000D01*
X153008095Y-116087619D01*
X153055714Y-116182857D01*
X153055714Y-116278095D01*
X153008095Y-116420952D01*
X152436666Y-116992380D01*
X153055714Y-116992380D01*
%TO.C,VR1*%
D14*
X151371904Y-68519523D02*
X151795238Y-69789523D01*
X152218571Y-68519523D01*
X153367619Y-69789523D02*
X152944285Y-69184761D01*
X152641904Y-69789523D02*
X152641904Y-68519523D01*
X153125714Y-68519523D01*
X153246666Y-68580000D01*
X153307142Y-68640476D01*
X153367619Y-68761428D01*
X153367619Y-68942857D01*
X153307142Y-69063809D01*
X153246666Y-69124285D01*
X153125714Y-69184761D01*
X152641904Y-69184761D01*
X154577142Y-69789523D02*
X153851428Y-69789523D01*
X154214285Y-69789523D02*
X154214285Y-68519523D01*
X154093333Y-68700952D01*
X153972380Y-68821904D01*
X153851428Y-68882380D01*
%TO.C,S4*%
X156627380Y-92879047D02*
X156808809Y-92939523D01*
X157111190Y-92939523D01*
X157232142Y-92879047D01*
X157292619Y-92818571D01*
X157353095Y-92697619D01*
X157353095Y-92576666D01*
X157292619Y-92455714D01*
X157232142Y-92395238D01*
X157111190Y-92334761D01*
X156869285Y-92274285D01*
X156748333Y-92213809D01*
X156687857Y-92153333D01*
X156627380Y-92032380D01*
X156627380Y-91911428D01*
X156687857Y-91790476D01*
X156748333Y-91730000D01*
X156869285Y-91669523D01*
X157171666Y-91669523D01*
X157353095Y-91730000D01*
X158441666Y-92092857D02*
X158441666Y-92939523D01*
X158139285Y-91609047D02*
X157836904Y-92516190D01*
X158623095Y-92516190D01*
%TO.C,JPadConenctorHeader1*%
X149104047Y-130749523D02*
X149104047Y-131656666D01*
X149043571Y-131838095D01*
X148922619Y-131959047D01*
X148741190Y-132019523D01*
X148620238Y-132019523D01*
X149708809Y-132019523D02*
X149708809Y-130749523D01*
X150192619Y-130749523D01*
X150313571Y-130810000D01*
X150374047Y-130870476D01*
X150434523Y-130991428D01*
X150434523Y-131172857D01*
X150374047Y-131293809D01*
X150313571Y-131354285D01*
X150192619Y-131414761D01*
X149708809Y-131414761D01*
X151523095Y-132019523D02*
X151523095Y-131354285D01*
X151462619Y-131233333D01*
X151341666Y-131172857D01*
X151099761Y-131172857D01*
X150978809Y-131233333D01*
X151523095Y-131959047D02*
X151402142Y-132019523D01*
X151099761Y-132019523D01*
X150978809Y-131959047D01*
X150918333Y-131838095D01*
X150918333Y-131717142D01*
X150978809Y-131596190D01*
X151099761Y-131535714D01*
X151402142Y-131535714D01*
X151523095Y-131475238D01*
X152672142Y-132019523D02*
X152672142Y-130749523D01*
X152672142Y-131959047D02*
X152551190Y-132019523D01*
X152309285Y-132019523D01*
X152188333Y-131959047D01*
X152127857Y-131898571D01*
X152067380Y-131777619D01*
X152067380Y-131414761D01*
X152127857Y-131293809D01*
X152188333Y-131233333D01*
X152309285Y-131172857D01*
X152551190Y-131172857D01*
X152672142Y-131233333D01*
X154002619Y-131898571D02*
X153942142Y-131959047D01*
X153760714Y-132019523D01*
X153639761Y-132019523D01*
X153458333Y-131959047D01*
X153337380Y-131838095D01*
X153276904Y-131717142D01*
X153216428Y-131475238D01*
X153216428Y-131293809D01*
X153276904Y-131051904D01*
X153337380Y-130930952D01*
X153458333Y-130810000D01*
X153639761Y-130749523D01*
X153760714Y-130749523D01*
X153942142Y-130810000D01*
X154002619Y-130870476D01*
X154728333Y-132019523D02*
X154607380Y-131959047D01*
X154546904Y-131898571D01*
X154486428Y-131777619D01*
X154486428Y-131414761D01*
X154546904Y-131293809D01*
X154607380Y-131233333D01*
X154728333Y-131172857D01*
X154909761Y-131172857D01*
X155030714Y-131233333D01*
X155091190Y-131293809D01*
X155151666Y-131414761D01*
X155151666Y-131777619D01*
X155091190Y-131898571D01*
X155030714Y-131959047D01*
X154909761Y-132019523D01*
X154728333Y-132019523D01*
X155695952Y-131172857D02*
X155695952Y-132019523D01*
X155695952Y-131293809D02*
X155756428Y-131233333D01*
X155877380Y-131172857D01*
X156058809Y-131172857D01*
X156179761Y-131233333D01*
X156240238Y-131354285D01*
X156240238Y-132019523D01*
X157328809Y-131959047D02*
X157207857Y-132019523D01*
X156965952Y-132019523D01*
X156845000Y-131959047D01*
X156784523Y-131838095D01*
X156784523Y-131354285D01*
X156845000Y-131233333D01*
X156965952Y-131172857D01*
X157207857Y-131172857D01*
X157328809Y-131233333D01*
X157389285Y-131354285D01*
X157389285Y-131475238D01*
X156784523Y-131596190D01*
X157933571Y-131172857D02*
X157933571Y-132019523D01*
X157933571Y-131293809D02*
X157994047Y-131233333D01*
X158115000Y-131172857D01*
X158296428Y-131172857D01*
X158417380Y-131233333D01*
X158477857Y-131354285D01*
X158477857Y-132019523D01*
X159626904Y-131959047D02*
X159505952Y-132019523D01*
X159264047Y-132019523D01*
X159143095Y-131959047D01*
X159082619Y-131898571D01*
X159022142Y-131777619D01*
X159022142Y-131414761D01*
X159082619Y-131293809D01*
X159143095Y-131233333D01*
X159264047Y-131172857D01*
X159505952Y-131172857D01*
X159626904Y-131233333D01*
X159989761Y-131172857D02*
X160473571Y-131172857D01*
X160171190Y-130749523D02*
X160171190Y-131838095D01*
X160231666Y-131959047D01*
X160352619Y-132019523D01*
X160473571Y-132019523D01*
X161078333Y-132019523D02*
X160957380Y-131959047D01*
X160896904Y-131898571D01*
X160836428Y-131777619D01*
X160836428Y-131414761D01*
X160896904Y-131293809D01*
X160957380Y-131233333D01*
X161078333Y-131172857D01*
X161259761Y-131172857D01*
X161380714Y-131233333D01*
X161441190Y-131293809D01*
X161501666Y-131414761D01*
X161501666Y-131777619D01*
X161441190Y-131898571D01*
X161380714Y-131959047D01*
X161259761Y-132019523D01*
X161078333Y-132019523D01*
X162045952Y-132019523D02*
X162045952Y-131172857D01*
X162045952Y-131414761D02*
X162106428Y-131293809D01*
X162166904Y-131233333D01*
X162287857Y-131172857D01*
X162408809Y-131172857D01*
X162832142Y-132019523D02*
X162832142Y-130749523D01*
X162832142Y-131354285D02*
X163557857Y-131354285D01*
X163557857Y-132019523D02*
X163557857Y-130749523D01*
X164646428Y-131959047D02*
X164525476Y-132019523D01*
X164283571Y-132019523D01*
X164162619Y-131959047D01*
X164102142Y-131838095D01*
X164102142Y-131354285D01*
X164162619Y-131233333D01*
X164283571Y-131172857D01*
X164525476Y-131172857D01*
X164646428Y-131233333D01*
X164706904Y-131354285D01*
X164706904Y-131475238D01*
X164102142Y-131596190D01*
X165795476Y-132019523D02*
X165795476Y-131354285D01*
X165735000Y-131233333D01*
X165614047Y-131172857D01*
X165372142Y-131172857D01*
X165251190Y-131233333D01*
X165795476Y-131959047D02*
X165674523Y-132019523D01*
X165372142Y-132019523D01*
X165251190Y-131959047D01*
X165190714Y-131838095D01*
X165190714Y-131717142D01*
X165251190Y-131596190D01*
X165372142Y-131535714D01*
X165674523Y-131535714D01*
X165795476Y-131475238D01*
X166944523Y-132019523D02*
X166944523Y-130749523D01*
X166944523Y-131959047D02*
X166823571Y-132019523D01*
X166581666Y-132019523D01*
X166460714Y-131959047D01*
X166400238Y-131898571D01*
X166339761Y-131777619D01*
X166339761Y-131414761D01*
X166400238Y-131293809D01*
X166460714Y-131233333D01*
X166581666Y-131172857D01*
X166823571Y-131172857D01*
X166944523Y-131233333D01*
X168033095Y-131959047D02*
X167912142Y-132019523D01*
X167670238Y-132019523D01*
X167549285Y-131959047D01*
X167488809Y-131838095D01*
X167488809Y-131354285D01*
X167549285Y-131233333D01*
X167670238Y-131172857D01*
X167912142Y-131172857D01*
X168033095Y-131233333D01*
X168093571Y-131354285D01*
X168093571Y-131475238D01*
X167488809Y-131596190D01*
X168637857Y-132019523D02*
X168637857Y-131172857D01*
X168637857Y-131414761D02*
X168698333Y-131293809D01*
X168758809Y-131233333D01*
X168879761Y-131172857D01*
X169000714Y-131172857D01*
X170089285Y-132019523D02*
X169363571Y-132019523D01*
X169726428Y-132019523D02*
X169726428Y-130749523D01*
X169605476Y-130930952D01*
X169484523Y-131051904D01*
X169363571Y-131112380D01*
%TO.C,SR1*%
X136942380Y-70019047D02*
X137123809Y-70079523D01*
X137426190Y-70079523D01*
X137547142Y-70019047D01*
X137607619Y-69958571D01*
X137668095Y-69837619D01*
X137668095Y-69716666D01*
X137607619Y-69595714D01*
X137547142Y-69535238D01*
X137426190Y-69474761D01*
X137184285Y-69414285D01*
X137063333Y-69353809D01*
X137002857Y-69293333D01*
X136942380Y-69172380D01*
X136942380Y-69051428D01*
X137002857Y-68930476D01*
X137063333Y-68870000D01*
X137184285Y-68809523D01*
X137486666Y-68809523D01*
X137668095Y-68870000D01*
X138938095Y-70079523D02*
X138514761Y-69474761D01*
X138212380Y-70079523D02*
X138212380Y-68809523D01*
X138696190Y-68809523D01*
X138817142Y-68870000D01*
X138877619Y-68930476D01*
X138938095Y-69051428D01*
X138938095Y-69232857D01*
X138877619Y-69353809D01*
X138817142Y-69414285D01*
X138696190Y-69474761D01*
X138212380Y-69474761D01*
X140147619Y-70079523D02*
X139421904Y-70079523D01*
X139784761Y-70079523D02*
X139784761Y-68809523D01*
X139663809Y-68990952D01*
X139542857Y-69111904D01*
X139421904Y-69172380D01*
%TO.C,S5*%
X146467380Y-92879047D02*
X146648809Y-92939523D01*
X146951190Y-92939523D01*
X147072142Y-92879047D01*
X147132619Y-92818571D01*
X147193095Y-92697619D01*
X147193095Y-92576666D01*
X147132619Y-92455714D01*
X147072142Y-92395238D01*
X146951190Y-92334761D01*
X146709285Y-92274285D01*
X146588333Y-92213809D01*
X146527857Y-92153333D01*
X146467380Y-92032380D01*
X146467380Y-91911428D01*
X146527857Y-91790476D01*
X146588333Y-91730000D01*
X146709285Y-91669523D01*
X147011666Y-91669523D01*
X147193095Y-91730000D01*
X148342142Y-91669523D02*
X147737380Y-91669523D01*
X147676904Y-92274285D01*
X147737380Y-92213809D01*
X147858333Y-92153333D01*
X148160714Y-92153333D01*
X148281666Y-92213809D01*
X148342142Y-92274285D01*
X148402619Y-92395238D01*
X148402619Y-92697619D01*
X148342142Y-92818571D01*
X148281666Y-92879047D01*
X148160714Y-92939523D01*
X147858333Y-92939523D01*
X147737380Y-92879047D01*
X147676904Y-92818571D01*
%TO.C,S3*%
X146467380Y-100499047D02*
X146648809Y-100559523D01*
X146951190Y-100559523D01*
X147072142Y-100499047D01*
X147132619Y-100438571D01*
X147193095Y-100317619D01*
X147193095Y-100196666D01*
X147132619Y-100075714D01*
X147072142Y-100015238D01*
X146951190Y-99954761D01*
X146709285Y-99894285D01*
X146588333Y-99833809D01*
X146527857Y-99773333D01*
X146467380Y-99652380D01*
X146467380Y-99531428D01*
X146527857Y-99410476D01*
X146588333Y-99350000D01*
X146709285Y-99289523D01*
X147011666Y-99289523D01*
X147193095Y-99350000D01*
X147616428Y-99289523D02*
X148402619Y-99289523D01*
X147979285Y-99773333D01*
X148160714Y-99773333D01*
X148281666Y-99833809D01*
X148342142Y-99894285D01*
X148402619Y-100015238D01*
X148402619Y-100317619D01*
X148342142Y-100438571D01*
X148281666Y-100499047D01*
X148160714Y-100559523D01*
X147797857Y-100559523D01*
X147676904Y-100499047D01*
X147616428Y-100438571D01*
%TO.C,S2*%
X146467380Y-85259047D02*
X146648809Y-85319523D01*
X146951190Y-85319523D01*
X147072142Y-85259047D01*
X147132619Y-85198571D01*
X147193095Y-85077619D01*
X147193095Y-84956666D01*
X147132619Y-84835714D01*
X147072142Y-84775238D01*
X146951190Y-84714761D01*
X146709285Y-84654285D01*
X146588333Y-84593809D01*
X146527857Y-84533333D01*
X146467380Y-84412380D01*
X146467380Y-84291428D01*
X146527857Y-84170476D01*
X146588333Y-84110000D01*
X146709285Y-84049523D01*
X147011666Y-84049523D01*
X147193095Y-84110000D01*
X147676904Y-84170476D02*
X147737380Y-84110000D01*
X147858333Y-84049523D01*
X148160714Y-84049523D01*
X148281666Y-84110000D01*
X148342142Y-84170476D01*
X148402619Y-84291428D01*
X148402619Y-84412380D01*
X148342142Y-84593809D01*
X147616428Y-85319523D01*
X148402619Y-85319523D01*
%TO.C,S1*%
X136307380Y-92879047D02*
X136488809Y-92939523D01*
X136791190Y-92939523D01*
X136912142Y-92879047D01*
X136972619Y-92818571D01*
X137033095Y-92697619D01*
X137033095Y-92576666D01*
X136972619Y-92455714D01*
X136912142Y-92395238D01*
X136791190Y-92334761D01*
X136549285Y-92274285D01*
X136428333Y-92213809D01*
X136367857Y-92153333D01*
X136307380Y-92032380D01*
X136307380Y-91911428D01*
X136367857Y-91790476D01*
X136428333Y-91730000D01*
X136549285Y-91669523D01*
X136851666Y-91669523D01*
X137033095Y-91730000D01*
X138242619Y-92939523D02*
X137516904Y-92939523D01*
X137879761Y-92939523D02*
X137879761Y-91669523D01*
X137758809Y-91850952D01*
X137637857Y-91971904D01*
X137516904Y-92032380D01*
%TO.C,R5-220ohm1*%
D10*
X117023095Y-125377380D02*
X116689761Y-124901190D01*
X116451666Y-125377380D02*
X116451666Y-124377380D01*
X116832619Y-124377380D01*
X116927857Y-124425000D01*
X116975476Y-124472619D01*
X117023095Y-124567857D01*
X117023095Y-124710714D01*
X116975476Y-124805952D01*
X116927857Y-124853571D01*
X116832619Y-124901190D01*
X116451666Y-124901190D01*
X117927857Y-124377380D02*
X117451666Y-124377380D01*
X117404047Y-124853571D01*
X117451666Y-124805952D01*
X117546904Y-124758333D01*
X117785000Y-124758333D01*
X117880238Y-124805952D01*
X117927857Y-124853571D01*
X117975476Y-124948809D01*
X117975476Y-125186904D01*
X117927857Y-125282142D01*
X117880238Y-125329761D01*
X117785000Y-125377380D01*
X117546904Y-125377380D01*
X117451666Y-125329761D01*
X117404047Y-125282142D01*
X118404047Y-124996428D02*
X119165952Y-124996428D01*
X119594523Y-124472619D02*
X119642142Y-124425000D01*
X119737380Y-124377380D01*
X119975476Y-124377380D01*
X120070714Y-124425000D01*
X120118333Y-124472619D01*
X120165952Y-124567857D01*
X120165952Y-124663095D01*
X120118333Y-124805952D01*
X119546904Y-125377380D01*
X120165952Y-125377380D01*
X120546904Y-124472619D02*
X120594523Y-124425000D01*
X120689761Y-124377380D01*
X120927857Y-124377380D01*
X121023095Y-124425000D01*
X121070714Y-124472619D01*
X121118333Y-124567857D01*
X121118333Y-124663095D01*
X121070714Y-124805952D01*
X120499285Y-125377380D01*
X121118333Y-125377380D01*
X121737380Y-124377380D02*
X121832619Y-124377380D01*
X121927857Y-124425000D01*
X121975476Y-124472619D01*
X122023095Y-124567857D01*
X122070714Y-124758333D01*
X122070714Y-124996428D01*
X122023095Y-125186904D01*
X121975476Y-125282142D01*
X121927857Y-125329761D01*
X121832619Y-125377380D01*
X121737380Y-125377380D01*
X121642142Y-125329761D01*
X121594523Y-125282142D01*
X121546904Y-125186904D01*
X121499285Y-124996428D01*
X121499285Y-124758333D01*
X121546904Y-124567857D01*
X121594523Y-124472619D01*
X121642142Y-124425000D01*
X121737380Y-124377380D01*
X122642142Y-125377380D02*
X122546904Y-125329761D01*
X122499285Y-125282142D01*
X122451666Y-125186904D01*
X122451666Y-124901190D01*
X122499285Y-124805952D01*
X122546904Y-124758333D01*
X122642142Y-124710714D01*
X122785000Y-124710714D01*
X122880238Y-124758333D01*
X122927857Y-124805952D01*
X122975476Y-124901190D01*
X122975476Y-125186904D01*
X122927857Y-125282142D01*
X122880238Y-125329761D01*
X122785000Y-125377380D01*
X122642142Y-125377380D01*
X123404047Y-125377380D02*
X123404047Y-124377380D01*
X123832619Y-125377380D02*
X123832619Y-124853571D01*
X123785000Y-124758333D01*
X123689761Y-124710714D01*
X123546904Y-124710714D01*
X123451666Y-124758333D01*
X123404047Y-124805952D01*
X124308809Y-125377380D02*
X124308809Y-124710714D01*
X124308809Y-124805952D02*
X124356428Y-124758333D01*
X124451666Y-124710714D01*
X124594523Y-124710714D01*
X124689761Y-124758333D01*
X124737380Y-124853571D01*
X124737380Y-125377380D01*
X124737380Y-124853571D02*
X124785000Y-124758333D01*
X124880238Y-124710714D01*
X125023095Y-124710714D01*
X125118333Y-124758333D01*
X125165952Y-124853571D01*
X125165952Y-125377380D01*
X126165952Y-125377380D02*
X125594523Y-125377380D01*
X125880238Y-125377380D02*
X125880238Y-124377380D01*
X125785000Y-124520238D01*
X125689761Y-124615476D01*
X125594523Y-124663095D01*
%TO.C,R4-220ohm1*%
X117023095Y-120297380D02*
X116689761Y-119821190D01*
X116451666Y-120297380D02*
X116451666Y-119297380D01*
X116832619Y-119297380D01*
X116927857Y-119345000D01*
X116975476Y-119392619D01*
X117023095Y-119487857D01*
X117023095Y-119630714D01*
X116975476Y-119725952D01*
X116927857Y-119773571D01*
X116832619Y-119821190D01*
X116451666Y-119821190D01*
X117880238Y-119630714D02*
X117880238Y-120297380D01*
X117642142Y-119249761D02*
X117404047Y-119964047D01*
X118023095Y-119964047D01*
X118404047Y-119916428D02*
X119165952Y-119916428D01*
X119594523Y-119392619D02*
X119642142Y-119345000D01*
X119737380Y-119297380D01*
X119975476Y-119297380D01*
X120070714Y-119345000D01*
X120118333Y-119392619D01*
X120165952Y-119487857D01*
X120165952Y-119583095D01*
X120118333Y-119725952D01*
X119546904Y-120297380D01*
X120165952Y-120297380D01*
X120546904Y-119392619D02*
X120594523Y-119345000D01*
X120689761Y-119297380D01*
X120927857Y-119297380D01*
X121023095Y-119345000D01*
X121070714Y-119392619D01*
X121118333Y-119487857D01*
X121118333Y-119583095D01*
X121070714Y-119725952D01*
X120499285Y-120297380D01*
X121118333Y-120297380D01*
X121737380Y-119297380D02*
X121832619Y-119297380D01*
X121927857Y-119345000D01*
X121975476Y-119392619D01*
X122023095Y-119487857D01*
X122070714Y-119678333D01*
X122070714Y-119916428D01*
X122023095Y-120106904D01*
X121975476Y-120202142D01*
X121927857Y-120249761D01*
X121832619Y-120297380D01*
X121737380Y-120297380D01*
X121642142Y-120249761D01*
X121594523Y-120202142D01*
X121546904Y-120106904D01*
X121499285Y-119916428D01*
X121499285Y-119678333D01*
X121546904Y-119487857D01*
X121594523Y-119392619D01*
X121642142Y-119345000D01*
X121737380Y-119297380D01*
X122642142Y-120297380D02*
X122546904Y-120249761D01*
X122499285Y-120202142D01*
X122451666Y-120106904D01*
X122451666Y-119821190D01*
X122499285Y-119725952D01*
X122546904Y-119678333D01*
X122642142Y-119630714D01*
X122785000Y-119630714D01*
X122880238Y-119678333D01*
X122927857Y-119725952D01*
X122975476Y-119821190D01*
X122975476Y-120106904D01*
X122927857Y-120202142D01*
X122880238Y-120249761D01*
X122785000Y-120297380D01*
X122642142Y-120297380D01*
X123404047Y-120297380D02*
X123404047Y-119297380D01*
X123832619Y-120297380D02*
X123832619Y-119773571D01*
X123785000Y-119678333D01*
X123689761Y-119630714D01*
X123546904Y-119630714D01*
X123451666Y-119678333D01*
X123404047Y-119725952D01*
X124308809Y-120297380D02*
X124308809Y-119630714D01*
X124308809Y-119725952D02*
X124356428Y-119678333D01*
X124451666Y-119630714D01*
X124594523Y-119630714D01*
X124689761Y-119678333D01*
X124737380Y-119773571D01*
X124737380Y-120297380D01*
X124737380Y-119773571D02*
X124785000Y-119678333D01*
X124880238Y-119630714D01*
X125023095Y-119630714D01*
X125118333Y-119678333D01*
X125165952Y-119773571D01*
X125165952Y-120297380D01*
X126165952Y-120297380D02*
X125594523Y-120297380D01*
X125880238Y-120297380D02*
X125880238Y-119297380D01*
X125785000Y-119440238D01*
X125689761Y-119535476D01*
X125594523Y-119583095D01*
%TO.C,R3-220ohm1*%
X117023095Y-115217380D02*
X116689761Y-114741190D01*
X116451666Y-115217380D02*
X116451666Y-114217380D01*
X116832619Y-114217380D01*
X116927857Y-114265000D01*
X116975476Y-114312619D01*
X117023095Y-114407857D01*
X117023095Y-114550714D01*
X116975476Y-114645952D01*
X116927857Y-114693571D01*
X116832619Y-114741190D01*
X116451666Y-114741190D01*
X117356428Y-114217380D02*
X117975476Y-114217380D01*
X117642142Y-114598333D01*
X117785000Y-114598333D01*
X117880238Y-114645952D01*
X117927857Y-114693571D01*
X117975476Y-114788809D01*
X117975476Y-115026904D01*
X117927857Y-115122142D01*
X117880238Y-115169761D01*
X117785000Y-115217380D01*
X117499285Y-115217380D01*
X117404047Y-115169761D01*
X117356428Y-115122142D01*
X118404047Y-114836428D02*
X119165952Y-114836428D01*
X119594523Y-114312619D02*
X119642142Y-114265000D01*
X119737380Y-114217380D01*
X119975476Y-114217380D01*
X120070714Y-114265000D01*
X120118333Y-114312619D01*
X120165952Y-114407857D01*
X120165952Y-114503095D01*
X120118333Y-114645952D01*
X119546904Y-115217380D01*
X120165952Y-115217380D01*
X120546904Y-114312619D02*
X120594523Y-114265000D01*
X120689761Y-114217380D01*
X120927857Y-114217380D01*
X121023095Y-114265000D01*
X121070714Y-114312619D01*
X121118333Y-114407857D01*
X121118333Y-114503095D01*
X121070714Y-114645952D01*
X120499285Y-115217380D01*
X121118333Y-115217380D01*
X121737380Y-114217380D02*
X121832619Y-114217380D01*
X121927857Y-114265000D01*
X121975476Y-114312619D01*
X122023095Y-114407857D01*
X122070714Y-114598333D01*
X122070714Y-114836428D01*
X122023095Y-115026904D01*
X121975476Y-115122142D01*
X121927857Y-115169761D01*
X121832619Y-115217380D01*
X121737380Y-115217380D01*
X121642142Y-115169761D01*
X121594523Y-115122142D01*
X121546904Y-115026904D01*
X121499285Y-114836428D01*
X121499285Y-114598333D01*
X121546904Y-114407857D01*
X121594523Y-114312619D01*
X121642142Y-114265000D01*
X121737380Y-114217380D01*
X122642142Y-115217380D02*
X122546904Y-115169761D01*
X122499285Y-115122142D01*
X122451666Y-115026904D01*
X122451666Y-114741190D01*
X122499285Y-114645952D01*
X122546904Y-114598333D01*
X122642142Y-114550714D01*
X122785000Y-114550714D01*
X122880238Y-114598333D01*
X122927857Y-114645952D01*
X122975476Y-114741190D01*
X122975476Y-115026904D01*
X122927857Y-115122142D01*
X122880238Y-115169761D01*
X122785000Y-115217380D01*
X122642142Y-115217380D01*
X123404047Y-115217380D02*
X123404047Y-114217380D01*
X123832619Y-115217380D02*
X123832619Y-114693571D01*
X123785000Y-114598333D01*
X123689761Y-114550714D01*
X123546904Y-114550714D01*
X123451666Y-114598333D01*
X123404047Y-114645952D01*
X124308809Y-115217380D02*
X124308809Y-114550714D01*
X124308809Y-114645952D02*
X124356428Y-114598333D01*
X124451666Y-114550714D01*
X124594523Y-114550714D01*
X124689761Y-114598333D01*
X124737380Y-114693571D01*
X124737380Y-115217380D01*
X124737380Y-114693571D02*
X124785000Y-114598333D01*
X124880238Y-114550714D01*
X125023095Y-114550714D01*
X125118333Y-114598333D01*
X125165952Y-114693571D01*
X125165952Y-115217380D01*
X126165952Y-115217380D02*
X125594523Y-115217380D01*
X125880238Y-115217380D02*
X125880238Y-114217380D01*
X125785000Y-114360238D01*
X125689761Y-114455476D01*
X125594523Y-114503095D01*
%TO.C,R2-220ohm1*%
X117023095Y-110137380D02*
X116689761Y-109661190D01*
X116451666Y-110137380D02*
X116451666Y-109137380D01*
X116832619Y-109137380D01*
X116927857Y-109185000D01*
X116975476Y-109232619D01*
X117023095Y-109327857D01*
X117023095Y-109470714D01*
X116975476Y-109565952D01*
X116927857Y-109613571D01*
X116832619Y-109661190D01*
X116451666Y-109661190D01*
X117404047Y-109232619D02*
X117451666Y-109185000D01*
X117546904Y-109137380D01*
X117785000Y-109137380D01*
X117880238Y-109185000D01*
X117927857Y-109232619D01*
X117975476Y-109327857D01*
X117975476Y-109423095D01*
X117927857Y-109565952D01*
X117356428Y-110137380D01*
X117975476Y-110137380D01*
X118404047Y-109756428D02*
X119165952Y-109756428D01*
X119594523Y-109232619D02*
X119642142Y-109185000D01*
X119737380Y-109137380D01*
X119975476Y-109137380D01*
X120070714Y-109185000D01*
X120118333Y-109232619D01*
X120165952Y-109327857D01*
X120165952Y-109423095D01*
X120118333Y-109565952D01*
X119546904Y-110137380D01*
X120165952Y-110137380D01*
X120546904Y-109232619D02*
X120594523Y-109185000D01*
X120689761Y-109137380D01*
X120927857Y-109137380D01*
X121023095Y-109185000D01*
X121070714Y-109232619D01*
X121118333Y-109327857D01*
X121118333Y-109423095D01*
X121070714Y-109565952D01*
X120499285Y-110137380D01*
X121118333Y-110137380D01*
X121737380Y-109137380D02*
X121832619Y-109137380D01*
X121927857Y-109185000D01*
X121975476Y-109232619D01*
X122023095Y-109327857D01*
X122070714Y-109518333D01*
X122070714Y-109756428D01*
X122023095Y-109946904D01*
X121975476Y-110042142D01*
X121927857Y-110089761D01*
X121832619Y-110137380D01*
X121737380Y-110137380D01*
X121642142Y-110089761D01*
X121594523Y-110042142D01*
X121546904Y-109946904D01*
X121499285Y-109756428D01*
X121499285Y-109518333D01*
X121546904Y-109327857D01*
X121594523Y-109232619D01*
X121642142Y-109185000D01*
X121737380Y-109137380D01*
X122642142Y-110137380D02*
X122546904Y-110089761D01*
X122499285Y-110042142D01*
X122451666Y-109946904D01*
X122451666Y-109661190D01*
X122499285Y-109565952D01*
X122546904Y-109518333D01*
X122642142Y-109470714D01*
X122785000Y-109470714D01*
X122880238Y-109518333D01*
X122927857Y-109565952D01*
X122975476Y-109661190D01*
X122975476Y-109946904D01*
X122927857Y-110042142D01*
X122880238Y-110089761D01*
X122785000Y-110137380D01*
X122642142Y-110137380D01*
X123404047Y-110137380D02*
X123404047Y-109137380D01*
X123832619Y-110137380D02*
X123832619Y-109613571D01*
X123785000Y-109518333D01*
X123689761Y-109470714D01*
X123546904Y-109470714D01*
X123451666Y-109518333D01*
X123404047Y-109565952D01*
X124308809Y-110137380D02*
X124308809Y-109470714D01*
X124308809Y-109565952D02*
X124356428Y-109518333D01*
X124451666Y-109470714D01*
X124594523Y-109470714D01*
X124689761Y-109518333D01*
X124737380Y-109613571D01*
X124737380Y-110137380D01*
X124737380Y-109613571D02*
X124785000Y-109518333D01*
X124880238Y-109470714D01*
X125023095Y-109470714D01*
X125118333Y-109518333D01*
X125165952Y-109613571D01*
X125165952Y-110137380D01*
X126165952Y-110137380D02*
X125594523Y-110137380D01*
X125880238Y-110137380D02*
X125880238Y-109137380D01*
X125785000Y-109280238D01*
X125689761Y-109375476D01*
X125594523Y-109423095D01*
%TO.C,R1-220ohm1*%
X117023095Y-105057380D02*
X116689761Y-104581190D01*
X116451666Y-105057380D02*
X116451666Y-104057380D01*
X116832619Y-104057380D01*
X116927857Y-104105000D01*
X116975476Y-104152619D01*
X117023095Y-104247857D01*
X117023095Y-104390714D01*
X116975476Y-104485952D01*
X116927857Y-104533571D01*
X116832619Y-104581190D01*
X116451666Y-104581190D01*
X117975476Y-105057380D02*
X117404047Y-105057380D01*
X117689761Y-105057380D02*
X117689761Y-104057380D01*
X117594523Y-104200238D01*
X117499285Y-104295476D01*
X117404047Y-104343095D01*
X118404047Y-104676428D02*
X119165952Y-104676428D01*
X119594523Y-104152619D02*
X119642142Y-104105000D01*
X119737380Y-104057380D01*
X119975476Y-104057380D01*
X120070714Y-104105000D01*
X120118333Y-104152619D01*
X120165952Y-104247857D01*
X120165952Y-104343095D01*
X120118333Y-104485952D01*
X119546904Y-105057380D01*
X120165952Y-105057380D01*
X120546904Y-104152619D02*
X120594523Y-104105000D01*
X120689761Y-104057380D01*
X120927857Y-104057380D01*
X121023095Y-104105000D01*
X121070714Y-104152619D01*
X121118333Y-104247857D01*
X121118333Y-104343095D01*
X121070714Y-104485952D01*
X120499285Y-105057380D01*
X121118333Y-105057380D01*
X121737380Y-104057380D02*
X121832619Y-104057380D01*
X121927857Y-104105000D01*
X121975476Y-104152619D01*
X122023095Y-104247857D01*
X122070714Y-104438333D01*
X122070714Y-104676428D01*
X122023095Y-104866904D01*
X121975476Y-104962142D01*
X121927857Y-105009761D01*
X121832619Y-105057380D01*
X121737380Y-105057380D01*
X121642142Y-105009761D01*
X121594523Y-104962142D01*
X121546904Y-104866904D01*
X121499285Y-104676428D01*
X121499285Y-104438333D01*
X121546904Y-104247857D01*
X121594523Y-104152619D01*
X121642142Y-104105000D01*
X121737380Y-104057380D01*
X122642142Y-105057380D02*
X122546904Y-105009761D01*
X122499285Y-104962142D01*
X122451666Y-104866904D01*
X122451666Y-104581190D01*
X122499285Y-104485952D01*
X122546904Y-104438333D01*
X122642142Y-104390714D01*
X122785000Y-104390714D01*
X122880238Y-104438333D01*
X122927857Y-104485952D01*
X122975476Y-104581190D01*
X122975476Y-104866904D01*
X122927857Y-104962142D01*
X122880238Y-105009761D01*
X122785000Y-105057380D01*
X122642142Y-105057380D01*
X123404047Y-105057380D02*
X123404047Y-104057380D01*
X123832619Y-105057380D02*
X123832619Y-104533571D01*
X123785000Y-104438333D01*
X123689761Y-104390714D01*
X123546904Y-104390714D01*
X123451666Y-104438333D01*
X123404047Y-104485952D01*
X124308809Y-105057380D02*
X124308809Y-104390714D01*
X124308809Y-104485952D02*
X124356428Y-104438333D01*
X124451666Y-104390714D01*
X124594523Y-104390714D01*
X124689761Y-104438333D01*
X124737380Y-104533571D01*
X124737380Y-105057380D01*
X124737380Y-104533571D02*
X124785000Y-104438333D01*
X124880238Y-104390714D01*
X125023095Y-104390714D01*
X125118333Y-104438333D01*
X125165952Y-104533571D01*
X125165952Y-105057380D01*
X126165952Y-105057380D02*
X125594523Y-105057380D01*
X125880238Y-105057380D02*
X125880238Y-104057380D01*
X125785000Y-104200238D01*
X125689761Y-104295476D01*
X125594523Y-104343095D01*
%TD*%
M02*
